$MeshFormat
4.1 0 8
$EndMeshFormat
$PhysicalNames
1
3 1 "solid"
$EndPhysicalNames
$Entities
8 12 6 1
1 0 0 0.05 0 
2 0 0 0 0 
3 0 0.05 0.05 0 
4 0 0.05 0 0 
5 0.4 0 0.05 0 
6 0.4 0 0 0 
7 0.4 0.05 0.05 0 
8 0.4 0.05 0 0 
1 -1e-07 -1e-07 -9.999999999940612e-08 1e-07 1e-07 0.05000010000000001 0 2 2 -1 
2 -1e-07 -9.999999999940612e-08 0.0499999 1e-07 0.05000010000000001 0.05000010000000001 0 2 1 -3 
3 -1e-07 0.0499999 -9.999999999940612e-08 1e-07 0.05000010000000001 0.05000010000000001 0 2 4 -3 
4 -1e-07 -9.999999999940612e-08 -1e-07 1e-07 0.05000010000000001 1e-07 0 2 2 -4 
5 0.3999999 -1e-07 -9.999999999940612e-08 0.4000001 1e-07 0.05000010000000001 0 2 6 -5 
6 0.3999999 -9.999999999940612e-08 0.0499999 0.4000001 0.05000010000000001 0.05000010000000001 0 2 5 -7 
7 0.3999999 0.0499999 -9.999999999940612e-08 0.4000001 0.05000010000000001 0.05000010000000001 0 2 8 -7 
8 0.3999999 -9.999999999940612e-08 -1e-07 0.4000001 0.05000010000000001 1e-07 0 2 6 -8 
9 -1.000000000028756e-07 -1e-07 -1e-07 0.4000001 1e-07 1e-07 0 2 2 -6 
10 -1.000000000028756e-07 -1e-07 0.0499999 0.4000001 1e-07 0.05000010000000001 0 2 1 -5 
11 -1.000000000028756e-07 0.0499999 -1e-07 0.4000001 0.05000010000000001 1e-07 0 2 4 -8 
12 -1.000000000028756e-07 0.0499999 0.0499999 0.4000001 0.05000010000000001 0.05000010000000001 0 2 3 -7 
1 -1e-07 -9.999999999940612e-08 -9.999999999940612e-08 1e-07 0.05000010000000001 0.05000010000000001 0 4 -1 4 3 -2 
2 0.3999999 -9.999999999940612e-08 -9.999999999940612e-08 0.4000001 0.05000010000000001 0.05000010000000001 0 4 -5 8 7 -6 
3 -1.000000000028756e-07 -1e-07 -9.999999999940612e-08 0.4000001 1e-07 0.05000010000000001 0 4 -9 1 10 -5 
4 -1.000000000028756e-07 0.0499999 -9.999999999940612e-08 0.4000001 0.05000010000000001 0.05000010000000001 0 4 -11 3 12 -7 
5 -1.000000000028756e-07 -9.999999999940612e-08 -1e-07 0.4000001 0.05000010000000001 1e-07 0 4 -4 9 8 -11 
6 -1.000000000028756e-07 -9.999999999940612e-08 0.0499999 0.4000001 0.05000010000000001 0.05000010000000001 0 4 -2 10 6 -12 
1 -1.000000000028756e-07 -9.999999999940612e-08 -9.999999999940612e-08 0.4000001 0.05000010000000001 0.05000010000000001 1 1 6 -1 2 -3 4 -5 6 
$EndEntities
$Nodes
27 100 1 100
0 1 0 1
1
0 0 0.05
0 2 0 1
2
0 0 0
0 3 0 1
3
0 0.05 0.05
0 4 0 1
4
0 0.05 0
0 5 0 1
5
0.4 0 0.05
0 6 0 1
6
0.4 0 0
0 7 0 1
7
0.4 0.05 0.05
0 8 0 1
8
0.4 0.05 0
1 1 0 1
9
0 0 0.02500000000000004
1 2 0 1
10
0 0.02500000000000004 0.05
1 3 0 1
11
0 0.05 0.02500000000000004
1 4 0 1
12
0 0.02500000000000004 0
1 5 0 1
13
0.4 0 0.02500000000000004
1 6 0 1
14
0.4 0.02500000000000004 0.05
1 7 0 1
15
0.4 0.05 0.02500000000000004
1 8 0 1
16
0.4 0.02500000000000004 0
1 9 0 9
17
18
19
20
21
22
23
24
25
0.04000000000000004 0 0
0.0800000000000001 0 0
0.1200000000000002 0 0
0.1600000000000003 0 0
0.2000000000000003 0 0
0.2400000000000003 0 0
0.2800000000000003 0 0
0.3200000000000003 0 0
0.3600000000000002 0 0
1 10 0 9
26
27
28
29
30
31
32
33
34
0.04000000000000004 0 0.05
0.0800000000000001 0 0.05
0.1200000000000002 0 0.05
0.1600000000000003 0 0.05
0.2000000000000003 0 0.05
0.2400000000000003 0 0.05
0.2800000000000003 0 0.05
0.3200000000000003 0 0.05
0.3600000000000002 0 0.05
1 11 0 9
35
36
37
38
39
40
41
42
43
0.04000000000000004 0.05 0
0.0800000000000001 0.05 0
0.1200000000000002 0.05 0
0.1600000000000003 0.05 0
0.2000000000000003 0.05 0
0.2400000000000003 0.05 0
0.2800000000000003 0.05 0
0.3200000000000003 0.05 0
0.3600000000000002 0.05 0
1 12 0 9
44
45
46
47
48
49
50
51
52
0.04000000000000004 0.05 0.05
0.0800000000000001 0.05 0.05
0.1200000000000002 0.05 0.05
0.1600000000000003 0.05 0.05
0.2000000000000003 0.05 0.05
0.2400000000000003 0.05 0.05
0.2800000000000003 0.05 0.05
0.3200000000000003 0.05 0.05
0.3600000000000002 0.05 0.05
2 1 0 4
53
54
55
56
0 0.01306942419825075 0.01306942419825075
0 0.01875 0.03125000000000002
0 0.0321261540330418 0.01754282069970847
0 0.0359375 0.0359375
2 2 0 4
57
58
59
60
0.4 0.01306942419825075 0.01306942419825075
0.4 0.01875 0.03125000000000002
0.4 0.0321261540330418 0.01754282069970847
0.4 0.0359375 0.0359375
2 3 0 10
61
62
63
64
65
66
67
68
69
70
0.3400000000000004 0 0.025
0.3000000000000004 0 0.025
0.2200000000000003 0 0.025
0.1800000000000003 0 0.025
0.1400000000000003 0 0.025
0.2600000000000002 0 0.025
0.1000000000000001 0 0.025
0.06000000000000006 0 0.025
0.3753869047619049 0 0.02499999999999999
0.02461309523809525 0 0.02500000000000001
2 4 0 10
71
72
73
74
75
76
77
78
79
80
0.3400000000000004 0.05 0.025
0.3000000000000004 0.05 0.025
0.2200000000000003 0.05 0.025
0.1800000000000003 0.05 0.025
0.1400000000000003 0.05 0.025
0.1000000000000001 0.05 0.025
0.2600000000000002 0.05 0.025
0.06000000000000006 0.05 0.025
0.3753869047619049 0.05 0.02499999999999999
0.02461309523809525 0.05 0.02500000000000001
2 5 0 10
81
82
83
84
85
86
87
88
89
90
0.3400000000000004 0.02500000000000006 0
0.2600000000000002 0.02500000000000002 0
0.2200000000000003 0.02500000000000001 0
0.3000000000000003 0.02500000000000001 0
0.1800000000000003 0.025 0
0.1400000000000003 0.025 0
0.1000000000000001 0.025 0
0.06000000000000006 0.025 0
0.3753869047619048 0.02500000000000001 0
0.02461309523809525 0.02500000000000001 0
2 6 0 10
91
92
93
94
95
96
97
98
99
100
0.3400000000000004 0.025 0.05
0.2600000000000002 0.02500000000000002 0.05
0.2200000000000003 0.02499999999999999 0.05
0.3000000000000003 0.02500000000000001 0.05
0.1800000000000003 0.025 0.05
0.1400000000000002 0.025 0.05
0.1000000000000001 0.025 0.05
0.06000000000000006 0.025 0.05
0.3753869047619048 0.025 0.05
0.02461309523809525 0.02500000000000001 0.05
3 1 0 0
$EndNodes
$Elements
1 209 1 209
3 1 4 209
1 81 89 79 69 
2 79 99 91 69 
3 80 70 90 78 
4 78 80 70 100 
5 58 60 59 79 
6 56 55 80 54 
7 91 61 79 69 
8 81 79 61 69 
9 70 78 100 98 
10 88 90 70 78 
11 89 59 58 57 
12 53 90 55 54 
13 79 59 58 89 
14 90 80 55 54 
15 83 73 64 63 
16 73 93 95 63 
17 71 61 91 84 
18 91 94 71 84 
19 94 91 61 84 
20 72 71 94 84 
21 95 64 73 63 
22 95 64 74 73 
23 84 71 61 81 
24 73 64 85 83 
25 84 61 94 62 
26 96 75 65 97 
27 85 74 64 73 
28 96 65 74 95 
29 78 88 87 68 
30 64 74 65 95 
31 78 97 98 68 
32 97 87 65 67 
33 74 64 65 85 
34 97 78 87 68 
35 65 85 86 74 
36 86 87 65 75 
37 75 87 65 97 
38 66 73 83 63 
39 75 76 87 97 
40 73 66 93 63 
41 74 75 65 96 
42 75 65 86 74 
43 68 87 97 67 
44 78 87 76 97 
45 66 73 82 83 
46 66 77 84 82 
47 77 66 93 73 
48 77 94 66 84 
49 92 94 66 77 
50 73 77 66 82 
51 94 77 72 84 
52 84 94 66 62 
53 92 66 93 77 
54 91 61 71 79 
55 61 71 79 81 
56 98 70 78 68 
57 70 88 78 68 
58 60 58 99 79 
59 100 56 80 54 
60 79 58 99 69 
61 58 79 89 69 
62 80 90 70 54 
63 100 80 70 54 
64 58 89 57 69 
65 90 53 70 54 
66 71 72 42 84 
67 94 92 50 77 
68 61 84 81 24 
69 61 94 33 91 
70 84 42 71 81 
71 65 96 97 28 
72 91 94 51 71 
73 85 39 73 83 
74 64 21 83 63 
75 76 75 46 97 
76 74 47 96 95 
77 94 32 66 62 
78 95 93 30 63 
79 84 61 62 24 
80 67 65 97 28 
81 48 93 95 73 
82 96 46 75 97 
83 18 87 68 67 
84 87 65 19 86 
85 76 36 87 78 
86 87 19 65 67 
87 84 77 41 82 
88 75 74 47 96 
89 85 65 20 64 
90 76 87 37 75 
91 36 88 87 78 
92 87 86 37 75 
93 94 66 32 92 
94 30 64 95 63 
95 85 39 74 73 
96 50 94 77 72 
97 48 95 74 73 
98 82 84 66 23 
99 18 87 88 68 
100 38 86 85 74 
101 65 96 29 95 
102 27 98 97 68 
103 64 21 85 83 
104 97 45 78 98 
105 97 27 68 67 
106 45 78 76 97 
107 29 64 65 95 
108 94 61 33 62 
109 86 38 75 74 
110 41 72 77 84 
111 71 94 51 72 
112 23 84 66 62 
113 20 65 85 86 
114 73 40 82 83 
115 93 49 77 73 
116 66 31 93 63 
117 66 83 22 63 
118 77 73 40 82 
119 83 66 22 82 
120 66 93 31 92 
121 49 92 93 77 
122 69 81 89 25 
123 34 91 99 69 
124 90 70 17 88 
125 52 99 91 79 
126 98 100 70 26 
127 80 90 35 78 
128 80 78 44 100 
129 79 43 89 81 
130 100 78 44 98 
131 88 70 17 68 
132 70 98 26 68 
133 90 88 35 78 
134 91 34 61 69 
135 61 81 69 25 
136 71 52 91 79 
137 43 79 71 81 
138 57 89 6 69 
139 53 70 2 90 
140 99 7 60 79 
141 56 80 3 100 
142 89 16 59 57 
143 90 12 53 55 
144 60 59 79 15 
145 55 80 11 56 
146 53 9 70 54 
147 13 58 57 69 
148 99 14 58 60 
149 100 10 56 54 
150 8 59 79 89 
151 80 4 90 55 
152 99 58 5 69 
153 100 70 1 54 
154 14 58 5 99 
155 13 5 58 69 
156 70 9 1 54 
157 100 1 10 54 
158 7 14 99 60 
159 7 60 79 15 
160 56 3 10 100 
161 3 11 80 56 
162 6 16 89 57 
163 13 57 6 69 
164 53 2 12 90 
165 2 9 70 53 
166 79 59 8 15 
167 80 11 4 55 
168 59 8 16 89 
169 4 12 90 55 
170 89 6 69 25 
171 5 34 99 69 
172 7 99 52 79 
173 43 8 79 89 
174 100 1 70 26 
175 70 17 2 90 
176 4 90 35 80 
177 44 3 80 100 
178 93 31 30 63 
179 48 49 93 73 
180 40 73 39 83 
181 22 83 21 63 
182 40 41 77 82 
183 23 66 82 22 
184 33 34 61 91 
185 25 61 81 24 
186 46 45 76 97 
187 87 37 36 76 
188 97 27 67 28 
189 91 51 52 71 
190 45 44 78 98 
191 87 18 19 67 
192 98 27 26 68 
193 95 29 64 30 
194 74 47 95 48 
195 88 36 35 78 
196 47 46 75 96 
197 65 96 28 29 
198 65 20 19 86 
199 17 18 88 68 
200 66 31 32 92 
201 62 23 84 24 
202 42 43 71 81 
203 94 33 32 62 
204 20 21 85 64 
205 38 85 39 74 
206 94 50 51 72 
207 86 38 37 75 
208 92 49 50 77 
209 41 42 72 84 
$EndElements
