$MeshFormat
4.1 0 8
$EndMeshFormat
$PhysicalNames
4
2 3 "left"
2 4 "right"
3 1 "material_body_a"
3 2 "material_body_b"
$EndPhysicalNames
$Entities
12 20 11 2
1 0 0 0.05 0 
2 0 0 0 0 
3 0 0.1 0.05 0 
4 0 0.1 0 0 
5 0.3 0 0 0 
6 0.3 0 0.05 0 
7 0.3 0.1 0.05 0 
8 0.3 0.1 0 0 
9 0.6 0 0.05 0 
10 0.6 0 0 0 
11 0.6 0.1 0.05 0 
12 0.6 0.1 0 0 
1 -1e-07 -1e-07 -9.999999999940612e-08 1e-07 1e-07 0.05000010000000001 0 2 2 -1 
2 -1e-07 -1.000000000028756e-07 0.0499999 1e-07 0.1000001 0.05000010000000001 0 2 1 -3 
3 -1e-07 0.0999999 -9.999999999940612e-08 1e-07 0.1000001 0.05000010000000001 0 2 4 -3 
4 -1e-07 -1.000000000028756e-07 -1e-07 1e-07 0.1000001 1e-07 0 2 2 -4 
5 0.2999999 -1e-07 -9.999999999940612e-08 0.3000001 1e-07 0.05000010000000001 0 2 5 -6 
6 0.2999999 -1.000000000028756e-07 0.0499999 0.3000001 0.1000001 0.05000010000000001 0 2 6 -7 
7 0.2999999 0.0999999 -9.999999999940612e-08 0.3000001 0.1000001 0.05000010000000001 0 2 8 -7 
8 0.2999999 -1.000000000028756e-07 -1e-07 0.3000001 0.1000001 1e-07 0 2 5 -8 
9 -1.000000000028756e-07 -1e-07 -1e-07 0.3000001 1e-07 1e-07 0 2 2 -5 
10 -1.000000000028756e-07 -1e-07 0.0499999 0.3000001 1e-07 0.05000010000000001 0 2 1 -6 
11 -1.000000000028756e-07 0.0999999 -1e-07 0.3000001 0.1000001 1e-07 0 2 4 -8 
12 -1.000000000028756e-07 0.0999999 0.0499999 0.3000001 0.1000001 0.05000010000000001 0 2 3 -7 
13 0.5999999 -1e-07 -9.999999999940612e-08 0.6000000999999999 1e-07 0.05000010000000001 0 2 10 -9 
14 0.5999999 -1.000000000028756e-07 0.0499999 0.6000000999999999 0.1000001 0.05000010000000001 0 2 9 -11 
15 0.5999999 0.0999999 -9.999999999940612e-08 0.6000000999999999 0.1000001 0.05000010000000001 0 2 12 -11 
16 0.5999999 -1.000000000028756e-07 -1e-07 0.6000000999999999 0.1000001 1e-07 0 2 10 -12 
17 0.2999999 -1e-07 -1e-07 0.6000000999999999 1e-07 1e-07 0 2 5 -10 
18 0.2999999 -1e-07 0.0499999 0.6000000999999999 1e-07 0.05000010000000001 0 2 6 -9 
19 0.2999999 0.0999999 -1e-07 0.6000000999999999 0.1000001 1e-07 0 2 8 -12 
20 0.2999999 0.0999999 0.0499999 0.6000000999999999 0.1000001 0.05000010000000001 0 2 7 -11 
1 -1e-07 -1.000000000028756e-07 -9.999999999940612e-08 1e-07 0.1000001 0.05000010000000001 1 3 4 -1 4 3 -2 
2 0.2999999 -1.000000000028756e-07 -9.999999999940612e-08 0.3000001 0.1000001 0.05000010000000001 0 4 -5 8 7 -6 
3 -1.000000000028756e-07 -1e-07 -9.999999999940612e-08 0.3000001 1e-07 0.05000010000000001 0 4 -9 1 10 -5 
4 -1.000000000028756e-07 0.0999999 -9.999999999940612e-08 0.3000001 0.1000001 0.05000010000000001 0 4 -11 3 12 -7 
5 -1.000000000028756e-07 -1.000000000028756e-07 -1e-07 0.3000001 0.1000001 1e-07 0 4 -4 9 8 -11 
6 -1.000000000028756e-07 -1.000000000028756e-07 0.0499999 0.3000001 0.1000001 0.05000010000000001 0 4 -2 10 6 -12 
7 0.5999999 -1.000000000028756e-07 -9.999999999940612e-08 0.6000000999999999 0.1000001 0.05000010000000001 1 4 4 -13 16 15 -14 
8 0.2999999 -1e-07 -9.999999999940612e-08 0.6000000999999999 1e-07 0.05000010000000001 0 4 -17 5 18 -13 
9 0.2999999 0.0999999 -9.999999999940612e-08 0.6000000999999999 0.1000001 0.05000010000000001 0 4 -19 7 20 -15 
10 0.2999999 -1.000000000028756e-07 -1e-07 0.6000000999999999 0.1000001 1e-07 0 4 -8 17 16 -19 
11 0.2999999 -1.000000000028756e-07 0.0499999 0.6000000999999999 0.1000001 0.05000010000000001 0 4 -6 18 14 -20 
1 -1.000000000028756e-07 -1.000000000028756e-07 -9.999999999940612e-08 0.3000001 0.1000001 0.05000010000000001 1 1 6 -1 2 -3 4 -5 6 
2 0.2999999 -1.000000000028756e-07 -9.999999999940612e-08 0.6000000999999999 0.1000001 0.05000010000000001 1 2 6 -2 7 -8 9 -10 11 
$EndEntities
$Nodes
45 199 1 199
0 1 0 1
1
0 0 0.05
0 2 0 1
2
0 0 0
0 3 0 1
3
0 0.1 0.05
0 4 0 1
4
0 0.1 0
0 5 0 1
5
0.3 0 0
0 6 0 1
6
0.3 0 0.05
0 7 0 1
7
0.3 0.1 0.05
0 8 0 1
8
0.3 0.1 0
0 9 0 1
9
0.6 0 0.05
0 10 0 1
10
0.6 0 0
0 11 0 1
11
0.6 0.1 0.05
0 12 0 1
12
0.6 0.1 0
1 1 0 1
13
0 0 0.02500000000000004
1 2 0 2
14
15
0 0.03333333333333339 0.05
0 0.06666666666666675 0.05
1 3 0 1
16
0 0.1 0.02500000000000004
1 4 0 2
17
18
0 0.03333333333333339 0
0 0.06666666666666675 0
1 5 0 1
19
0.3 0 0.02500000000000004
1 6 0 2
20
21
0.3 0.03333333333333339 0.05
0.3 0.06666666666666675 0.05
1 7 0 1
22
0.3 0.1 0.02500000000000004
1 8 0 2
23
24
0.3 0.03333333333333339 0
0.3 0.06666666666666675 0
1 9 0 7
25
26
27
28
29
30
31
0.03749999999999994 0 0
0.07499999999999986 0 0
0.1124999999999998 0 0
0.1499999999999998 0 0
0.1874999999999998 0 0
0.2249999999999999 0 0
0.2625 0 0
1 10 0 7
32
33
34
35
36
37
38
0.03749999999999994 0 0.05
0.07499999999999986 0 0.05
0.1124999999999998 0 0.05
0.1499999999999998 0 0.05
0.1874999999999998 0 0.05
0.2249999999999999 0 0.05
0.2625 0 0.05
1 11 0 7
39
40
41
42
43
44
45
0.03749999999999994 0.1 0
0.07499999999999986 0.1 0
0.1124999999999998 0.1 0
0.1499999999999998 0.1 0
0.1874999999999998 0.1 0
0.2249999999999999 0.1 0
0.2625 0.1 0
1 12 0 7
46
47
48
49
50
51
52
0.03749999999999994 0.1 0.05
0.07499999999999986 0.1 0.05
0.1124999999999998 0.1 0.05
0.1499999999999998 0.1 0.05
0.1874999999999998 0.1 0.05
0.2249999999999999 0.1 0.05
0.2625 0.1 0.05
1 13 0 1
53
0.6 0 0.02500000000000004
1 14 0 2
54
55
0.6 0.03333333333333339 0.05
0.6 0.06666666666666675 0.05
1 15 0 1
56
0.6 0.1 0.02500000000000004
1 16 0 2
57
58
0.6 0.03333333333333339 0
0.6 0.06666666666666675 0
1 17 0 7
59
60
61
62
63
64
65
0.3374999999999999 0 0
0.3749999999999998 0 0
0.4124999999999998 0 0
0.4499999999999997 0 0
0.4874999999999998 0 0
0.5249999999999999 0 0
0.5625 0 0
1 18 0 7
66
67
68
69
70
71
72
0.3374999999999999 0 0.05
0.3749999999999998 0 0.05
0.4124999999999998 0 0.05
0.4499999999999997 0 0.05
0.4874999999999998 0 0.05
0.5249999999999999 0 0.05
0.5625 0 0.05
1 19 0 7
73
74
75
76
77
78
79
0.3374999999999999 0.1 0
0.3749999999999998 0.1 0
0.4124999999999998 0.1 0
0.4499999999999997 0.1 0
0.4874999999999998 0.1 0
0.5249999999999999 0.1 0
0.5625 0.1 0
1 20 0 7
80
81
82
83
84
85
86
0.3374999999999999 0.1 0.05
0.3749999999999998 0.1 0.05
0.4124999999999998 0.1 0.05
0.4499999999999997 0.1 0.05
0.4874999999999998 0.1 0.05
0.5249999999999999 0.1 0.05
0.5625 0.1 0.05
2 1 0 3
87
88
89
0 0.05000000000000006 0.02500000000000001
0 0.02500000000000004 0.02361111111111114
0 0.07500000000000004 0.02638888888888892
2 2 0 3
90
91
92
0.3 0.05000000000000006 0.02500000000000001
0.3 0.02500000000000004 0.02361111111111114
0.3 0.07500000000000004 0.02638888888888892
2 3 0 8
93
94
95
96
97
98
99
100
0.0562499999999999 0 0.025
0.09374999999999983 0 0.025
0.1312499999999998 0 0.025
0.1687499999999998 0 0.025
0.2062499999999998 0 0.025
0.2437499999999998 0 0.025
0.02518525267249754 0 0.02499999999999999
0.2748147473275024 0 0.025
2 4 0 8
101
102
103
104
105
106
107
108
0.0562499999999999 0.1 0.025
0.09374999999999983 0.1 0.025
0.1312499999999998 0.1 0.02499999999999999
0.1687499999999998 0.1 0.025
0.2062499999999998 0.1 0.025
0.2437499999999999 0.1 0.025
0.02518525267249754 0.1 0.02499999999999999
0.2748147473275024 0.1 0.025
2 5 0 18
109
110
111
112
113
114
115
116
117
118
119
120
121
122
123
124
125
126
0.02886751345948127 0.05000000000000008 0
0.2711324865405187 0.05000000000000008 0
0.09374999999999982 0.03247595264191638 0
0.1687499999999998 0.06752404735808357 0
0.2062499999999998 0.03247595264191649 0
0.1312499999999998 0.06752404735808359 0
0.09421200443613346 0.07377725559308476 0
0.1312499999999998 0.02987623873840468 0
0.1671230737192834 0.03161204954529521 0
0.2057879955638662 0.07377725559308475 0
0.2469064750292867 0.0291548688718588 0
0.05309352497071308 0.02915486887185881 0
0.2414399778193318 0.06888627796542371 0
0.05856002218066797 0.06888627796542379 0
0.02488361418412967 0.02356698262381259 0
0.02488361418412963 0.07643301737618752 0
0.2751163858158704 0.07643301737618757 0
0.2751163858158704 0.02356698262381252 0
2 6 0 18
127
128
129
130
131
132
133
134
135
136
137
138
139
140
141
142
143
144
0.02886751345948127 0.05000000000000008 0.05
0.2711324865405187 0.05000000000000008 0.05
0.09374999999999982 0.03247595264191638 0.05
0.1687499999999998 0.06752404735808357 0.05
0.2062499999999998 0.03247595264191649 0.05
0.1312499999999998 0.06752404735808359 0.05
0.09421200443613346 0.07377725559308476 0.05
0.1312499999999998 0.02987623873840468 0.05
0.1671230737192834 0.03161204954529521 0.05
0.2057879955638662 0.07377725559308475 0.05
0.2469064750292867 0.0291548688718588 0.05
0.05309352497071308 0.02915486887185881 0.05
0.2414399778193318 0.06888627796542371 0.05
0.05856002218066797 0.06888627796542379 0.05
0.02488361418412967 0.02356698262381259 0.05
0.02488361418412963 0.07643301737618752 0.05
0.2751163858158704 0.07643301737618757 0.05
0.2751163858158704 0.02356698262381252 0.05
2 7 0 3
145
146
147
0.6 0.05000000000000006 0.02500000000000001
0.6 0.02500000000000004 0.02361111111111115
0.6 0.07500000000000005 0.02638888888888893
2 8 0 8
148
149
150
151
152
153
154
155
0.3937499999999998 0 0.025
0.4312499999999998 0 0.025
0.3562499999999999 0 0.025
0.5437499999999998 0 0.025
0.4687499999999998 0 0.02500000000000002
0.5062499999999999 0 0.02500000000000002
0.3251852526724975 0 0.02499999999999999
0.5748147473275025 0 0.025
2 9 0 8
156
157
158
159
160
161
162
163
0.3562499999999999 0.1 0.025
0.4312499999999998 0.1 0.02499999999999999
0.3937499999999998 0.1 0.025
0.5437499999999998 0.1 0.025
0.4687499999999998 0.1 0.025
0.5062499999999999 0.1 0.02500000000000001
0.3251852526724975 0.1 0.02499999999999999
0.5748147473275025 0.1 0.025
2 10 0 18
164
165
166
167
168
169
170
171
172
173
174
175
176
177
178
179
180
181
0.3288675134594812 0.05000000000000008 0
0.5711324865405187 0.05000000000000008 0
0.3937499999999998 0.03247595264191638 0
0.4687499999999998 0.06752404735808355 0
0.5062499999999999 0.0324759526419165 0
0.4312499999999998 0.06752404735808359 0
0.3942120044361335 0.07377725559308476 0
0.4328769262807162 0.03166769240662827 0
0.4690753852561431 0.02633353848132566 0
0.5057879955638662 0.07377725559308476 0
0.5469064750292868 0.02915486887185881 0
0.3530935249707131 0.02915486887185881 0
0.5414399778193317 0.06888627796542372 0
0.358560022180668 0.06888627796542379 0
0.5751163858158704 0.07643301737618757 0
0.3248836141841296 0.02356698262381259 0
0.3248836141841296 0.07643301737618752 0
0.5751163858158703 0.02356698262381252 0
2 11 0 18
182
183
184
185
186
187
188
189
190
191
192
193
194
195
196
197
198
199
0.3288675134594812 0.05000000000000008 0.05
0.5711324865405187 0.05000000000000008 0.05
0.3937499999999998 0.03247595264191638 0.05
0.4687499999999998 0.03247595264191645 0.05
0.4312499999999998 0.06752404735808359 0.05
0.5062499999999999 0.06752404735808351 0.05
0.3942120044361335 0.07377725559308476 0.05
0.4312499999999998 0.02782764593026996 0.05
0.4687499999999998 0.07054077602660351 0.05
0.5057879955638662 0.02622274440691526 0.05
0.3530935249707131 0.02915486887185881 0.05
0.5469064750292868 0.07084513112814125 0.05
0.5414399778193318 0.03111372203457635 0.05
0.358560022180668 0.06888627796542379 0.05
0.5751163858158704 0.07643301737618757 0.05
0.3248836141841296 0.02356698262381259 0.05
0.3248836141841296 0.07643301737618752 0.05
0.5751163858158703 0.02356698262381252 0.05
3 1 0 0
3 2 0 0
$EndNodes
$Elements
4 523 1 523
2 1 2 14
1 13 1 88 
2 1 14 88 
3 2 13 88 
4 17 2 88 
5 15 3 89 
6 3 16 89 
7 16 4 89 
8 4 18 89 
9 14 15 87 
10 14 87 88 
11 87 15 89 
12 18 17 87 
13 87 17 88 
14 18 87 89 
2 7 2 14
15 53 146 9 
16 9 146 54 
17 10 146 53 
18 57 146 10 
19 55 147 11 
20 11 147 56 
21 56 147 12 
22 12 147 58 
23 54 145 55 
24 54 146 145 
25 145 147 55 
26 58 145 57 
27 145 146 57 
28 58 147 145 
3 1 4 246
29 116 94 95 134 
30 110 119 126 144 
31 138 127 123 141 
32 124 101 107 142 
33 108 106 125 143 
34 123 120 109 127 
35 144 128 110 137 
36 127 88 123 141 
37 140 142 124 127 
38 125 143 139 128 
39 132 111 116 134 
40 122 109 120 127 
41 128 139 110 137 
42 109 122 124 127 
43 139 110 125 128 
44 132 116 117 134 
45 127 123 120 138 
46 110 119 144 137 
47 100 126 119 144 
48 123 138 141 99 
49 118 105 104 136 
50 115 103 102 133 
51 120 111 122 138 
52 139 113 119 137 
53 127 120 122 138 
54 119 110 139 137 
55 136 113 130 118 
56 111 115 133 132 
57 113 118 136 139 
58 133 115 111 140 
59 124 101 142 140 
60 143 106 125 139 
61 94 116 111 134 
62 116 95 117 134 
63 119 100 144 137 
64 138 123 120 99 
65 111 120 93 138 
66 98 119 113 137 
67 94 95 27 116 
68 134 94 95 34 
69 114 111 116 132 
70 134 132 111 129 
71 134 117 132 135 
72 114 116 117 132 
73 121 113 119 139 
74 140 111 138 122 
75 111 140 138 129 
76 137 139 113 131 
77 113 136 130 131 
78 112 113 118 130 
79 115 111 114 132 
80 132 133 111 129 
81 118 113 121 139 
82 115 122 111 140 
83 122 140 127 138 
84 119 110 121 139 
85 139 136 113 131 
86 111 133 140 129 
87 138 120 93 99 
88 100 119 98 137 
89 130 118 104 136 
90 115 103 133 132 
91 140 124 122 127 
92 125 121 110 139 
93 118 105 136 139 
94 133 102 115 140 
95 98 113 97 131 
96 112 104 103 130 
97 97 113 96 131 
98 93 94 111 129 
99 105 43 118 104 
100 50 104 105 136 
101 41 115 103 102 
102 48 102 103 133 
103 113 98 137 131 
104 129 111 93 138 
105 111 94 134 129 
106 91 126 100 144 
107 141 88 123 99 
108 97 30 113 98 
109 37 98 97 131 
110 104 42 112 103 
111 49 103 104 130 
112 93 94 129 33 
113 94 26 93 111 
114 36 97 96 131 
115 113 29 97 96 
116 107 89 124 142 
117 125 108 143 92 
118 134 95 117 135 
119 96 117 95 135 
120 130 117 113 135 
121 121 125 106 139 
122 101 124 122 140 
123 112 117 113 130 
124 131 130 113 135 
125 117 130 132 135 
126 113 30 119 98 
127 120 93 26 111 
128 138 93 129 33 
129 98 37 137 131 
130 106 105 121 139 
131 122 102 101 140 
132 112 114 117 130 
133 130 114 117 132 
134 27 94 116 111 
135 94 134 129 34 
136 104 112 118 130 
137 103 115 114 132 
138 117 95 28 96 
139 35 96 95 135 
140 117 28 95 116 
141 35 95 134 135 
142 105 118 121 139 
143 122 115 102 140 
144 40 122 102 101 
145 105 106 51 139 
146 121 44 105 106 
147 47 101 102 140 
148 109 17 123 87 
149 110 126 23 90 
150 144 128 20 90 
151 127 15 142 87 
152 18 109 124 87 
153 125 110 24 90 
154 128 143 21 90 
155 96 113 117 135 
156 113 96 131 135 
157 91 23 126 90 
158 88 123 17 87 
159 144 20 91 90 
160 15 89 142 87 
161 92 21 143 90 
162 89 18 124 87 
163 92 125 24 90 
164 106 108 52 143 
165 125 45 106 108 
166 101 107 142 46 
167 39 124 101 107 
168 44 118 121 105 
169 136 105 51 139 
170 122 115 40 102 
171 133 47 102 140 
172 114 130 103 132 
173 130 114 103 112 
174 43 112 118 104 
175 104 50 130 136 
176 133 103 48 132 
177 41 115 114 103 
178 29 113 117 96 
179 96 36 131 135 
180 114 112 42 103 
181 130 49 103 132 
182 13 88 141 99 
183 100 19 91 144 
184 89 124 16 107 
185 108 125 22 92 
186 88 13 123 99 
187 91 126 19 100 
188 16 89 107 142 
189 143 108 22 92 
190 13 2 123 99 
191 1 13 141 99 
192 126 5 19 100 
193 6 19 100 144 
194 124 4 16 107 
195 107 3 16 142 
196 125 22 8 108 
197 108 22 7 143 
198 1 13 88 141 
199 19 6 91 144 
200 124 16 4 89 
201 125 8 22 92 
202 2 13 123 88 
203 126 19 5 91 
204 89 16 3 142 
205 143 22 7 92 
206 127 14 15 87 
207 18 17 109 87 
208 110 23 24 90 
209 128 21 20 90 
210 121 125 45 106 
211 143 52 106 139 
212 46 142 101 140 
213 122 39 124 101 
214 88 14 1 141 
215 91 6 20 144 
216 124 4 18 89 
217 125 24 8 92 
218 27 95 28 116 
219 34 95 134 35 
220 32 1 141 99 
221 123 2 25 99 
222 126 31 5 100 
223 6 100 38 144 
224 124 39 4 107 
225 142 107 3 46 
226 45 125 8 108 
227 52 108 7 143 
228 123 17 2 88 
229 126 5 23 91 
230 89 3 15 142 
231 143 7 21 92 
232 26 25 93 120 
233 138 93 33 32 
234 119 30 31 98 
235 38 98 37 137 
236 49 48 103 132 
237 104 50 49 130 
238 33 94 129 34 
239 94 27 26 111 
240 112 43 42 104 
241 114 42 41 103 
242 97 30 29 113 
243 36 37 97 131 
244 28 29 117 96 
245 96 35 36 135 
246 47 46 101 140 
247 44 121 45 106 
248 122 40 39 101 
249 52 51 106 139 
250 51 50 105 136 
251 118 44 43 105 
252 115 41 40 102 
253 48 47 102 133 
254 88 127 14 141 
255 88 14 127 87 
256 90 110 144 128 
257 127 87 124 109 
258 125 90 128 110 
259 87 123 127 88 
260 87 127 123 109 
261 90 126 144 110 
262 90 144 126 91 
263 142 87 124 127 
264 124 87 142 89 
265 90 143 125 128 
266 90 125 143 92 
267 138 99 32 141 
268 32 99 138 93 
269 99 120 25 123 
270 99 25 120 93 
271 100 137 38 144 
272 38 137 100 98 
273 100 119 31 98 
274 100 31 119 126 
3 2 4 249
275 182 192 197 179 
276 174 165 199 181 
277 178 196 193 165 
278 162 156 198 180 
279 182 164 175 179 
280 183 193 196 165 
281 165 199 183 174 
282 90 92 182 164 
283 165 145 183 146 
284 160 161 190 173 
285 182 197 91 179 
286 198 195 182 180 
287 199 165 146 181 
288 178 147 196 165 
289 92 198 182 180 
290 164 177 182 175 
291 177 182 180 164 
292 180 182 92 164 
293 165 199 146 183 
294 192 182 175 179 
295 153 152 191 172 
296 188 158 157 170 
297 184 192 195 175 
298 175 195 182 192 
299 170 169 188 166 
300 170 195 166 188 
301 195 198 156 180 
302 157 160 190 169 
303 189 166 149 148 
304 175 184 192 150 
305 161 190 84 160 
306 160 190 83 157 
307 199 194 183 174 
308 176 178 193 165 
309 195 177 166 175 
310 187 190 161 173 
311 167 160 190 173 
312 166 184 195 175 
313 185 152 189 172 
314 149 68 189 148 
315 152 69 189 149 
316 169 184 188 166 
317 186 184 188 169 
318 195 170 166 177 
319 195 175 182 177 
320 184 195 188 166 
321 169 188 157 170 
322 186 189 184 171 
323 180 195 182 177 
324 186 190 185 167 
325 62 152 172 149 
326 158 188 195 170 
327 168 153 191 172 
328 191 152 185 172 
329 153 152 172 63 
330 150 166 184 148 
331 153 152 70 191 
332 161 160 77 173 
333 158 82 188 157 
334 75 157 158 170 
335 175 166 184 150 
336 154 91 197 179 
337 160 190 169 167 
338 155 199 146 181 
339 196 163 147 178 
340 161 85 187 159 
341 150 184 67 148 
342 150 60 166 148 
343 160 157 76 169 
344 151 153 168 64 
345 178 193 159 176 
346 199 194 174 151 
347 190 186 157 169 
348 166 61 149 148 
349 162 198 92 180 
350 185 167 168 172 
351 187 191 185 168 
352 168 194 153 151 
353 187 161 159 176 
354 166 171 189 149 
355 166 189 184 148 
356 194 191 187 168 
357 187 173 176 168 
358 180 156 195 177 
359 169 186 184 171 
360 171 184 169 166 
361 67 192 184 150 
362 193 187 85 159 
363 166 175 60 150 
364 168 174 151 64 
365 156 158 195 177 
366 186 169 167 171 
367 193 187 159 176 
368 194 168 174 151 
369 188 169 157 186 
370 187 190 84 161 
371 190 186 83 157 
372 191 194 153 168 
373 161 187 173 176 
374 170 195 158 177 
375 158 195 81 156 
376 194 71 153 151 
377 78 159 161 176 
378 158 156 74 177 
379 196 55 183 145 
380 164 90 23 179 
381 68 184 189 148 
382 152 189 69 185 
383 168 191 185 172 
384 91 23 90 179 
385 55 196 147 145 
386 172 171 62 149 
387 155 151 181 65 
388 163 196 86 159 
389 59 179 154 150 
390 197 66 154 150 
391 178 159 163 79 
392 199 155 72 151 
393 198 80 156 162 
394 156 162 73 180 
395 171 189 184 166 
396 153 71 194 191 
397 81 188 195 158 
398 170 158 74 177 
399 173 78 161 176 
400 172 168 153 63 
401 185 70 152 191 
402 167 77 160 173 
403 157 75 169 170 
404 82 186 188 157 
405 171 166 61 149 
406 169 76 160 167 
407 190 186 169 167 
408 19 91 197 154 
409 162 92 22 180 
410 146 199 155 53 
411 56 147 163 178 
412 193 86 196 159 
413 175 179 59 150 
414 181 151 174 65 
415 66 197 192 150 
416 155 146 53 181 
417 19 91 154 179 
418 147 163 196 56 
419 92 22 198 162 
420 154 5 19 179 
421 53 10 155 181 
422 197 6 19 154 
423 163 11 196 56 
424 162 22 8 180 
425 22 7 198 162 
426 199 9 155 53 
427 163 12 56 178 
428 91 6 19 197 
429 92 8 22 180 
430 9 199 146 53 
431 56 12 147 178 
432 91 19 5 179 
433 53 146 10 181 
434 147 196 11 56 
435 7 22 198 92 
436 182 20 21 90 
437 90 23 24 164 
438 165 58 145 57 
439 54 183 55 145 
440 79 178 159 176 
441 194 199 72 151 
442 195 198 80 156 
443 73 156 180 177 
444 91 20 6 197 
445 24 8 92 180 
446 9 199 54 146 
447 178 12 147 58 
448 190 83 84 160 
449 6 197 66 154 
450 181 10 155 65 
451 196 86 11 163 
452 179 154 5 59 
453 9 155 72 199 
454 80 198 7 162 
455 73 162 8 180 
456 163 12 178 79 
457 146 57 10 181 
458 5 23 91 179 
459 11 55 196 147 
460 198 21 7 92 
461 67 66 192 150 
462 59 60 175 150 
463 64 174 151 65 
464 193 85 86 159 
465 69 68 189 149 
466 187 84 85 161 
467 186 82 83 157 
468 75 76 157 169 
469 64 153 168 63 
470 67 184 68 148 
471 76 77 160 167 
472 70 152 69 185 
473 60 61 166 148 
474 171 61 62 149 
475 80 81 195 156 
476 72 71 194 151 
477 78 79 159 176 
478 156 73 74 177 
479 62 172 152 63 
480 74 75 158 170 
481 77 78 161 173 
482 188 81 82 158 
483 71 153 70 191 
484 174 176 193 165 
485 193 183 174 165 
486 174 183 193 194 
487 91 182 20 197 
488 20 182 91 90 
489 164 92 24 90 
490 164 24 92 180 
491 146 183 54 145 
492 146 54 183 199 
493 165 147 58 178 
494 165 58 147 145 
495 179 90 182 164 
496 179 182 90 91 
497 196 145 165 147 
498 165 145 196 183 
499 165 146 57 145 
500 57 146 165 181 
501 182 92 21 198 
502 21 92 182 90 
503 172 149 189 171 
504 189 149 172 152 
505 168 173 185 187 
506 168 185 173 167 
507 190 185 173 187 
508 190 173 185 167 
509 189 172 186 185 
510 189 186 172 171 
511 167 186 172 185 
512 167 172 186 171 
513 150 179 192 175 
514 150 197 179 154 
515 150 179 197 192 
516 181 151 199 174 
517 181 199 151 155 
518 159 196 178 163 
519 159 178 196 193 
520 174 168 187 176 
521 187 168 174 194 
522 187 193 174 176 
523 174 193 187 194 
$EndElements
