$MeshFormat
4.1 0 8
$EndMeshFormat
$PhysicalNames
2
1 2 "walls"
2 1 "fluid"
$EndPhysicalNames
$Entities
4 4 1 0
1 0 0 0 0 
2 0.5 0 0 0 
3 0.5 0.1 0 0 
4 0 0.1 0 0 
1 -9.999999997511999e-08 -1e-07 -1e-07 0.5000000999999999 1e-07 1e-07 1 2 2 1 -2 
2 0.4999999 -1.000000000028756e-07 -1e-07 0.5000000999999999 0.1000001 1e-07 1 3 2 2 -3 
3 -9.999999997511999e-08 0.0999999 -1e-07 0.5000000999999999 0.1000001 1e-07 1 4 2 3 -4 
4 -1e-07 -1.000000000028756e-07 -1e-07 1e-07 0.1000001 1e-07 1 5 2 4 -1 
1 -9.999999997511999e-08 -1.000000000028756e-07 -1e-07 0.5000000999999999 0.1000001 1e-07 1 1 4 1 2 3 4 
$EndEntities
$Nodes
9 185 1 185
0 1 0 1
1
0 0 0
0 2 0 1
2
0.5 0 0
0 3 0 1
3
0.5 0.1 0
0 4 0 1
4
0 0.1 0
1 1 0 24
5
6
7
8
9
10
11
12
13
14
15
16
17
18
19
20
21
22
23
24
25
26
27
28
0.02 0 0
0.04 0 0
0.06 0 0
0.08 0 0
0.1 0 0
0.12 0 0
0.14 0 0
0.16 0 0
0.18 0 0
0.2 0 0
0.22 0 0
0.24 0 0
0.26 0 0
0.28 0 0
0.3 0 0
0.32 0 0
0.34 0 0
0.36 0 0
0.38 0 0
0.4 0 0
0.42 0 0
0.44 0 0
0.46 0 0
0.48 0 0
1 2 0 4
29
30
31
32
0.5 0.02000000000000002 0
0.5 0.04000000000000007 0
0.5 0.06000000000000008 0
0.5 0.08000000000000007 0
1 3 0 24
33
34
35
36
37
38
39
40
41
42
43
44
45
46
47
48
49
50
51
52
53
54
55
56
0.48 0.1 0
0.46 0.1 0
0.44 0.1 0
0.42 0.1 0
0.4 0.1 0
0.38 0.1 0
0.36 0.1 0
0.34 0.1 0
0.32 0.1 0
0.3 0.1 0
0.28 0.1 0
0.26 0.1 0
0.24 0.1 0
0.22 0.1 0
0.2 0.1 0
0.18 0.1 0
0.16 0.1 0
0.14 0.1 0
0.12 0.1 0
0.09999999999999998 0.1 0
0.08000000000000002 0.1 0
0.06 0.1 0
0.03999999999999998 0.1 0
0.02000000000000002 0.1 0
1 4 0 4
57
58
59
60
0 0.07999999999999999 0
0 0.05999999999999994 0
0 0.03999999999999992 0
0 0.01999999999999993 0
2 1 0 125
61
62
63
64
65
66
67
68
69
70
71
72
73
74
75
76
77
78
79
80
81
82
83
84
85
86
87
88
89
90
91
92
93
94
95
96
97
98
99
100
101
102
103
104
105
106
107
108
109
110
111
112
113
114
115
116
117
118
119
120
121
122
123
124
125
126
127
128
129
130
131
132
133
134
135
136
137
138
139
140
141
142
143
144
145
146
147
148
149
150
151
152
153
154
155
156
157
158
159
160
161
162
163
164
165
166
167
168
169
170
171
172
173
174
175
176
177
178
179
180
181
182
183
184
185
0.2894677444029762 0.01668686121017624 0
0.41 0.01732050807568875 0
0.09 0.08267949192431126 0
0.1300000000000001 0.01732050807568893 0
0.1900000000000001 0.01732050807568887 0
0.35 0.01732050807568874 0
0.23 0.08267949192431125 0
0.4488665085741266 0.08362933879517434 0
0.05000000000000004 0.01732050807568897 0
0.31 0.08267949192431126 0
0.39 0.08300698438004017 0
0.2702661277985119 0.08316006158493197 0
0.1498099087153487 0.08350421021942017 0
0.25 0.01732050807568877 0
0.35 0.08267949192431123 0
0.09000000000000008 0.017320508075689 0
0.19 0.08267949192431125 0
0.4488665085741267 0.01637066120482572 0
0.05086744951865588 0.08355031994897973 0
0.4826794919243111 0.05000000000000013 0
0.01627551561799204 0.05096679054948582 0
0.33 0.08267949192431125 0
0.32 0.06535898384862251 0
0.3002661277985119 0.0655126328047322 0
0.3100443546330853 0.04839157638801433 0
0.3302735202373594 0.04892501078408855 0
0.2900369621942378 0.04926678544124673 0
0.320319106943586 0.03275264344941704 0
0.4830645590988834 0.06991525261438256 0
0.4670567603482517 0.06035511415539041 0
0.4672755452357613 0.03968994697290529 0
0.4480384757729337 0.05000000000000047 0
0.4830376893485306 0.03004708228905111 0
0.3400325619330189 0.06569844691356637 0
0.3600014126897221 0.06554406046714875 0
0.2696451629353175 0.01706125130866032 0
0.2596747326907077 0.03444415773409644 0
0.2399457887817847 0.03460820641516407 0
0.2500000000000001 0.05196152422706632 0
0.2300000000000001 0.05196152422706638 0
0.2199909647969642 0.03463554786200874 0
0.2100000000000001 0.05196152422706646 0
0.2699656779624936 0.050916742097983 0
0.1999984941328274 0.03464010476981622 0
0.1900000000000001 0.05196152422706651 0
0.179999749022138 0.03464086425445079 0
0.1700000000000002 0.05196152422706656 0
0.1599999581703564 0.03464099083522328 0
0.149733865229881 0.05148095034708672 0
0.139955637233373 0.03456091628535542 0
0.1296821226120305 0.05171442964662321 0
0.1199396266409007 0.03458648374363349 0
0.109936958208822 0.0515837606066397 0
0.1194042578731184 0.06787020645123265 0
0.09997943080828722 0.03456896681334928 0
0.08999637256252233 0.05177166011142498 0
0.07999596722846838 0.03459736390909958 0
0.06999966766412413 0.05178119290626069 0
0.05999927248209883 0.03460368555753059 0
0.04847831447932174 0.05182422482247714 0
0.03937613822422961 0.03297700193451838 0
0.0300334677903753 0.01697326733489492 0
0.149992599233955 0.0173071538786594 0
0.39 0.01732050807568875 0
0.4002661277985119 0.03448736719526779 0
0.3803104824315972 0.03413483833140513 0
0.4198845661724413 0.03426946663456754 0
0.4100938964283524 0.0512585350747988 0
0.3700517470719328 0.01723614510569336 0
0.3603264993824336 0.03373567407246902 0
0.4099999999999999 0.08286470538394283 0
0.4298110847623544 0.08345179758758925 0
0.370000235448287 0.08276492010335376 0
0.3802664024881801 0.06661325567065782 0
0.4297918457910947 0.01684658789771779 0
0.21 0.08267949192431126 0
0.06999999999999998 0.08267949192431129 0
0.03151243058656628 0.08093419854119425 0
0.06999959521348362 0.01731362178010019 0
0.1099865095748647 0.01729941111806012 0
0.2299894589297915 0.01731412840475842 0
0.21 0.01732050807568893 0
0.2500161642248853 0.08294696144051344 0
0.2903548370646826 0.08293884398320935 0
0.1699838357751147 0.08308321358666172 0
0.1699987177377416 0.01731825284067039 0
0.4296694897289546 0.05047727242116832 0
0.01616176004851577 0.06939221002399369 0
0.4683609464897396 0.08117548379099404 0
0.4685686129232083 0.01823377050509929 0
0.01876444505178609 0.03162434270463817 0
0.4384051165996407 0.03316571517248189 0
0.4384275620661103 0.06731062312416058 0
0.03144294923714311 0.06125869577815136 0
0.3407557301967883 0.03334068750277715 0
0.2793997666532335 0.03356959690703666 0
0.3102306030229389 0.01642017357170711 0
0.3306116286264149 0.01657031988253137 0
0.2805621396567868 0.06645115240386494 0
0.3901561515244402 0.05063632247585428 0
0.1099007096455198 0.0837518704337684 0
0.1397716924050631 0.06775579189978945 0
0.3701768247527288 0.05011126358747375 0
0.2601350182737797 0.06712615830500807 0
0.2400251970831109 0.06733269469994239 0
0.2 0.06732050807568891 0
0.2200041995138519 0.06732253917973111 0
0.18 0.06732050807568896 0
0.1598832170209013 0.06751769972595226 0
0.0800000000000001 0.0673205080756891 0
0.06075835479567285 0.06762969424121409 0
0.4000224060478694 0.06722726897940043 0
0.3 0.03268292243161873 0
0.3502610915320085 0.04955919055458727 0
0.1298144281065083 0.08381367983403511 0
0.1000000000000003 0.06731707756838137 0
0.4199999999999998 0.06733563281764261 0
0.4853589838486224 0.01464101615137756 0
0.01464101615137758 0.01464101615137751 0
0.01464101615137753 0.08535898384862249 0
0.4853589838486225 0.0853589838486225 0
0.04520469711193512 0.06862242776956665 0
0.4541798135582934 0.03103030287661153 0
0.4541798135582932 0.06896969712338849 0
0.03102497757852782 0.04581232296219067 0
$EndNodes
$Elements
5 368 1 368
1 1 1 25
1 1 5 
2 5 6 
3 6 7 
4 7 8 
5 8 9 
6 9 10 
7 10 11 
8 11 12 
9 12 13 
10 13 14 
11 14 15 
12 15 16 
13 16 17 
14 17 18 
15 18 19 
16 19 20 
17 20 21 
18 21 22 
19 22 23 
20 23 24 
21 24 25 
22 25 26 
23 26 27 
24 27 28 
25 28 2 
1 2 1 5
26 2 29 
27 29 30 
28 30 31 
29 31 32 
30 32 3 
1 3 1 25
31 3 33 
32 33 34 
33 34 35 
34 35 36 
35 36 37 
36 37 38 
37 38 39 
38 39 40 
39 40 41 
40 41 42 
41 42 43 
42 43 44 
43 44 45 
44 45 46 
45 46 47 
46 47 48 
47 48 49 
48 49 50 
49 50 51 
50 51 52 
51 52 53 
52 53 54 
53 54 55 
54 55 56 
55 56 4 
1 4 1 5
56 4 57 
57 57 58 
58 58 59 
59 59 60 
60 60 1 
2 1 2 308
61 20 158 157 
62 91 150 93 
63 121 151 122 
64 89 149 90 
65 148 154 138 
66 91 183 150 
67 149 184 90 
68 121 185 151 
69 157 158 88 
70 154 182 138 
71 88 158 155 
72 88 155 86 
73 127 152 147 
74 61 173 156 
75 160 163 126 
76 109 169 162 
77 72 164 159 
78 161 175 51 
79 6 122 5 
80 119 121 69 
81 76 140 115 
82 8 139 7 
83 69 122 6 
84 115 117 76 
85 115 140 112 
86 110 112 64 
87 112 140 64 
88 69 139 119 
89 30 93 29 
90 64 123 110 
91 12 123 11 
92 121 122 69 
93 11 123 64 
94 7 139 69 
95 108 146 106 
96 76 139 8 
97 104 106 65 
98 106 146 65 
99 117 139 76 
100 95 134 133 
101 80 93 30 
102 123 146 108 
103 15 142 14 
104 12 146 123 
105 16 141 15 
106 65 142 104 
107 97 98 74 
108 91 93 80 
109 14 142 65 
110 26 135 25 
111 141 142 15 
112 25 135 62 
113 70 83 82 
114 133 134 71 
115 39 133 38 
116 97 99 98 
117 19 61 18 
118 25 62 24 
119 43 144 42 
120 22 66 21 
121 70 82 41 
122 102 105 104 
123 35 132 68 
124 85 86 83 
125 42 70 41 
126 42 144 70 
127 72 144 43 
128 62 124 24 
129 96 97 74 
130 109 111 110 
131 125 126 124 
132 40 82 75 
133 49 145 48 
134 53 137 63 
135 86 94 83 
136 97 103 99 
137 9 76 8 
138 61 96 18 
139 22 129 66 
140 40 75 39 
141 62 125 124 
142 129 130 66 
143 11 64 10 
144 14 65 13 
145 36 132 35 
146 38 71 37 
147 38 133 71 
148 44 72 43 
149 46 67 45 
150 48 77 47 
151 55 79 54 
152 59 81 58 
153 70 144 84 
154 94 95 75 
155 83 94 82 
156 105 107 106 
157 126 129 124 
158 17 74 16 
159 74 141 16 
160 27 78 26 
161 35 68 34 
162 95 133 75 
163 90 91 80 
164 31 80 30 
165 37 131 36 
166 45 143 44 
167 82 94 75 
168 110 123 108 
169 126 130 129 
170 9 140 76 
171 18 96 17 
172 17 96 74 
173 50 73 49 
174 53 63 52 
175 98 141 74 
176 102 104 101 
177 107 109 108 
178 113 115 112 
179 7 69 6 
180 23 129 22 
181 48 145 77 
182 73 145 49 
183 70 84 83 
184 100 101 98 
185 104 142 101 
186 105 106 104 
187 107 108 106 
188 116 117 115 
189 116 118 117 
190 118 120 119 
191 24 124 23 
192 47 136 46 
193 84 87 85 
194 99 100 98 
195 111 113 112 
196 119 139 117 
197 120 121 119 
198 89 90 80 
199 100 102 101 
200 101 142 141 
201 109 110 108 
202 111 112 110 
203 113 116 115 
204 75 133 39 
205 44 143 72 
206 67 143 45 
207 77 136 47 
208 54 137 53 
209 111 114 113 
210 124 129 23 
211 78 135 26 
212 46 136 67 
213 79 137 54 
214 118 119 117 
215 64 140 10 
216 13 146 12 
217 31 89 80 
218 131 132 36 
219 71 131 37 
220 10 140 9 
221 41 82 40 
222 62 127 125 
223 84 85 83 
224 90 92 91 
225 32 89 31 
226 55 138 79 
227 62 135 127 
228 101 141 98 
229 65 146 13 
230 56 138 55 
231 85 88 86 
232 127 128 125 
233 147 152 92 
234 58 148 57 
235 34 149 33 
236 60 151 59 
237 28 150 27 
238 103 156 87 
239 87 159 103 
240 114 175 161 
241 162 169 73 
242 134 163 160 
243 159 164 103 
244 156 173 87 
245 135 152 127 
246 97 156 103 
247 52 161 51 
248 61 156 96 
249 20 157 19 
250 72 159 144 
251 21 158 20 
252 125 160 126 
253 109 162 111 
254 84 159 87 
255 50 175 73 
256 85 173 88 
257 86 174 94 
258 134 172 71 
259 114 176 113 
260 127 147 128 
261 81 148 58 
262 68 149 34 
263 27 150 78 
264 59 151 81 
265 78 152 135 
266 132 153 68 
267 153 177 147 
268 1 179 60 
269 2 178 28 
270 29 178 2 
271 3 181 32 
272 33 181 3 
273 5 179 1 
274 4 180 56 
275 57 180 4 
276 132 177 153 
277 88 173 157 
278 155 174 86 
279 73 175 162 
280 160 172 134 
281 161 176 114 
282 66 158 21 
283 130 155 66 
284 96 156 97 
285 155 158 66 
286 19 157 61 
287 144 159 84 
288 63 161 52 
289 128 160 125 
290 111 162 114 
291 138 182 79 
292 128 177 172 
293 163 174 130 
294 170 176 63 
295 95 163 134 
296 67 167 165 
297 164 165 99 
298 165 167 100 
299 126 163 130 
300 67 165 143 
301 143 165 164 
302 103 164 99 
303 143 164 72 
304 102 166 105 
305 73 169 145 
306 166 168 105 
307 170 171 118 
308 105 168 107 
309 102 167 166 
310 166 167 136 
311 100 167 102 
312 77 168 166 
313 77 166 136 
314 107 169 109 
315 99 165 100 
316 116 170 118 
317 137 171 170 
318 145 168 77 
319 136 167 67 
320 118 171 120 
321 137 170 63 
322 145 169 168 
323 168 169 107 
324 79 171 137 
325 95 174 163 
326 116 176 170 
327 87 173 85 
328 94 174 95 
329 71 172 131 
330 51 175 50 
331 113 176 116 
332 172 177 131 
333 131 177 132 
334 92 153 147 
335 81 154 148 
336 147 177 128 
337 120 185 121 
338 92 183 91 
339 90 184 92 
340 150 183 78 
341 68 184 149 
342 151 185 81 
343 130 174 155 
344 157 173 61 
345 128 172 160 
346 63 176 161 
347 162 175 114 
348 154 185 120 
349 152 183 92 
350 92 184 153 
351 60 179 151 
352 148 180 57 
353 149 181 33 
354 28 178 150 
355 122 179 5 
356 93 178 29 
357 32 181 89 
358 56 180 138 
359 89 181 149 
360 138 180 148 
361 150 178 93 
362 151 179 122 
363 120 182 154 
364 171 182 120 
365 78 183 152 
366 153 184 68 
367 81 185 154 
368 79 182 171 
$EndElements
