$MeshFormat
2.2 0 8
$EndMeshFormat
$PhysicalNames
4
2 2 "inlet"
2 3 "outlet"
2 4 "walls"
3 1 "fluid"
$EndPhysicalNames
$Nodes
369
1 -0.5 -0.05 0.05
2 -0.5 -0.05 -0.05
3 -0.5 0.05 0.05
4 -0.5 0.05 -0.05
5 0.5 -0.05 0.05
6 0.5 -0.05 -0.05
7 0.5 0.05 0.05
8 0.5 0.05 -0.05
9 -0.5 -0.05 -0.01666666666666661
10 -0.5 -0.05 0.01666666666666675
11 -0.5 -0.01666666666666661 0.05
12 -0.5 0.01666666666666675 0.05
13 -0.5 0.05 -0.01666666666666661
14 -0.5 0.05 0.01666666666666675
15 -0.5 -0.01666666666666661 -0.05
16 -0.5 0.01666666666666675 -0.05
17 0.5 -0.05 -0.01666666666666661
18 0.5 -0.05 0.01666666666666675
19 0.5 -0.01666666666666661 0.05
20 0.5 0.01666666666666675 0.05
21 0.5 0.05 -0.01666666666666661
22 0.5 0.05 0.01666666666666675
23 0.5 -0.01666666666666661 -0.05
24 0.5 0.01666666666666675 -0.05
25 -0.46 -0.05 -0.05
26 -0.42 -0.05 -0.05
27 -0.38 -0.05 -0.05
28 -0.34 -0.05 -0.05
29 -0.3 -0.05 -0.05
30 -0.26 -0.05 -0.05
31 -0.22 -0.05 -0.05
32 -0.18 -0.05 -0.05
33 -0.14 -0.05 -0.05
34 -0.09999999999999998 -0.05 -0.05
35 -0.06 -0.05 -0.05
36 -0.02000000000000002 -0.05 -0.05
37 0.02000000000000002 -0.05 -0.05
38 0.06000000000000005 -0.05 -0.05
39 0.09999999999999998 -0.05 -0.05
40 0.14 -0.05 -0.05
41 0.18 -0.05 -0.05
42 0.22 -0.05 -0.05
43 0.26 -0.05 -0.05
44 0.3 -0.05 -0.05
45 0.34 -0.05 -0.05
46 0.38 -0.05 -0.05
47 0.42 -0.05 -0.05
48 0.46 -0.05 -0.05
49 -0.46 -0.05 0.05
50 -0.42 -0.05 0.05
51 -0.38 -0.05 0.05
52 -0.34 -0.05 0.05
53 -0.3 -0.05 0.05
54 -0.26 -0.05 0.05
55 -0.22 -0.05 0.05
56 -0.18 -0.05 0.05
57 -0.14 -0.05 0.05
58 -0.09999999999999998 -0.05 0.05
59 -0.06 -0.05 0.05
60 -0.02000000000000002 -0.05 0.05
61 0.02000000000000002 -0.05 0.05
62 0.06000000000000005 -0.05 0.05
63 0.09999999999999998 -0.05 0.05
64 0.14 -0.05 0.05
65 0.18 -0.05 0.05
66 0.22 -0.05 0.05
67 0.26 -0.05 0.05
68 0.3 -0.05 0.05
69 0.34 -0.05 0.05
70 0.38 -0.05 0.05
71 0.42 -0.05 0.05
72 0.46 -0.05 0.05
73 -0.46 0.05 -0.05
74 -0.42 0.05 -0.05
75 -0.38 0.05 -0.05
76 -0.34 0.05 -0.05
77 -0.3 0.05 -0.05
78 -0.26 0.05 -0.05
79 -0.22 0.05 -0.05
80 -0.18 0.05 -0.05
81 -0.14 0.05 -0.05
82 -0.09999999999999998 0.05 -0.05
83 -0.06 0.05 -0.05
84 -0.02000000000000002 0.05 -0.05
85 0.02000000000000002 0.05 -0.05
86 0.06000000000000005 0.05 -0.05
87 0.09999999999999998 0.05 -0.05
88 0.14 0.05 -0.05
89 0.18 0.05 -0.05
90 0.22 0.05 -0.05
91 0.26 0.05 -0.05
92 0.3 0.05 -0.05
93 0.34 0.05 -0.05
94 0.38 0.05 -0.05
95 0.42 0.05 -0.05
96 0.46 0.05 -0.05
97 -0.46 0.05 0.05
98 -0.42 0.05 0.05
99 -0.38 0.05 0.05
100 -0.34 0.05 0.05
101 -0.3 0.05 0.05
102 -0.26 0.05 0.05
103 -0.22 0.05 0.05
104 -0.18 0.05 0.05
105 -0.14 0.05 0.05
106 -0.09999999999999998 0.05 0.05
107 -0.06 0.05 0.05
108 -0.02000000000000002 0.05 0.05
109 0.02000000000000002 0.05 0.05
110 0.06000000000000005 0.05 0.05
111 0.09999999999999998 0.05 0.05
112 0.14 0.05 0.05
113 0.18 0.05 0.05
114 0.22 0.05 0.05
115 0.26 0.05 0.05
116 0.3 0.05 0.05
117 0.34 0.05 0.05
118 0.38 0.05 0.05
119 0.42 0.05 0.05
120 0.46 0.05 0.05
121 -0.5 0.02022016650228013 4.85722573273506e-17
122 -0.5 -0.02026766338057244 4.85722573273506e-17
123 -0.5 -7.916146382014322e-06 -0.02525600817161047
124 -0.5 -7.916146382014322e-06 0.02525600817161049
125 -0.5 -0.02576802451483142 -0.02576802451483142
126 -0.5 -0.02576802451483141 0.02576802451483144
127 -0.5 0.0257680245148315 0.0257680245148315
128 -0.5 0.0257680245148315 -0.02576802451483146
129 0.5 0.02022016650228015 4.85722573273506e-17
130 0.5 -0.02026766338057244 4.85722573273506e-17
131 0.5 -7.916146382021261e-06 -0.02525600817161047
132 0.5 -7.916146382014322e-06 0.0252560081716105
133 0.5 -0.02576802451483143 -0.02576802451483143
134 0.5 -0.0257680245148314 0.02576802451483144
135 0.5 0.02576802451483148 0.02576802451483148
136 0.5 0.02576802451483151 -0.02576802451483145
137 -0.4712502951905668 -0.05 -0.0004372014456886786
138 0.4712502951905667 -0.05 0.0004372014456889492
139 0.0800000000000004 -0.05 -0.01535898384862253
140 0.1985877925892732 -0.05 -0.01290691206464586
141 0.3214122074107267 -0.05 -0.01290691206464597
142 -0.2442693502678699 -0.05 0.01215052771984756
143 -0.1199999999999999 -0.05 0.01535898384862248
144 0.3929220105240185 -0.05 -0.01690414400134828
145 -0.3929220105240186 -0.05 0.01690414400134838
146 -0.03999999999999987 -0.05 0.01535898384862248
147 -0.32 -0.05 0.01535898384862248
148 0.03999999999999981 -0.05 0.01535898384862248
149 0.3591906025621062 -0.05 0.0129384964434348
150 0.1664312987648788 -0.05 0.01707534529732942
151 -0.1585877925892731 -0.05 -0.01290691206464586
152 -0.36 -0.05 -0.01535898384862248
153 0.2355289058163123 -0.05 0.01250082368898713
154 -0.2810316911182915 -0.05 -0.01434177930350139
155 -0.08000000000000024 -0.05 -0.01535898384862248
156 -5.551115123125783e-17 -0.05 -0.01535898384862245
157 0.1200000000000001 -0.05 0.01535898384862254
158 0.2838323664431608 -0.05 0.0120925150947533
159 -0.1961388129974364 -0.05 0.01204247281344784
160 0.4375320631441112 -0.05 -0.01678384785671196
161 -0.4375320631441114 -0.05 0.01678384785671275
162 -0.4439240084660258 -0.05 -0.02184687484101985
163 0.4439240084660254 -0.05 0.02184687484101998
164 0.2600000000000001 -0.05 -0.01426048498133921
165 0.08000000000000007 -0.05 0.02307179676972451
166 0.2000782853100663 -0.05 0.02249004560882104
167 0.1200000000000001 -0.05 -0.02407610623400769
168 0.3208870352831987 -0.05 0.02242481989470843
169 0.359074974356693 -0.05 -0.02251908885180504
170 -0.2200000000000001 -0.05 -0.01426048498133923
171 -0.1197175585178546 -0.05 -0.02258138241292917
172 0.1541698485590253 -0.05 -0.01742478152545027
173 -0.3585844021048037 -0.05 0.02338082880026968
174 0.4055947807827101 -0.05 0.01684956323773242
175 0.04000000000000004 -0.05 -0.0230717967697245
176 -0.04000000000000004 -0.05 -0.02307179676972449
177 -0.1589453211173419 -0.05 0.02289890891948489
178 -0.07999999999999996 -0.05 0.02307179676972451
179 -0.4057296803556926 -0.05 -0.01725297780526354
180 -0.3202063382236583 -0.05 -0.02286835586070027
181 -0.2810602082772323 -0.05 0.02263354645299373
182 -5.551115123125783e-17 -0.05 0.02307179676972451
183 0.2318305800331499 -0.05 -0.02174673207747492
184 -0.1918750339093249 -0.05 -0.02178013957569207
185 -0.2481269811761615 -0.05 -0.02187684601391781
186 0.2881228654668115 -0.05 -0.02177649217909614
187 0.4737564716669356 -0.05 -0.02660266261553793
188 -0.4747616924614763 -0.05 -0.02704736428710489
189 0.4747616924614759 -0.05 0.02704736428710512
190 -0.4737564716669356 -0.05 0.02660266261553816
191 -0.4712502951905668 0.05 0.000437201445688748
192 0.4712502951905667 0.05 -0.0004372014456888521
193 0.0800000000000004 0.05 -0.01535898384862253
194 0.1985877925892732 0.05 -0.01290691206464586
195 0.3199999999999992 0.05 -0.01535898384862253
196 0.3929220105240183 0.05 0.01690414400134853
197 -0.36 0.05 0.01535898384862248
198 -0.24 0.05 0.01535898384862248
199 -0.1199999999999999 0.05 0.01535898384862248
200 -0.03999999999999987 0.05 0.01535898384862248
201 0.03999999999999981 0.05 0.01535898384862248
202 0.1664312987648788 0.05 0.01707534529732942
203 -0.1585877925892731 0.05 -0.01290691206464586
204 0.2355289058163123 0.05 0.01250082368898713
205 -0.3929220105240186 0.05 -0.01690414400134838
206 -0.321412207410727 0.05 -0.01290691206464587
207 -0.08000000000000024 0.05 -0.01535898384862248
208 -5.551115123125783e-17 0.05 -0.01535898384862245
209 0.3599999999999988 0.05 -0.0153589838486212
210 0.1200000000000001 0.05 0.01535898384862254
211 0.2836306225273426 0.05 0.01174221912561379
212 -0.1955289058163121 0.05 0.0125008236889871
213 -0.284471094183688 0.05 0.01250082368898708
214 -0.4375320631441114 0.05 -0.01678384785671272
215 0.4375320631441114 0.05 0.01678384785671208
216 -0.4439240084660258 0.05 0.02184687484101988
217 0.4439240084660254 0.05 -0.02184687484101996
218 0.2600000000000001 0.05 -0.01426048498133921
219 0.08000000000000007 0.05 0.02307179676972451
220 0.2000782853100663 0.05 0.02249004560882104
221 0.1200000000000001 0.05 -0.02407610623400769
222 0.3251941217294448 0.05 0.01789500683410709
223 -0.2211286907882447 0.05 -0.01149340591869911
224 -0.3588668435869491 0.05 -0.02289041444347436
225 -0.1197175585178546 0.05 -0.02258138241292917
226 0.1541698485590253 0.05 -0.01742478152545027
227 0.4057296803556922 0.05 -0.01725297780526343
228 -0.2547006234341692 0.05 -0.01653870410548451
229 0.04000000000000004 0.05 -0.0230717967697245
230 -0.04000000000000004 0.05 -0.02307179676972449
231 -0.158823339681117 0.05 0.02299057909459275
232 -0.07999999999999996 0.05 0.02307179676972451
233 -0.4057296803556926 0.05 0.01725297780526354
234 -0.321176660318883 0.05 0.02299057909459273
235 -5.551115123125783e-17 0.05 0.02307179676972451
236 0.359730876036209 0.05 0.02288588990384442
237 0.2318305800331499 0.05 -0.02174673207747492
238 -0.1926321653258576 0.05 -0.02173652904216672
239 -0.2877831680305654 0.05 -0.02191278303404539
240 0.2880052305304743 0.05 -0.02198074638850693
241 0.4747616924614758 0.05 -0.02704736428710506
242 -0.4737564716669356 0.05 -0.02660266261553812
243 0.4737564716669356 0.05 0.02660266261553799
244 -0.4747616924614764 0.05 0.027047364287105
245 0.4712502951905666 0.0004372014456888729 -0.05
246 -0.4712502951905668 0.0004372014456887549 -0.05
247 0.07858779258927295 -0.0129069120646459 -0.05
248 0.2014122074107267 -0.01290691206464588 -0.05
249 0.3199999999999992 -0.01535898384862253 -0.05
250 -0.1199999999999999 0.01535898384862248 -0.05
251 0.3929220105240185 -0.01690414400134828 -0.05
252 -0.3929220105240186 -0.01690414400134836 -0.05
253 -0.32 0.01535898384862248 -0.05
254 -0.2466666666666667 0.01666666666666664 -0.05
255 -0.03999999999999987 0.01535898384862248 -0.05
256 0.03989706943070492 0.01423666229734059 -0.05
257 0.2399999999999998 0.01535898384862248 -0.05
258 -0.16 -0.01535898384862248 -0.05
259 0.3600000000000002 0.01535898384862248 -0.05
260 0.1644710941836877 0.01250082368898708 -0.05
261 -0.28 -0.01535898384862248 -0.05
262 -3.827667389211253e-06 -0.01473692154138878 -0.05
263 -0.08000000000000024 -0.01535898384862248 -0.05
264 0.1161676335568389 0.01209251509475341 -0.05
265 0.2866666666666663 0.01666666666666661 -0.05
266 -0.2000000000000001 0.01535898384862235 -0.05
267 -0.3654870017540031 0.01640913997454568 -0.05
268 -0.4375320631441114 -0.01678384785671272 -0.05
269 0.4375320631441114 -0.01678384785671215 -0.05
270 -0.4439240084660258 0.02184687484101987 -0.05
271 0.4439240084660254 0.02184687484101992 -0.05
272 0.3213333333333331 0.0233333333333333 -0.05
273 0.1399999999999996 -0.01426048498133918 -0.05
274 0.07893049911536332 0.02268445306548962 -0.05
275 0.2011766603188829 0.02299057909459275 -0.05
276 0.3585844021048037 -0.02338082880026966 -0.05
277 -0.3550486919378597 -0.01838450311384646 -0.05
278 -0.2344444444444445 -0.01728564408389531 -0.05
279 -0.1200000000000001 -0.0230717967697245 -0.05
280 0.03969620687051778 -0.02268143426173882 -0.05
281 0.2402824414821455 -0.02358569187721235 -0.05
282 0.4057296803556925 0.01725297780526365 -0.05
283 -0.04000076553347787 -0.02294738430827775 -0.05
284 -0.16 0.02307179676972446 -0.05
285 -0.07999999999999996 0.02307179676972451 -0.05
286 -0.319009738387572 -0.0236769006227693 -0.05
287 -0.4066441806480265 0.01742800382625075 -0.05
288 -0.2813333333333334 0.02333333333333333 -0.05
289 -2.135164733685357e-05 0.02297174492091486 -0.05
290 0.2744915180248017 -0.01781983753509097 -0.05
291 -0.1988888888888889 -0.02345712881677909 -0.05
292 0.16816941996685 -0.02174673207747512 -0.05
293 0.1118771345331878 -0.02177649217909561 -0.05
294 0.4737564716669356 -0.02660266261553798 -0.05
295 0.4747616924614759 0.02704736428710508 -0.05
296 -0.4737564716669356 -0.02660266261553811 -0.05
297 -0.4747616924614764 0.02704736428710498 -0.05
298 0.4712502951905666 0.0004372014456888729 0.05
299 -0.4712502951905668 0.0004372014456887549 0.05
300 0.07858779258927295 -0.0129069120646459 0.05
301 0.2014122074107267 -0.01290691206464588 0.05
302 0.3199999999999992 -0.01535898384862253 0.05
303 -0.2466666666666667 0.01666666666666662 0.05
304 -0.1199999999999999 0.01535898384862248 0.05
305 0.3929220105240185 -0.01690414400134828 0.05
306 -0.36 0.01535898384862248 0.05
307 -0.03999999999999987 0.01535898384862248 0.05
308 0.03989706943070492 0.01423666229734059 0.05
309 0.2399999999999998 0.01535898384862248 0.05
310 -0.16 -0.01535898384862248 0.05
311 0.3600000000000002 0.01535898384862248 0.05
312 0.1644710941836877 0.01250082368898708 0.05
313 -0.3929220105240186 -0.01690414400134838 0.05
314 -0.3266666666666667 -0.01666666666666668 0.05
315 -3.827667389211253e-06 -0.01473692154138878 0.05
316 -0.08000000000000024 -0.01535898384862248 0.05
317 0.1161676335568389 0.01209251509475341 0.05
318 0.2866666666666663 0.01666666666666661 0.05
319 -0.2000000000000001 0.01535898384862235 0.05
320 -0.28 -0.01535898384862255 0.05
321 -0.4375320631441114 -0.01678384785671272 0.05
322 0.4375320631441114 -0.01678384785671215 0.05
323 -0.4439240084660258 0.02184687484101987 0.05
324 0.4439240084660254 0.02184687484101992 0.05
325 0.3213333333333331 0.0233333333333333 0.05
326 0.1399999999999996 -0.01426048498133918 0.05
327 0.07893049911536332 0.02268445306548962 0.05
328 0.2011766603188829 0.02299057909459275 0.05
329 0.3585844021048037 -0.02338082880026966 0.05
330 -0.2813333333333333 0.02433764279761645 0.05
331 -0.359917735438137 -0.02364236536387852 0.05
332 -0.2344444444444445 -0.01728564408389533 0.05
333 -0.1200000000000001 -0.0230717967697245 0.05
334 0.2402824414821455 -0.02358569187721235 0.05
335 0.4057296803556925 0.01725297780526365 0.05
336 0.03969620687051778 -0.02268143426173882 0.05
337 -0.04000076553347787 -0.02294738430827775 0.05
338 -0.16 0.02307179676972446 0.05
339 -0.07999999999999996 0.02307179676972451 0.05
340 -0.4057296803556926 0.01725297780526354 0.05
341 -0.3161904761904762 0.01864098225464779 0.05
342 -2.135164733685357e-05 0.02297174492091486 0.05
343 0.2744915180248017 -0.01781983753509097 0.05
344 -0.1988888888888889 -0.0234571288167791 0.05
345 0.16816941996685 -0.02174673207747512 0.05
346 0.1118771345331878 -0.02177649217909561 0.05
347 0.4737564716669356 -0.02660266261553798 0.05
348 0.4747616924614759 0.02704736428710508 0.05
349 -0.4737564716669356 -0.02660266261553811 0.05
350 -0.4747616924614764 0.02704736428710498 0.05
351 0.4496803957072667 0.001050231470984167 -0.001050231470984132
352 -0.4496803957072666 0.001050231470983737 0.00105023147098376
353 0.1506227736393353 -1.734723475976807e-18 1.387778780781446e-17
354 0.2491865761760188 0 0
355 -0.2307861880657057 -0.0004767841097015821 0.0001841599574188609
356 -0.1792306632512981 0.003432007384742128 -0.003361440512816873
357 0.303856481344812 0.0001113282623418938 0.0001113282623418921
358 0.3528452557080811 -0.004291536348365047 -0.004769792379052715
359 -0.3967802085247448 0 0
360 -0.3466129615692082 -0.004325444102799655 0.005146983209258042
361 -0.2958872459365136 0.002058873712998774 -0.003766635495991651
362 0.09906763223269956 -0.002947532423901033 0.003519925218007938
363 0.04929957464110692 -0.004274089193650497 -0.004111046870455867
364 -0.1291665433382579 -0.003856406460550962 -0.004099830530168914
365 0.2016036016746882 0.005043862168680368 0.005326869193691963
366 -0.08042382199096983 0.003856406460551021 0.003856406460551028
367 -0.03089717318471394 -0.00394423256916571 -0.003856406460551041
368 0.4007517974523191 0.003478933100558607 0.003070449552837848
369 0.009297080168757216 0.009120047897608327 0.009075776204138245
$EndNodes
$Elements
1659
1 2 2 2 1 10 1 126
2 2 2 2 1 1 11 126
3 2 2 2 1 2 9 125
4 2 2 2 1 15 2 125
5 2 2 2 1 12 3 127
6 2 2 2 1 3 14 127
7 2 2 2 1 13 4 128
8 2 2 2 1 4 16 128
9 2 2 2 1 9 10 122
10 2 2 2 1 9 122 125
11 2 2 2 1 122 10 126
12 2 2 2 1 11 12 124
13 2 2 2 1 11 124 126
14 2 2 2 1 124 12 127
15 2 2 2 1 14 13 121
16 2 2 2 1 121 13 128
17 2 2 2 1 14 121 127
18 2 2 2 1 16 15 123
19 2 2 2 1 123 15 125
20 2 2 2 1 16 123 128
21 2 2 2 1 122 121 123
22 2 2 2 1 121 122 124
23 2 2 2 1 123 121 128
24 2 2 2 1 121 124 127
25 2 2 2 1 122 123 125
26 2 2 2 1 124 122 126
27 2 2 3 2 18 134 5
28 2 2 3 2 5 134 19
29 2 2 3 2 6 133 17
30 2 2 3 2 23 133 6
31 2 2 3 2 20 135 7
32 2 2 3 2 7 135 22
33 2 2 3 2 21 136 8
34 2 2 3 2 8 136 24
35 2 2 3 2 17 130 18
36 2 2 3 2 17 133 130
37 2 2 3 2 130 134 18
38 2 2 3 2 19 132 20
39 2 2 3 2 19 134 132
40 2 2 3 2 132 135 20
41 2 2 3 2 22 129 21
42 2 2 3 2 129 136 21
43 2 2 3 2 22 135 129
44 2 2 3 2 24 131 23
45 2 2 3 2 131 133 23
46 2 2 3 2 24 136 131
47 2 2 3 2 130 131 129
48 2 2 3 2 129 132 130
49 2 2 3 2 131 136 129
50 2 2 3 2 129 135 132
51 2 2 3 2 130 133 131
52 2 2 3 2 132 134 130
53 2 2 4 3 1 10 190
54 2 2 4 3 49 1 190
55 2 2 4 3 9 2 188
56 2 2 4 3 2 25 188
57 2 2 4 3 18 5 189
58 2 2 4 3 5 72 189
59 2 2 4 3 6 17 187
60 2 2 4 3 48 6 187
61 2 2 4 3 10 9 137
62 2 2 4 3 137 9 188
63 2 2 4 3 10 137 190
64 2 2 4 3 17 18 138
65 2 2 4 3 17 138 187
66 2 2 4 3 138 18 189
67 2 2 4 3 25 26 162
68 2 2 4 3 25 162 188
69 2 2 4 3 26 27 179
70 2 2 4 3 162 26 179
71 2 2 4 3 27 28 152
72 2 2 4 3 27 152 179
73 2 2 4 3 28 29 180
74 2 2 4 3 152 28 180
75 2 2 4 3 29 30 154
76 2 2 4 3 29 154 180
77 2 2 4 3 30 31 185
78 2 2 4 3 154 30 185
79 2 2 4 3 31 32 184
80 2 2 4 3 170 31 184
81 2 2 4 3 31 170 185
82 2 2 4 3 32 33 151
83 2 2 4 3 32 151 184
84 2 2 4 3 33 34 171
85 2 2 4 3 151 33 171
86 2 2 4 3 34 35 155
87 2 2 4 3 34 155 171
88 2 2 4 3 35 36 176
89 2 2 4 3 155 35 176
90 2 2 4 3 36 37 156
91 2 2 4 3 36 156 176
92 2 2 4 3 37 38 175
93 2 2 4 3 156 37 175
94 2 2 4 3 38 39 139
95 2 2 4 3 38 139 175
96 2 2 4 3 39 40 167
97 2 2 4 3 139 39 167
98 2 2 4 3 40 41 172
99 2 2 4 3 167 40 172
100 2 2 4 3 41 42 140
101 2 2 4 3 41 140 172
102 2 2 4 3 42 43 183
103 2 2 4 3 140 42 183
104 2 2 4 3 43 44 186
105 2 2 4 3 43 164 183
106 2 2 4 3 164 43 186
107 2 2 4 3 44 45 141
108 2 2 4 3 44 141 186
109 2 2 4 3 45 46 169
110 2 2 4 3 141 45 169
111 2 2 4 3 46 47 144
112 2 2 4 3 46 144 169
113 2 2 4 3 47 48 160
114 2 2 4 3 144 47 160
115 2 2 4 3 160 48 187
116 2 2 4 3 50 49 161
117 2 2 4 3 161 49 190
118 2 2 4 3 51 50 145
119 2 2 4 3 145 50 161
120 2 2 4 3 52 51 173
121 2 2 4 3 51 145 173
122 2 2 4 3 53 52 147
123 2 2 4 3 147 52 173
124 2 2 4 3 54 53 181
125 2 2 4 3 53 147 181
126 2 2 4 3 55 54 142
127 2 2 4 3 142 54 181
128 2 2 4 3 56 55 159
129 2 2 4 3 55 142 159
130 2 2 4 3 57 56 177
131 2 2 4 3 56 159 177
132 2 2 4 3 58 57 143
133 2 2 4 3 143 57 177
134 2 2 4 3 59 58 178
135 2 2 4 3 58 143 178
136 2 2 4 3 60 59 146
137 2 2 4 3 146 59 178
138 2 2 4 3 61 60 182
139 2 2 4 3 60 146 182
140 2 2 4 3 62 61 148
141 2 2 4 3 148 61 182
142 2 2 4 3 63 62 165
143 2 2 4 3 62 148 165
144 2 2 4 3 64 63 157
145 2 2 4 3 157 63 165
146 2 2 4 3 65 64 150
147 2 2 4 3 150 64 157
148 2 2 4 3 66 65 166
149 2 2 4 3 65 150 166
150 2 2 4 3 67 66 153
151 2 2 4 3 153 66 166
152 2 2 4 3 68 67 158
153 2 2 4 3 67 153 158
154 2 2 4 3 69 68 168
155 2 2 4 3 68 158 168
156 2 2 4 3 70 69 149
157 2 2 4 3 149 69 168
158 2 2 4 3 71 70 174
159 2 2 4 3 70 149 174
160 2 2 4 3 72 71 163
161 2 2 4 3 163 71 174
162 2 2 4 3 72 163 189
163 2 2 4 3 161 137 162
164 2 2 4 3 137 161 190
165 2 2 4 3 162 137 188
166 2 2 4 3 160 138 163
167 2 2 4 3 138 160 187
168 2 2 4 3 163 138 189
169 2 2 4 3 148 139 165
170 2 2 4 3 139 148 175
171 2 2 4 3 139 157 165
172 2 2 4 3 157 139 167
173 2 2 4 3 150 140 166
174 2 2 4 3 140 150 172
175 2 2 4 3 140 153 166
176 2 2 4 3 153 140 183
177 2 2 4 3 141 149 168
178 2 2 4 3 149 141 169
179 2 2 4 3 158 141 168
180 2 2 4 3 141 158 186
181 2 2 4 3 154 142 181
182 2 2 4 3 142 154 185
183 2 2 4 3 159 142 170
184 2 2 4 3 170 142 185
185 2 2 4 3 143 151 171
186 2 2 4 3 151 143 177
187 2 2 4 3 155 143 171
188 2 2 4 3 143 155 178
189 2 2 4 3 144 149 169
190 2 2 4 3 149 144 174
191 2 2 4 3 144 160 174
192 2 2 4 3 145 152 173
193 2 2 4 3 152 145 179
194 2 2 4 3 145 161 179
195 2 2 4 3 146 155 176
196 2 2 4 3 155 146 178
197 2 2 4 3 156 146 176
198 2 2 4 3 146 156 182
199 2 2 4 3 152 147 173
200 2 2 4 3 147 152 180
201 2 2 4 3 154 147 180
202 2 2 4 3 147 154 181
203 2 2 4 3 148 156 175
204 2 2 4 3 156 148 182
205 2 2 4 3 150 157 172
206 2 2 4 3 159 151 177
207 2 2 4 3 151 159 184
208 2 2 4 3 158 153 164
209 2 2 4 3 164 153 183
210 2 2 4 3 157 167 172
211 2 2 4 3 158 164 186
212 2 2 4 3 159 170 184
213 2 2 4 3 160 163 174
214 2 2 4 3 161 162 179
215 2 2 4 4 3 244 14
216 2 2 4 4 97 244 3
217 2 2 4 4 13 242 4
218 2 2 4 4 4 242 73
219 2 2 4 4 22 243 7
220 2 2 4 4 7 243 120
221 2 2 4 4 8 241 21
222 2 2 4 4 96 241 8
223 2 2 4 4 14 191 13
224 2 2 4 4 191 242 13
225 2 2 4 4 14 244 191
226 2 2 4 4 21 192 22
227 2 2 4 4 21 241 192
228 2 2 4 4 192 243 22
229 2 2 4 4 73 214 74
230 2 2 4 4 73 242 214
231 2 2 4 4 74 205 75
232 2 2 4 4 74 214 205
233 2 2 4 4 75 224 76
234 2 2 4 4 205 224 75
235 2 2 4 4 76 206 77
236 2 2 4 4 76 224 206
237 2 2 4 4 77 239 78
238 2 2 4 4 206 239 77
239 2 2 4 4 78 228 79
240 2 2 4 4 78 239 228
241 2 2 4 4 79 238 80
242 2 2 4 4 79 228 223
243 2 2 4 4 223 238 79
244 2 2 4 4 80 203 81
245 2 2 4 4 80 238 203
246 2 2 4 4 81 225 82
247 2 2 4 4 203 225 81
248 2 2 4 4 82 207 83
249 2 2 4 4 82 225 207
250 2 2 4 4 83 230 84
251 2 2 4 4 207 230 83
252 2 2 4 4 84 208 85
253 2 2 4 4 84 230 208
254 2 2 4 4 85 229 86
255 2 2 4 4 208 229 85
256 2 2 4 4 86 193 87
257 2 2 4 4 86 229 193
258 2 2 4 4 87 221 88
259 2 2 4 4 193 221 87
260 2 2 4 4 88 226 89
261 2 2 4 4 221 226 88
262 2 2 4 4 89 194 90
263 2 2 4 4 89 226 194
264 2 2 4 4 90 237 91
265 2 2 4 4 194 237 90
266 2 2 4 4 91 240 92
267 2 2 4 4 91 237 218
268 2 2 4 4 218 240 91
269 2 2 4 4 92 195 93
270 2 2 4 4 92 240 195
271 2 2 4 4 93 209 94
272 2 2 4 4 195 209 93
273 2 2 4 4 94 227 95
274 2 2 4 4 209 227 94
275 2 2 4 4 95 217 96
276 2 2 4 4 95 227 217
277 2 2 4 4 217 241 96
278 2 2 4 4 98 216 97
279 2 2 4 4 216 244 97
280 2 2 4 4 99 233 98
281 2 2 4 4 98 233 216
282 2 2 4 4 100 197 99
283 2 2 4 4 197 233 99
284 2 2 4 4 101 234 100
285 2 2 4 4 100 234 197
286 2 2 4 4 102 213 101
287 2 2 4 4 213 234 101
288 2 2 4 4 103 198 102
289 2 2 4 4 198 213 102
290 2 2 4 4 104 212 103
291 2 2 4 4 103 212 198
292 2 2 4 4 105 231 104
293 2 2 4 4 104 231 212
294 2 2 4 4 106 199 105
295 2 2 4 4 199 231 105
296 2 2 4 4 107 232 106
297 2 2 4 4 106 232 199
298 2 2 4 4 108 200 107
299 2 2 4 4 200 232 107
300 2 2 4 4 109 235 108
301 2 2 4 4 108 235 200
302 2 2 4 4 110 201 109
303 2 2 4 4 201 235 109
304 2 2 4 4 111 219 110
305 2 2 4 4 110 219 201
306 2 2 4 4 112 210 111
307 2 2 4 4 210 219 111
308 2 2 4 4 113 202 112
309 2 2 4 4 202 210 112
310 2 2 4 4 114 220 113
311 2 2 4 4 113 220 202
312 2 2 4 4 115 204 114
313 2 2 4 4 204 220 114
314 2 2 4 4 116 211 115
315 2 2 4 4 115 211 204
316 2 2 4 4 117 222 116
317 2 2 4 4 116 222 211
318 2 2 4 4 118 236 117
319 2 2 4 4 117 236 222
320 2 2 4 4 119 196 118
321 2 2 4 4 196 236 118
322 2 2 4 4 120 215 119
323 2 2 4 4 119 215 196
324 2 2 4 4 120 243 215
325 2 2 4 4 191 216 214
326 2 2 4 4 214 242 191
327 2 2 4 4 191 244 216
328 2 2 4 4 192 217 215
329 2 2 4 4 215 243 192
330 2 2 4 4 192 241 217
331 2 2 4 4 201 219 193
332 2 2 4 4 193 229 201
333 2 2 4 4 193 219 210
334 2 2 4 4 210 221 193
335 2 2 4 4 202 220 194
336 2 2 4 4 194 226 202
337 2 2 4 4 194 220 204
338 2 2 4 4 204 237 194
339 2 2 4 4 195 222 209
340 2 2 4 4 211 222 195
341 2 2 4 4 195 240 211
342 2 2 4 4 196 227 209
343 2 2 4 4 209 236 196
344 2 2 4 4 215 227 196
345 2 2 4 4 197 224 205
346 2 2 4 4 205 233 197
347 2 2 4 4 206 224 197
348 2 2 4 4 197 234 206
349 2 2 4 4 212 223 198
350 2 2 4 4 198 228 213
351 2 2 4 4 223 228 198
352 2 2 4 4 199 225 203
353 2 2 4 4 203 231 199
354 2 2 4 4 207 225 199
355 2 2 4 4 199 232 207
356 2 2 4 4 200 230 207
357 2 2 4 4 207 232 200
358 2 2 4 4 208 230 200
359 2 2 4 4 200 235 208
360 2 2 4 4 201 229 208
361 2 2 4 4 208 235 201
362 2 2 4 4 202 226 210
363 2 2 4 4 212 231 203
364 2 2 4 4 203 238 212
365 2 2 4 4 211 218 204
366 2 2 4 4 218 237 204
367 2 2 4 4 214 233 205
368 2 2 4 4 206 234 213
369 2 2 4 4 213 239 206
370 2 2 4 4 222 236 209
371 2 2 4 4 210 226 221
372 2 2 4 4 211 240 218
373 2 2 4 4 212 238 223
374 2 2 4 4 228 239 213
375 2 2 4 4 216 233 214
376 2 2 4 4 217 227 215
377 2 2 4 5 2 15 296
378 2 2 4 5 25 2 296
379 2 2 4 5 16 4 297
380 2 2 4 5 4 73 297
381 2 2 4 5 23 6 294
382 2 2 4 5 6 48 294
383 2 2 4 5 8 24 295
384 2 2 4 5 96 8 295
385 2 2 4 5 15 16 246
386 2 2 4 5 15 246 296
387 2 2 4 5 246 16 297
388 2 2 4 5 24 23 245
389 2 2 4 5 245 23 294
390 2 2 4 5 24 245 295
391 2 2 4 5 26 25 268
392 2 2 4 5 268 25 296
393 2 2 4 5 27 26 252
394 2 2 4 5 252 26 268
395 2 2 4 5 28 27 277
396 2 2 4 5 27 252 277
397 2 2 4 5 29 28 286
398 2 2 4 5 28 277 286
399 2 2 4 5 30 29 261
400 2 2 4 5 261 29 286
401 2 2 4 5 31 30 278
402 2 2 4 5 30 261 278
403 2 2 4 5 32 31 291
404 2 2 4 5 31 278 291
405 2 2 4 5 33 32 258
406 2 2 4 5 258 32 291
407 2 2 4 5 34 33 279
408 2 2 4 5 33 258 279
409 2 2 4 5 35 34 263
410 2 2 4 5 263 34 279
411 2 2 4 5 36 35 283
412 2 2 4 5 35 263 283
413 2 2 4 5 37 36 262
414 2 2 4 5 262 36 283
415 2 2 4 5 38 37 280
416 2 2 4 5 37 262 280
417 2 2 4 5 39 38 247
418 2 2 4 5 247 38 280
419 2 2 4 5 40 39 293
420 2 2 4 5 39 247 293
421 2 2 4 5 41 40 292
422 2 2 4 5 40 273 292
423 2 2 4 5 273 40 293
424 2 2 4 5 42 41 248
425 2 2 4 5 248 41 292
426 2 2 4 5 43 42 281
427 2 2 4 5 42 248 281
428 2 2 4 5 44 43 290
429 2 2 4 5 43 281 290
430 2 2 4 5 45 44 249
431 2 2 4 5 249 44 290
432 2 2 4 5 46 45 276
433 2 2 4 5 45 249 276
434 2 2 4 5 47 46 251
435 2 2 4 5 251 46 276
436 2 2 4 5 48 47 269
437 2 2 4 5 47 251 269
438 2 2 4 5 48 269 294
439 2 2 4 5 73 74 270
440 2 2 4 5 73 270 297
441 2 2 4 5 74 75 287
442 2 2 4 5 270 74 287
443 2 2 4 5 75 76 267
444 2 2 4 5 75 267 287
445 2 2 4 5 76 77 253
446 2 2 4 5 76 253 267
447 2 2 4 5 77 78 288
448 2 2 4 5 253 77 288
449 2 2 4 5 78 79 254
450 2 2 4 5 78 254 288
451 2 2 4 5 79 80 266
452 2 2 4 5 254 79 266
453 2 2 4 5 80 81 284
454 2 2 4 5 266 80 284
455 2 2 4 5 81 82 250
456 2 2 4 5 81 250 284
457 2 2 4 5 82 83 285
458 2 2 4 5 250 82 285
459 2 2 4 5 83 84 255
460 2 2 4 5 83 255 285
461 2 2 4 5 84 85 289
462 2 2 4 5 255 84 289
463 2 2 4 5 85 86 256
464 2 2 4 5 85 256 289
465 2 2 4 5 86 87 274
466 2 2 4 5 256 86 274
467 2 2 4 5 87 88 264
468 2 2 4 5 87 264 274
469 2 2 4 5 88 89 260
470 2 2 4 5 88 260 264
471 2 2 4 5 89 90 275
472 2 2 4 5 260 89 275
473 2 2 4 5 90 91 257
474 2 2 4 5 90 257 275
475 2 2 4 5 91 92 265
476 2 2 4 5 257 91 265
477 2 2 4 5 92 93 272
478 2 2 4 5 265 92 272
479 2 2 4 5 93 94 259
480 2 2 4 5 93 259 272
481 2 2 4 5 94 95 282
482 2 2 4 5 259 94 282
483 2 2 4 5 95 96 271
484 2 2 4 5 95 271 282
485 2 2 4 5 271 96 295
486 2 2 4 5 245 269 271
487 2 2 4 5 269 245 294
488 2 2 4 5 245 271 295
489 2 2 4 5 268 246 270
490 2 2 4 5 246 268 296
491 2 2 4 5 270 246 297
492 2 2 4 5 247 256 274
493 2 2 4 5 256 247 280
494 2 2 4 5 264 247 274
495 2 2 4 5 247 264 293
496 2 2 4 5 257 248 275
497 2 2 4 5 248 257 281
498 2 2 4 5 248 260 275
499 2 2 4 5 260 248 292
500 2 2 4 5 259 249 272
501 2 2 4 5 249 259 276
502 2 2 4 5 249 265 272
503 2 2 4 5 265 249 290
504 2 2 4 5 258 250 279
505 2 2 4 5 250 258 284
506 2 2 4 5 250 263 279
507 2 2 4 5 263 250 285
508 2 2 4 5 259 251 276
509 2 2 4 5 251 259 282
510 2 2 4 5 269 251 282
511 2 2 4 5 252 267 277
512 2 2 4 5 267 252 287
513 2 2 4 5 252 268 287
514 2 2 4 5 253 261 286
515 2 2 4 5 261 253 288
516 2 2 4 5 267 253 277
517 2 2 4 5 277 253 286
518 2 2 4 5 261 254 278
519 2 2 4 5 254 261 288
520 2 2 4 5 254 266 278
521 2 2 4 5 255 262 283
522 2 2 4 5 262 255 289
523 2 2 4 5 263 255 283
524 2 2 4 5 255 263 285
525 2 2 4 5 262 256 280
526 2 2 4 5 256 262 289
527 2 2 4 5 257 265 290
528 2 2 4 5 281 257 290
529 2 2 4 5 258 266 284
530 2 2 4 5 266 258 291
531 2 2 4 5 264 260 273
532 2 2 4 5 273 260 292
533 2 2 4 5 264 273 293
534 2 2 4 5 278 266 291
535 2 2 4 5 268 270 287
536 2 2 4 5 271 269 282
537 2 2 4 6 1 349 11
538 2 2 4 6 49 349 1
539 2 2 4 6 12 350 3
540 2 2 4 6 3 350 97
541 2 2 4 6 19 347 5
542 2 2 4 6 5 347 72
543 2 2 4 6 7 348 20
544 2 2 4 6 120 348 7
545 2 2 4 6 11 299 12
546 2 2 4 6 11 349 299
547 2 2 4 6 299 350 12
548 2 2 4 6 20 298 19
549 2 2 4 6 298 347 19
550 2 2 4 6 20 348 298
551 2 2 4 6 50 321 49
552 2 2 4 6 321 349 49
553 2 2 4 6 51 313 50
554 2 2 4 6 313 321 50
555 2 2 4 6 52 331 51
556 2 2 4 6 51 331 313
557 2 2 4 6 53 314 52
558 2 2 4 6 314 331 52
559 2 2 4 6 54 320 53
560 2 2 4 6 53 320 314
561 2 2 4 6 55 332 54
562 2 2 4 6 54 332 320
563 2 2 4 6 56 344 55
564 2 2 4 6 55 344 332
565 2 2 4 6 57 310 56
566 2 2 4 6 310 344 56
567 2 2 4 6 58 333 57
568 2 2 4 6 57 333 310
569 2 2 4 6 59 316 58
570 2 2 4 6 316 333 58
571 2 2 4 6 60 337 59
572 2 2 4 6 59 337 316
573 2 2 4 6 61 315 60
574 2 2 4 6 315 337 60
575 2 2 4 6 62 336 61
576 2 2 4 6 61 336 315
577 2 2 4 6 63 300 62
578 2 2 4 6 300 336 62
579 2 2 4 6 64 346 63
580 2 2 4 6 63 346 300
581 2 2 4 6 65 345 64
582 2 2 4 6 64 345 326
583 2 2 4 6 326 346 64
584 2 2 4 6 66 301 65
585 2 2 4 6 301 345 65
586 2 2 4 6 67 334 66
587 2 2 4 6 66 334 301
588 2 2 4 6 68 343 67
589 2 2 4 6 67 343 334
590 2 2 4 6 69 302 68
591 2 2 4 6 302 343 68
592 2 2 4 6 70 329 69
593 2 2 4 6 69 329 302
594 2 2 4 6 71 305 70
595 2 2 4 6 305 329 70
596 2 2 4 6 72 322 71
597 2 2 4 6 71 322 305
598 2 2 4 6 72 347 322
599 2 2 4 6 97 323 98
600 2 2 4 6 97 350 323
601 2 2 4 6 98 340 99
602 2 2 4 6 323 340 98
603 2 2 4 6 99 306 100
604 2 2 4 6 99 340 306
605 2 2 4 6 100 341 101
606 2 2 4 6 306 341 100
607 2 2 4 6 101 330 102
608 2 2 4 6 101 341 330
609 2 2 4 6 102 303 103
610 2 2 4 6 102 330 303
611 2 2 4 6 103 319 104
612 2 2 4 6 303 319 103
613 2 2 4 6 104 338 105
614 2 2 4 6 319 338 104
615 2 2 4 6 105 304 106
616 2 2 4 6 105 338 304
617 2 2 4 6 106 339 107
618 2 2 4 6 304 339 106
619 2 2 4 6 107 307 108
620 2 2 4 6 107 339 307
621 2 2 4 6 108 342 109
622 2 2 4 6 307 342 108
623 2 2 4 6 109 308 110
624 2 2 4 6 109 342 308
625 2 2 4 6 110 327 111
626 2 2 4 6 308 327 110
627 2 2 4 6 111 317 112
628 2 2 4 6 111 327 317
629 2 2 4 6 112 312 113
630 2 2 4 6 112 317 312
631 2 2 4 6 113 328 114
632 2 2 4 6 312 328 113
633 2 2 4 6 114 309 115
634 2 2 4 6 114 328 309
635 2 2 4 6 115 318 116
636 2 2 4 6 309 318 115
637 2 2 4 6 116 325 117
638 2 2 4 6 318 325 116
639 2 2 4 6 117 311 118
640 2 2 4 6 117 325 311
641 2 2 4 6 118 335 119
642 2 2 4 6 311 335 118
643 2 2 4 6 119 324 120
644 2 2 4 6 119 335 324
645 2 2 4 6 324 348 120
646 2 2 4 6 298 324 322
647 2 2 4 6 322 347 298
648 2 2 4 6 298 348 324
649 2 2 4 6 321 323 299
650 2 2 4 6 299 349 321
651 2 2 4 6 323 350 299
652 2 2 4 6 300 327 308
653 2 2 4 6 308 336 300
654 2 2 4 6 317 327 300
655 2 2 4 6 300 346 317
656 2 2 4 6 309 328 301
657 2 2 4 6 301 334 309
658 2 2 4 6 301 328 312
659 2 2 4 6 312 345 301
660 2 2 4 6 311 325 302
661 2 2 4 6 302 329 311
662 2 2 4 6 302 325 318
663 2 2 4 6 318 343 302
664 2 2 4 6 303 332 319
665 2 2 4 6 303 330 320
666 2 2 4 6 320 332 303
667 2 2 4 6 310 333 304
668 2 2 4 6 304 338 310
669 2 2 4 6 304 333 316
670 2 2 4 6 316 339 304
671 2 2 4 6 311 329 305
672 2 2 4 6 305 335 311
673 2 2 4 6 322 335 305
674 2 2 4 6 313 331 306
675 2 2 4 6 306 340 313
676 2 2 4 6 306 331 314
677 2 2 4 6 314 341 306
678 2 2 4 6 307 337 315
679 2 2 4 6 315 342 307
680 2 2 4 6 316 337 307
681 2 2 4 6 307 339 316
682 2 2 4 6 315 336 308
683 2 2 4 6 308 342 315
684 2 2 4 6 309 343 318
685 2 2 4 6 334 343 309
686 2 2 4 6 310 338 319
687 2 2 4 6 319 344 310
688 2 2 4 6 317 326 312
689 2 2 4 6 326 345 312
690 2 2 4 6 313 340 321
691 2 2 4 6 320 341 314
692 2 2 4 6 317 346 326
693 2 2 4 6 332 344 319
694 2 2 4 6 330 341 320
695 2 2 4 6 321 340 323
696 2 2 4 6 324 335 322
697 4 2 1 1 213 355 303 361
698 4 2 1 1 213 303 330 361
699 4 2 1 1 189 347 134 351
700 4 2 1 1 296 125 188 352
701 4 2 1 1 261 185 355 361
702 4 2 1 1 298 132 134 351
703 4 2 1 1 123 125 246 352
704 4 2 1 1 292 353 140 365
705 4 2 1 1 244 350 127 352
706 4 2 1 1 295 136 241 351
707 4 2 1 1 189 134 138 351
708 4 2 1 1 125 137 188 352
709 4 2 1 1 128 297 242 352
710 4 2 1 1 135 348 243 351
711 4 2 1 1 338 356 231 364
712 4 2 1 1 135 132 298 351
713 4 2 1 1 128 123 246 352
714 4 2 1 1 327 219 362 363
715 4 2 1 1 299 126 124 352
716 4 2 1 1 128 246 297 352
717 4 2 1 1 135 298 348 351
718 4 2 1 1 198 303 213 355
719 4 2 1 1 228 355 213 361
720 4 2 1 1 248 183 354 365
721 4 2 1 1 303 355 320 361
722 4 2 1 1 134 347 298 351
723 4 2 1 1 296 246 125 352
724 4 2 1 1 190 126 349 352
725 4 2 1 1 133 294 187 351
726 4 2 1 1 271 217 227 351
727 4 2 1 1 216 340 323 352
728 4 2 1 1 248 183 281 354
729 4 2 1 1 224 359 267 360
730 4 2 1 1 322 351 163 368
731 4 2 1 1 191 244 127 352
732 4 2 1 1 192 241 136 351
733 4 2 1 1 189 163 347 351
734 4 2 1 1 162 296 188 352
735 4 2 1 1 216 350 244 352
736 4 2 1 1 295 241 217 351
737 4 2 1 1 286 360 180 361
738 4 2 1 1 299 349 126 352
739 4 2 1 1 132 130 134 351
740 4 2 1 1 123 122 125 352
741 4 2 1 1 254 355 228 361
742 4 2 1 1 134 130 138 351
743 4 2 1 1 125 122 137 352
744 4 2 1 1 154 181 142 361
745 4 2 1 1 303 320 330 361
746 4 2 1 1 324 243 348 351
747 4 2 1 1 270 242 297 352
748 4 2 1 1 261 154 185 361
749 4 2 1 1 325 357 222 358
750 4 2 1 1 263 279 171 364
751 4 2 1 1 224 197 359 360
752 4 2 1 1 292 260 353 365
753 4 2 1 1 228 198 213 355
754 4 2 1 1 283 155 176 367
755 4 2 1 1 280 156 175 363
756 4 2 1 1 254 261 355 361
757 4 2 1 1 128 121 123 352
758 4 2 1 1 135 129 132 351
759 4 2 1 1 122 124 126 352
760 4 2 1 1 131 133 130 351
761 4 2 1 1 179 268 352 359
762 4 2 1 1 172 140 292 353
763 4 2 1 1 164 354 158 357
764 4 2 1 1 159 355 344 356
765 4 2 1 1 211 354 218 357
766 4 2 1 1 268 162 179 352
767 4 2 1 1 189 138 163 351
768 4 2 1 1 162 188 137 352
769 4 2 1 1 170 355 159 356
770 4 2 1 1 240 211 218 357
771 4 2 1 1 273 353 264 362
772 4 2 1 1 186 164 158 357
773 4 2 1 1 292 140 248 365
774 4 2 1 1 150 353 345 365
775 4 2 1 1 150 140 353 365
776 4 2 1 1 236 358 209 368
777 4 2 1 1 166 150 345 365
778 4 2 1 1 264 353 221 362
779 4 2 1 1 327 201 219 363
780 4 2 1 1 230 366 255 367
781 4 2 1 1 254 228 288 361
782 4 2 1 1 170 159 184 356
783 4 2 1 1 293 273 264 362
784 4 2 1 1 338 231 304 364
785 4 2 1 1 322 163 174 368
786 4 2 1 1 337 146 366 367
787 4 2 1 1 311 358 236 368
788 4 2 1 1 214 352 287 359
789 4 2 1 1 282 271 227 351
790 4 2 1 1 233 340 216 352
791 4 2 1 1 226 353 260 365
792 4 2 1 1 160 351 269 368
793 4 2 1 1 340 352 233 359
794 4 2 1 1 302 357 325 358
795 4 2 1 1 149 358 305 368
796 4 2 1 1 216 323 350 352
797 4 2 1 1 271 295 217 351
798 4 2 1 1 255 230 285 366
799 4 2 1 1 272 195 357 358
800 4 2 1 1 127 124 121 352
801 4 2 1 1 136 131 129 351
802 4 2 1 1 146 178 337 366
803 4 2 1 1 250 225 364 366
804 4 2 1 1 143 364 333 366
805 4 2 1 1 324 351 322 368
806 4 2 1 1 237 257 354 365
807 4 2 1 1 215 351 324 368
808 4 2 1 1 227 282 351 368
809 4 2 1 1 153 334 354 365
810 4 2 1 1 127 121 191 352
811 4 2 1 1 136 129 192 351
812 4 2 1 1 269 251 144 368
813 4 2 1 1 237 275 257 365
814 4 2 1 1 153 354 183 365
815 4 2 1 1 207 285 230 366
816 4 2 1 1 329 305 149 358
817 4 2 1 1 144 160 269 368
818 4 2 1 1 178 316 337 366
819 4 2 1 1 310 356 338 364
820 4 2 1 1 285 225 250 366
821 4 2 1 1 333 178 143 366
822 4 2 1 1 193 362 219 363
823 4 2 1 1 298 324 348 351
824 4 2 1 1 246 270 297 352
825 4 2 1 1 161 352 321 359
826 4 2 1 1 177 356 310 364
827 4 2 1 1 287 214 270 352
828 4 2 1 1 248 140 183 365
829 4 2 1 1 327 362 300 363
830 4 2 1 1 203 231 356 364
831 4 2 1 1 185 278 261 355
832 4 2 1 1 333 316 178 366
833 4 2 1 1 285 207 225 366
834 4 2 1 1 156 363 262 369
835 4 2 1 1 287 352 268 359
836 4 2 1 1 193 274 362 363
837 4 2 1 1 179 352 161 359
838 4 2 1 1 157 326 353 362
839 4 2 1 1 319 344 355 356
840 4 2 1 1 206 234 360 361
841 4 2 1 1 329 149 168 358
842 4 2 1 1 253 224 267 360
843 4 2 1 1 341 360 234 361
844 4 2 1 1 230 200 366 367
845 4 2 1 1 223 355 266 356
846 4 2 1 1 229 289 256 369
847 4 2 1 1 260 275 194 365
848 4 2 1 1 210 221 353 362
849 4 2 1 1 238 223 266 356
850 4 2 1 1 166 345 301 365
851 4 2 1 1 337 366 307 367
852 4 2 1 1 187 294 269 351
853 4 2 1 1 321 190 349 352
854 4 2 1 1 248 354 257 365
855 4 2 1 1 253 360 286 361
856 4 2 1 1 157 346 326 362
857 4 2 1 1 162 161 179 352
858 4 2 1 1 226 260 194 365
859 4 2 1 1 177 151 356 364
860 4 2 1 1 263 366 155 367
861 4 2 1 1 304 333 364 366
862 4 2 1 1 302 168 357 358
863 4 2 1 1 182 336 148 369
864 4 2 1 1 321 352 340 359
865 4 2 1 1 233 352 214 359
866 4 2 1 1 155 263 364 366
867 4 2 1 1 247 362 274 363
868 4 2 1 1 199 364 225 366
869 4 2 1 1 329 168 302 358
870 4 2 1 1 212 355 223 356
871 4 2 1 1 251 276 169 358
872 4 2 1 1 253 206 224 360
873 4 2 1 1 200 235 342 369
874 4 2 1 1 165 336 300 363
875 4 2 1 1 269 351 282 368
876 4 2 1 1 268 287 270 352
877 4 2 1 1 156 280 262 363
878 4 2 1 1 321 313 145 359
879 4 2 1 1 318 354 211 357
880 4 2 1 1 292 248 260 365
881 4 2 1 1 171 155 263 364
882 4 2 1 1 228 239 288 361
883 4 2 1 1 144 358 149 368
884 4 2 1 1 182 315 336 369
885 4 2 1 1 145 161 321 359
886 4 2 1 1 203 284 225 364
887 4 2 1 1 323 299 350 352
888 4 2 1 1 191 216 244 352
889 4 2 1 1 271 245 295 351
890 4 2 1 1 192 217 241 351
891 4 2 1 1 263 155 283 367
892 4 2 1 1 229 208 289 369
893 4 2 1 1 309 354 334 365
894 4 2 1 1 256 363 229 369
895 4 2 1 1 267 224 205 359
896 4 2 1 1 267 359 277 360
897 4 2 1 1 300 362 165 363
898 4 2 1 1 251 358 144 368
899 4 2 1 1 150 166 140 365
900 4 2 1 1 227 209 282 368
901 4 2 1 1 317 353 326 362
902 4 2 1 1 153 166 301 365
903 4 2 1 1 268 296 162 352
904 4 2 1 1 237 194 275 365
905 4 2 1 1 306 359 197 360
906 4 2 1 1 203 356 284 364
907 4 2 1 1 202 353 226 365
908 4 2 1 1 153 183 140 365
909 4 2 1 1 278 170 291 355
910 4 2 1 1 325 222 311 358
911 4 2 1 1 236 209 196 368
912 4 2 1 1 257 248 281 354
913 4 2 1 1 322 347 163 351
914 4 2 1 1 142 320 332 355
915 4 2 1 1 336 363 148 369
916 4 2 1 1 209 358 259 368
917 4 2 1 1 291 266 355 356
918 4 2 1 1 340 233 306 359
919 4 2 1 1 141 357 168 358
920 4 2 1 1 222 236 311 358
921 4 2 1 1 262 363 256 369
922 4 2 1 1 231 338 212 356
923 4 2 1 1 254 288 261 361
924 4 2 1 1 224 197 205 359
925 4 2 1 1 327 308 201 363
926 4 2 1 1 335 324 322 368
927 4 2 1 1 329 311 305 358
928 4 2 1 1 265 218 257 354
929 4 2 1 1 333 177 310 364
930 4 2 1 1 311 305 358 368
931 4 2 1 1 148 363 156 369
932 4 2 1 1 337 315 182 367
933 4 2 1 1 229 274 193 363
934 4 2 1 1 157 353 167 362
935 4 2 1 1 158 354 343 357
936 4 2 1 1 152 277 359 360
937 4 2 1 1 182 156 367 369
938 4 2 1 1 307 339 232 366
939 4 2 1 1 289 208 230 367
940 4 2 1 1 197 306 233 359
941 4 2 1 1 262 289 367 369
942 4 2 1 1 153 301 334 365
943 4 2 1 1 215 227 217 351
944 4 2 1 1 282 269 271 351
945 4 2 1 1 214 233 216 352
946 4 2 1 1 340 321 323 352
947 4 2 1 1 256 274 229 363
948 4 2 1 1 335 215 324 368
949 4 2 1 1 195 272 209 358
950 4 2 1 1 199 304 231 364
951 4 2 1 1 275 248 257 365
952 4 2 1 1 212 319 355 356
953 4 2 1 1 345 353 312 365
954 4 2 1 1 227 351 215 368
955 4 2 1 1 165 148 336 363
956 4 2 1 1 290 265 354 357
957 4 2 1 1 250 225 284 364
958 4 2 1 1 174 149 305 368
959 4 2 1 1 343 354 318 357
960 4 2 1 1 199 232 339 366
961 4 2 1 1 167 172 273 353
962 4 2 1 1 333 143 177 364
963 4 2 1 1 315 182 367 369
964 4 2 1 1 306 313 359 360
965 4 2 1 1 180 360 147 361
966 4 2 1 1 277 180 286 360
967 4 2 1 1 172 150 140 353
968 4 2 1 1 255 289 230 367
969 4 2 1 1 195 222 357 358
970 4 2 1 1 263 255 366 367
971 4 2 1 1 337 182 146 367
972 4 2 1 1 155 366 146 367
973 4 2 1 1 141 169 276 358
974 4 2 1 1 220 328 202 365
975 4 2 1 1 289 208 367 369
976 4 2 1 1 253 206 360 361
977 4 2 1 1 209 259 282 368
978 4 2 1 1 268 246 296 352
979 4 2 1 1 155 364 143 366
980 4 2 1 1 306 331 313 360
981 4 2 1 1 169 144 251 358
982 4 2 1 1 309 211 318 354
983 4 2 1 1 262 256 289 369
984 4 2 1 1 250 364 263 366
985 4 2 1 1 159 332 344 355
986 4 2 1 1 215 243 324 351
987 4 2 1 1 214 242 270 352
988 4 2 1 1 182 148 156 369
989 4 2 1 1 153 140 166 365
990 4 2 1 1 320 181 147 361
991 4 2 1 1 322 298 347 351
992 4 2 1 1 259 358 251 368
993 4 2 1 1 183 164 281 354
994 4 2 1 1 311 236 196 368
995 4 2 1 1 238 212 223 356
996 4 2 1 1 327 219 317 362
997 4 2 1 1 272 357 249 358
998 4 2 1 1 344 310 159 356
999 4 2 1 1 159 310 177 356
1000 4 2 1 1 328 220 204 365
1001 4 2 1 1 303 332 320 355
1002 4 2 1 1 221 264 226 353
1003 4 2 1 1 179 252 268 359
1004 4 2 1 1 278 254 261 355
1005 4 2 1 1 302 325 311 358
1006 4 2 1 1 240 272 195 357
1007 4 2 1 1 286 180 154 361
1008 4 2 1 1 202 226 194 365
1009 4 2 1 1 193 274 264 362
1010 4 2 1 1 156 262 367 369
1011 4 2 1 1 343 153 334 354
1012 4 2 1 1 147 360 314 361
1013 4 2 1 1 200 307 367 369
1014 4 2 1 1 212 319 198 355
1015 4 2 1 1 174 144 149 368
1016 4 2 1 1 193 264 221 362
1017 4 2 1 1 260 248 275 365
1018 4 2 1 1 152 359 145 360
1019 4 2 1 1 326 345 150 353
1020 4 2 1 1 346 317 326 362
1021 4 2 1 1 204 211 309 354
1022 4 2 1 1 200 307 366 367
1023 4 2 1 1 160 138 187 351
1024 4 2 1 1 237 354 204 365
1025 4 2 1 1 240 265 272 357
1026 4 2 1 1 132 129 130 351
1027 4 2 1 1 123 121 122 352
1028 4 2 1 1 210 353 317 362
1029 4 2 1 1 160 187 269 351
1030 4 2 1 1 137 190 161 352
1031 4 2 1 1 327 300 308 363
1032 4 2 1 1 205 214 287 359
1033 4 2 1 1 321 161 190 352
1034 4 2 1 1 281 164 290 354
1035 4 2 1 1 166 301 334 153
1036 4 2 1 1 197 234 306 360
1037 4 2 1 1 144 174 160 368
1038 4 2 1 1 279 151 171 364
1039 4 2 1 1 280 175 247 363
1040 4 2 1 1 121 124 122 352
1041 4 2 1 1 129 131 130 351
1042 4 2 1 1 326 150 157 353
1043 4 2 1 1 304 364 199 366
1044 4 2 1 1 173 152 145 360
1045 4 2 1 1 277 252 152 359
1046 4 2 1 1 178 146 155 366
1047 4 2 1 1 263 255 285 366
1048 4 2 1 1 262 280 256 363
1049 4 2 1 1 254 266 223 355
1050 4 2 1 1 99 233 306 340
1051 4 2 1 1 171 143 155 364
1052 4 2 1 1 200 342 307 369
1053 4 2 1 1 312 353 202 365
1054 4 2 1 1 210 202 312 353
1055 4 2 1 1 203 199 231 364
1056 4 2 1 1 341 314 360 361
1057 4 2 1 1 222 209 236 358
1058 4 2 1 1 212 198 223 355
1059 4 2 1 1 258 284 356 364
1060 4 2 1 1 165 362 139 363
1061 4 2 1 1 277 267 252 359
1062 4 2 1 1 209 272 259 358
1063 4 2 1 1 178 155 143 366
1064 4 2 1 1 285 250 263 366
1065 4 2 1 1 201 193 219 363
1066 4 2 1 1 318 211 325 357
1067 4 2 1 1 263 283 255 367
1068 4 2 1 1 234 341 306 360
1069 4 2 1 1 317 210 312 353
1070 4 2 1 1 155 146 176 367
1071 4 2 1 1 214 191 242 352
1072 4 2 1 1 269 294 245 351
1073 4 2 1 1 321 349 299 352
1074 4 2 1 1 215 192 243 351
1075 4 2 1 1 251 269 282 368
1076 4 2 1 1 304 310 338 364
1077 4 2 1 1 233 197 99 306
1078 4 2 1 1 263 250 279 364
1079 4 2 1 1 148 175 156 363
1080 4 2 1 1 176 262 283 367
1081 4 2 1 1 320 147 314 361
1082 4 2 1 1 206 197 224 360
1083 4 2 1 1 227 209 94 282
1084 4 2 1 1 301 309 334 365
1085 4 2 1 1 277 286 253 360
1086 4 2 1 1 252 287 268 359
1087 4 2 1 1 325 211 222 357
1088 4 2 1 1 198 319 303 355
1089 4 2 1 1 308 363 336 369
1090 4 2 1 1 291 184 258 356
1091 4 2 1 1 322 174 305 368
1092 4 2 1 1 212 338 319 356
1093 4 2 1 1 197 206 234 360
1094 4 2 1 1 201 229 363 369
1095 4 2 1 1 139 167 293 362
1096 4 2 1 1 228 213 239 361
1097 4 2 1 1 237 257 218 354
1098 4 2 1 1 302 311 329 358
1099 4 2 1 1 204 354 309 365
1100 4 2 1 1 302 168 158 357
1101 4 2 1 1 200 367 208 369
1102 4 2 1 1 315 367 307 369
1103 4 2 1 1 200 307 232 366
1104 4 2 1 1 230 200 207 366
1105 4 2 1 1 251 269 144 47
1106 4 2 1 1 226 264 260 353
1107 4 2 1 1 259 251 282 368
1108 4 2 1 1 343 158 153 354
1109 4 2 1 1 337 316 307 366
1110 4 2 1 1 142 332 159 355
1111 4 2 1 1 160 144 269 47
1112 4 2 1 1 179 152 252 359
1113 4 2 1 1 273 172 292 353
1114 4 2 1 1 185 170 278 355
1115 4 2 1 1 249 357 141 358
1116 4 2 1 1 205 233 214 359
1117 4 2 1 1 321 340 313 359
1118 4 2 1 1 145 179 161 359
1119 4 2 1 1 339 304 199 366
1120 4 2 1 1 318 309 115 211
1121 4 2 1 1 139 362 247 363
1122 4 2 1 1 50 321 313 145
1123 4 2 1 1 258 356 151 364
1124 4 2 1 1 304 316 333 366
1125 4 2 1 1 158 164 153 354
1126 4 2 1 1 204 218 211 354
1127 4 2 1 1 328 204 309 365
1128 4 2 1 1 145 50 321 161
1129 4 2 1 1 264 273 260 353
1130 4 2 1 1 317 312 326 353
1131 4 2 1 1 169 141 276 45
1132 4 2 1 1 259 94 209 282
1133 4 2 1 1 312 202 328 365
1134 4 2 1 1 207 199 225 366
1135 4 2 1 1 170 142 159 355
1136 4 2 1 1 211 309 115 204
1137 4 2 1 1 195 209 222 358
1138 4 2 1 1 219 210 317 362
1139 4 2 1 1 169 149 144 358
1140 4 2 1 1 336 308 300 363
1141 4 2 1 1 38 247 280 175
1142 4 2 1 1 202 312 112 210
1143 4 2 1 1 290 186 249 357
1144 4 2 1 1 278 291 266 355
1145 4 2 1 1 223 228 254 355
1146 4 2 1 1 151 159 177 356
1147 4 2 1 1 201 229 193 363
1148 4 2 1 1 171 33 151 279
1149 4 2 1 1 274 247 264 362
1150 4 2 1 1 276 249 141 358
1151 4 2 1 1 304 333 310 364
1152 4 2 1 1 267 205 287 359
1153 4 2 1 1 235 109 342 369
1154 4 2 1 1 270 246 268 352
1155 4 2 1 1 319 344 332 355
1156 4 2 1 1 138 160 163 351
1157 4 2 1 1 152 180 277 360
1158 4 2 1 1 253 267 277 360
1159 4 2 1 1 200 230 208 367
1160 4 2 1 1 137 161 162 352
1161 4 2 1 1 312 317 112 210
1162 4 2 1 1 261 286 154 361
1163 4 2 1 1 337 307 315 367
1164 4 2 1 1 324 298 322 351
1165 4 2 1 1 225 199 203 364
1166 4 2 1 1 344 319 310 356
1167 4 2 1 1 293 247 139 362
1168 4 2 1 1 194 89 275 260
1169 4 2 1 1 342 315 307 369
1170 4 2 1 1 235 200 208 369
1171 4 2 1 1 167 157 172 353
1172 4 2 1 1 210 221 226 353
1173 4 2 1 1 176 262 36 283
1174 4 2 1 1 104 212 231 338
1175 4 2 1 1 186 141 249 357
1176 4 2 1 1 330 320 341 361
1177 4 2 1 1 193 221 210 362
1178 4 2 1 1 288 239 253 361
1179 4 2 1 1 149 141 168 358
1180 4 2 1 1 340 306 313 359
1181 4 2 1 1 106 199 232 339
1182 4 2 1 1 232 107 339 307
1183 4 2 1 1 95 217 227 271
1184 4 2 1 1 340 98 216 323
1185 4 2 1 1 283 155 35 176
1186 4 2 1 1 258 184 151 356
1187 4 2 1 1 343 302 158 357
1188 4 2 1 1 342 200 108 235
1189 4 2 1 1 279 171 34 263
1190 4 2 1 1 175 139 247 363
1191 4 2 1 1 258 151 279 364
1192 4 2 1 1 311 196 335 368
1193 4 2 1 1 341 320 314 361
1194 4 2 1 1 280 156 37 175
1195 4 2 1 1 204 328 114 220
1196 4 2 1 1 284 203 238 356
1197 4 2 1 1 338 310 319 356
1198 4 2 1 1 309 318 343 354
1199 4 2 1 1 265 257 290 354
1200 4 2 1 1 300 346 165 362
1201 4 2 1 1 196 215 335 368
1202 4 2 1 1 154 147 181 361
1203 4 2 1 1 197 233 205 359
1204 4 2 1 1 67 153 334 343
1205 4 2 1 1 314 173 331 360
1206 4 2 1 1 159 55 344 332
1207 4 2 1 1 317 327 111 219
1208 4 2 1 1 308 201 363 369
1209 4 2 1 1 180 147 154 361
1210 4 2 1 1 262 176 156 367
1211 4 2 1 1 219 193 210 362
1212 4 2 1 1 293 264 247 362
1213 4 2 1 1 29 180 154 286
1214 4 2 1 1 231 105 338 304
1215 4 2 1 1 181 53 320 147
1216 4 2 1 1 68 168 158 302
1217 4 2 1 1 345 312 301 365
1218 4 2 1 1 209 227 196 368
1219 4 2 1 1 284 238 266 356
1220 4 2 1 1 184 159 151 356
1221 4 2 1 1 88 226 221 264
1222 4 2 1 1 320 54 181 142
1223 4 2 1 1 206 213 234 361
1224 4 2 1 1 66 301 334 166
1225 4 2 1 1 346 157 165 362
1226 4 2 1 1 251 259 276 358
1227 4 2 1 1 327 110 219 201
1228 4 2 1 1 216 191 214 352
1229 4 2 1 1 323 321 299 352
1230 4 2 1 1 217 192 215 351
1231 4 2 1 1 271 269 245 351
1232 4 2 1 1 204 237 218 354
1233 4 2 1 1 194 237 204 365
1234 4 2 1 1 273 292 260 353
1235 4 2 1 1 326 312 345 353
1236 4 2 1 1 267 287 252 359
1237 4 2 1 1 183 153 164 354
1238 4 2 1 1 179 145 152 359
1239 4 2 1 1 101 234 213 330
1240 4 2 1 1 322 305 335 368
1241 4 2 1 1 103 198 212 319
1242 4 2 1 1 185 142 170 355
1243 4 2 1 1 334 66 166 153
1244 4 2 1 1 202 194 220 365
1245 4 2 1 1 100 197 234 306
1246 4 2 1 1 109 308 342 369
1247 4 2 1 1 257 91 218 265
1248 4 2 1 1 89 194 226 260
1249 4 2 1 1 343 334 309 354
1250 4 2 1 1 281 290 257 354
1251 4 2 1 1 253 239 206 361
1252 4 2 1 1 294 187 269 48
1253 4 2 1 1 49 349 321 190
1254 4 2 1 1 207 200 232 366
1255 4 2 1 1 307 316 339 366
1256 4 2 1 1 325 318 116 211
1257 4 2 1 1 168 141 158 357
1258 4 2 1 1 319 103 198 303
1259 4 2 1 1 209 195 93 272
1260 4 2 1 1 235 201 109 369
1261 4 2 1 1 62 336 300 165
1262 4 2 1 1 256 247 274 363
1263 4 2 1 1 272 249 259 358
1264 4 2 1 1 199 207 232 366
1265 4 2 1 1 339 316 304 366
1266 4 2 1 1 328 113 220 202
1267 4 2 1 1 311 335 305 368
1268 4 2 1 1 284 81 203 225
1269 4 2 1 1 305 149 70 329
1270 4 2 1 1 177 143 151 364
1271 4 2 1 1 328 309 301 365
1272 4 2 1 1 38 247 175 139
1273 4 2 1 1 150 64 326 157
1274 4 2 1 1 240 195 211 357
1275 4 2 1 1 222 325 116 211
1276 4 2 1 1 265 249 272 357
1277 4 2 1 1 55 159 142 332
1278 4 2 1 1 156 146 182 367
1279 4 2 1 1 33 151 279 258
1280 4 2 1 1 289 255 262 367
1281 4 2 1 1 186 158 141 357
1282 4 2 1 1 341 100 234 306
1283 4 2 1 1 271 227 95 282
1284 4 2 1 1 98 216 233 340
1285 4 2 1 1 196 227 215 368
1286 4 2 1 1 249 276 141 45
1287 4 2 1 1 258 250 284 364
1288 4 2 1 1 318 325 302 357
1289 4 2 1 1 338 104 212 319
1290 4 2 1 1 67 158 153 343
1291 4 2 1 1 264 88 226 260
1292 4 2 1 1 267 253 76 224
1293 4 2 1 1 254 278 266 355
1294 4 2 1 1 165 139 148 363
1295 4 2 1 1 320 54 142 332
1296 4 2 1 1 223 198 228 355
1297 4 2 1 1 53 314 320 147
1298 4 2 1 1 150 172 157 353
1299 4 2 1 1 210 226 202 353
1300 4 2 1 1 302 158 68 343
1301 4 2 1 1 220 194 204 365
1302 4 2 1 1 262 176 36 156
1303 4 2 1 1 319 332 303 355
1304 4 2 1 1 147 173 314 360
1305 4 2 1 1 234 101 341 330
1306 4 2 1 1 85 229 289 256
1307 4 2 1 1 203 231 212 356
1308 4 2 1 1 250 285 82 225
1309 4 2 1 1 339 106 199 304
1310 4 2 1 1 107 232 200 307
1311 4 2 1 1 81 284 250 225
1312 4 2 1 1 155 283 35 263
1313 4 2 1 1 155 34 171 263
1314 4 2 1 1 146 178 59 337
1315 4 2 1 1 200 342 108 307
1316 4 2 1 1 58 178 143 333
1317 4 2 1 1 333 58 178 316
1318 4 2 1 1 285 83 207 230
1319 4 2 1 1 83 285 255 230
1320 4 2 1 1 178 59 337 316
1321 4 2 1 1 259 209 93 272
1322 4 2 1 1 165 62 336 148
1323 4 2 1 1 337 60 182 315
1324 4 2 1 1 289 84 230 208
1325 4 2 1 1 206 76 253 224
1326 4 2 1 1 174 149 70 305
1327 4 2 1 1 141 149 169 358
1328 4 2 1 1 84 255 289 230
1329 4 2 1 1 207 82 285 225
1330 4 2 1 1 262 156 37 280
1331 4 2 1 1 290 249 265 357
1332 4 2 1 1 276 251 169 46
1333 4 2 1 1 309 328 114 204
1334 4 2 1 1 336 315 182 61
1335 4 2 1 1 60 182 146 337
1336 4 2 1 1 343 318 302 357
1337 4 2 1 1 61 182 336 148
1338 4 2 1 1 210 317 111 219
1339 4 2 1 1 79 254 266 223
1340 4 2 1 1 69 149 168 329
1341 4 2 1 1 229 289 208 85
1342 4 2 1 1 239 213 206 361
1343 4 2 1 1 110 327 308 201
1344 4 2 1 1 286 154 29 261
1345 4 2 1 1 152 147 180 360
1346 4 2 1 1 177 57 333 310
1347 4 2 1 1 139 157 167 362
1348 4 2 1 1 105 231 199 304
1349 4 2 1 1 256 86 229 274
1350 4 2 1 1 57 143 177 333
1351 4 2 1 1 301 312 328 365
1352 4 2 1 1 91 240 218 265
1353 4 2 1 1 291 258 266 356
1354 4 2 1 1 86 193 229 274
1355 4 2 1 1 261 253 286 361
1356 4 2 1 1 24 136 295 131
1357 4 2 1 1 12 127 350 124
1358 4 2 1 1 109 201 308 369
1359 4 2 1 1 326 345 64 150
1360 4 2 1 1 211 195 222 357
1361 4 2 1 1 327 317 300 362
1362 4 2 1 1 315 308 336 369
1363 4 2 1 1 276 259 249 358
1364 4 2 1 1 201 208 229 369
1365 4 2 1 1 216 244 350 97
1366 4 2 1 1 217 295 96 241
1367 4 2 1 1 173 51 331 145
1368 4 2 1 1 157 139 165 362
1369 4 2 1 1 176 146 156 367
1370 4 2 1 1 255 283 262 367
1371 4 2 1 1 236 118 311 196
1372 4 2 1 1 258 279 250 364
1373 4 2 1 1 187 160 269 48
1374 4 2 1 1 280 247 256 363
1375 4 2 1 1 238 203 212 356
1376 4 2 1 1 321 49 190 161
1377 4 2 1 1 151 143 171 364
1378 4 2 1 1 261 288 253 361
1379 4 2 1 1 175 148 139 363
1380 4 2 1 1 284 266 258 356
1381 4 2 1 1 329 168 69 302
1382 4 2 1 1 147 152 173 360
1383 4 2 1 1 152 27 179 252
1384 4 2 1 1 144 169 251 46
1385 4 2 1 1 286 28 180 277
1386 4 2 1 1 306 314 331 360
1387 4 2 1 1 341 314 306 360
1388 4 2 1 1 113 328 312 202
1389 4 2 1 1 172 41 292 140
1390 4 2 1 1 52 331 314 173
1391 4 2 1 1 31 170 291 278
1392 4 2 1 1 133 131 23 294
1393 4 2 1 1 281 248 42 183
1394 4 2 1 1 252 26 179 268
1395 4 2 1 1 335 311 118 196
1396 4 2 1 1 245 24 295 131
1397 4 2 1 1 299 12 350 124
1398 4 2 1 1 71 163 174 322
1399 4 2 1 1 162 179 26 268
1400 4 2 1 1 324 335 119 215
1401 4 2 1 1 305 71 174 322
1402 4 2 1 1 41 248 292 140
1403 4 2 1 1 140 42 248 183
1404 4 2 1 1 300 317 346 362
1405 4 2 1 1 188 125 9 137
1406 4 2 1 1 138 18 134 189
1407 4 2 1 1 14 191 244 127
1408 4 2 1 1 21 192 241 136
1409 4 2 1 1 215 335 119 196
1410 4 2 1 1 77 253 288 239
1411 4 2 1 1 214 287 74 205
1412 4 2 1 1 295 217 96 271
1413 4 2 1 1 97 350 216 323
1414 4 2 1 1 74 270 287 214
1415 4 2 1 1 51 313 331 145
1416 4 2 1 1 278 30 185 261
1417 4 2 1 1 167 40 273 172
1418 4 2 1 1 281 43 290 164
1419 4 2 1 1 32 184 258 291
1420 4 2 1 1 138 17 187 133
1421 4 2 1 1 137 10 190 126
1422 4 2 1 1 243 22 135 192
1423 4 2 1 1 13 128 242 191
1424 4 2 1 1 72 189 163 347
1425 4 2 1 1 324 120 348 243
1426 4 2 1 1 270 73 297 242
1427 4 2 1 1 25 296 188 162
1428 4 2 1 1 131 245 23 294
1429 4 2 1 1 39 293 139 167
1430 4 2 1 1 265 92 240 272
1431 4 2 1 1 147 52 314 173
1432 4 2 1 1 91 218 237 257
1433 4 2 1 1 152 180 28 277
1434 4 2 1 1 186 290 249 44
1435 4 2 1 1 195 240 92 272
1436 4 2 1 1 224 75 267 205
1437 4 2 1 1 252 152 27 277
1438 4 2 1 1 235 208 201 369
1439 4 2 1 1 17 138 130 133
1440 4 2 1 1 10 137 122 126
1441 4 2 1 1 129 135 22 192
1442 4 2 1 1 128 13 121 191
1443 4 2 1 1 308 315 342 369
1444 4 2 1 1 287 267 75 205
1445 4 2 1 1 65 345 166 150
1446 4 2 1 1 64 346 326 157
1447 4 2 1 1 266 79 223 238
1448 4 2 1 1 141 186 249 44
1449 4 2 1 1 266 284 80 238
1450 4 2 1 1 170 184 31 291
1451 4 2 1 1 137 125 9 122
1452 4 2 1 1 134 18 138 130
1453 4 2 1 1 192 21 129 136
1454 4 2 1 1 191 14 121 127
1455 4 2 1 1 275 90 237 257
1456 4 2 1 1 77 253 239 206
1457 4 2 1 1 65 345 301 166
1458 4 2 1 1 293 247 39 139
1459 4 2 1 1 254 79 228 223
1460 4 2 1 1 165 346 63 157
1461 4 2 1 1 151 32 184 258
1462 4 2 1 1 25 296 162 268
1463 4 2 1 1 243 324 120 215
1464 4 2 1 1 347 163 72 322
1465 4 2 1 1 242 270 73 214
1466 4 2 1 1 170 31 185 278
1467 4 2 1 1 30 154 185 261
1468 4 2 1 1 40 292 273 172
1469 4 2 1 1 203 80 284 238
1470 4 2 1 1 43 281 183 164
1471 4 2 1 1 237 194 90 275
1472 4 2 1 1 186 290 43 164
1473 4 2 1 1 40 273 293 167
1474 4 2 1 1 300 346 63 165
1475 4 2 1 1 288 254 78 228
1476 4 2 1 1 248 41 42 140
1477 4 2 1 1 239 288 78 228
1478 4 2 1 1 318 115 116 211
1479 4 2 1 1 104 103 212 319
1480 4 2 1 1 132 19 20 298
1481 4 2 1 1 245 23 24 131
1482 4 2 1 1 299 11 12 124
1483 4 2 1 1 15 16 123 246
1484 4 2 1 1 22 21 129 192
1485 4 2 1 1 121 13 14 191
1486 4 2 1 1 18 17 138 130
1487 4 2 1 1 137 9 10 122
1488 4 2 1 1 309 114 115 204
1489 4 2 1 1 312 112 113 202
1490 4 2 1 1 44 249 141 45
1491 4 2 1 1 46 251 144 47
1492 4 2 1 1 254 79 78 228
1493 4 2 1 1 100 99 197 306
1494 4 2 1 1 136 241 8 295
1495 4 2 1 1 127 244 3 350
1496 4 2 1 1 301 66 65 166
1497 4 2 1 1 89 90 194 275
1498 4 2 1 1 50 313 51 145
1499 4 2 1 1 55 142 54 332
1500 4 2 1 1 38 39 247 139
1501 4 2 1 1 317 111 112 210
1502 4 2 1 1 102 101 213 330
1503 4 2 1 1 151 33 32 258
1504 4 2 1 1 88 89 226 260
1505 4 2 1 1 67 68 158 343
1506 4 2 1 1 253 77 76 206
1507 4 2 1 1 5 134 189 347
1508 4 2 1 1 2 296 125 188
1509 4 2 1 1 135 348 7 243
1510 4 2 1 1 128 297 4 242
1511 4 2 1 1 69 70 149 329
1512 4 2 1 1 92 93 195 272
1513 4 2 1 1 179 27 26 252
1514 4 2 1 1 30 29 154 261
1515 4 2 1 1 91 92 240 265
1516 4 2 1 1 109 110 308 201
1517 4 2 1 1 55 56 159 344
1518 4 2 1 1 94 95 227 282
1519 4 2 1 1 233 99 98 340
1520 4 2 1 1 300 63 62 165
1521 4 2 1 1 287 75 74 205
1522 4 2 1 1 93 94 209 259
1523 4 2 1 1 156 37 36 262
1524 4 2 1 1 335 118 119 196
1525 4 2 1 1 174 70 71 305
1526 4 2 1 1 314 53 52 147
1527 4 2 1 1 6 187 133 294
1528 4 2 1 1 190 1 349 126
1529 4 2 1 1 81 80 284 203
1530 4 2 1 1 31 30 185 278
1531 4 2 1 1 106 105 199 304
1532 4 2 1 1 108 107 200 307
1533 4 2 1 1 155 35 34 263
1534 4 2 1 1 47 269 160 48
1535 4 2 1 1 49 321 50 161
1536 4 2 1 1 103 102 198 303
1537 4 2 1 1 334 66 153 67
1538 4 2 1 1 87 88 221 264
1539 4 2 1 1 95 96 217 271
1540 4 2 1 1 98 97 216 323
1541 4 2 1 1 40 41 292 172
1542 4 2 1 1 345 65 64 150
1543 4 2 1 1 162 26 25 268
1544 4 2 1 1 90 91 237 257
1545 4 2 1 1 324 119 120 215
1546 4 2 1 1 71 72 163 322
1547 4 2 1 1 270 74 73 214
1548 4 2 1 1 267 76 75 224
1549 4 2 1 1 229 85 86 256
1550 4 2 1 1 136 8 24 295
1551 4 2 1 1 7 20 348 135
1552 4 2 1 1 4 16 297 128
1553 4 2 1 1 127 3 12 350
1554 4 2 1 1 43 290 186 44
1555 4 2 1 1 311 117 118 236
1556 4 2 1 1 315 60 182 61
1557 4 2 1 1 18 5 134 189
1558 4 2 1 1 125 9 2 188
1559 4 2 1 1 8 21 241 136
1560 4 2 1 1 3 14 244 127
1561 4 2 1 1 346 64 63 157
1562 4 2 1 1 56 57 177 310
1563 4 2 1 1 133 23 6 294
1564 4 2 1 1 1 11 349 126
1565 4 2 1 1 134 5 19 347
1566 4 2 1 1 296 15 2 125
1567 4 2 1 1 57 58 143 333
1568 4 2 1 1 83 82 285 207
1569 4 2 1 1 58 59 178 316
1570 4 2 1 1 84 83 255 230
1571 4 2 1 1 250 82 81 225
1572 4 2 1 1 59 60 146 337
1573 4 2 1 1 328 113 114 220
1574 4 2 1 1 152 28 27 277
1575 4 2 1 1 190 10 1 126
1576 4 2 1 1 17 6 187 133
1577 4 2 1 1 68 69 168 302
1578 4 2 1 1 135 7 22 243
1579 4 2 1 1 128 4 13 242
1580 4 2 1 1 193 86 87 274
1581 4 2 1 1 289 84 208 85
1582 4 2 1 1 350 244 3 97
1583 4 2 1 1 295 241 8 96
1584 4 2 1 1 336 62 61 148
1585 4 2 1 1 53 320 54 181
1586 4 2 1 1 77 288 78 239
1587 4 2 1 1 184 32 31 291
1588 4 2 1 1 117 325 116 222
1589 4 2 1 1 281 42 43 183
1590 4 2 1 1 45 276 169 46
1591 4 2 1 1 2 25 296 188
1592 4 2 1 1 297 73 4 242
1593 4 2 1 1 5 189 72 347
1594 4 2 1 1 348 120 7 243
1595 4 2 1 1 331 52 51 173
1596 4 2 1 1 39 40 293 167
1597 4 2 1 1 101 100 234 341
1598 4 2 1 1 231 105 104 338
1599 4 2 1 1 79 266 80 238
1600 4 2 1 1 29 28 180 286
1601 4 2 1 1 232 107 106 339
1602 4 2 1 1 171 34 33 279
1603 4 2 1 1 176 36 35 283
1604 4 2 1 1 110 111 327 219
1605 4 2 1 1 109 342 108 235
1606 4 2 1 1 1 349 49 190
1607 4 2 1 1 6 187 294 48
1608 4 2 1 1 37 38 280 175
1609 4 2 1 1 361 142 320 181
1610 4 2 1 1 361 320 142 355
1611 4 2 1 1 361 185 142 154
1612 4 2 1 1 361 142 185 355
1613 4 2 1 1 218 357 265 240
1614 4 2 1 1 265 357 218 354
1615 4 2 1 1 357 164 290 186
1616 4 2 1 1 357 290 164 354
1617 4 2 1 1 356 170 291 184
1618 4 2 1 1 356 291 170 355
1619 4 2 1 1 362 273 167 293
1620 4 2 1 1 362 167 273 353
1621 4 2 1 1 368 163 160 351
1622 4 2 1 1 368 160 163 174
1623 4 2 1 1 191 128 352 121
1624 4 2 1 1 191 352 128 242
1625 4 2 1 1 192 135 351 129
1626 4 2 1 1 192 351 135 243
1627 4 2 1 1 126 137 352 190
1628 4 2 1 1 126 352 137 122
1629 4 2 1 1 133 138 351 187
1630 4 2 1 1 133 351 138 130
1631 4 2 1 1 145 360 331 173
1632 4 2 1 1 360 313 145 331
1633 4 2 1 1 360 145 313 359
1634 4 2 1 1 131 294 351 245
1635 4 2 1 1 351 294 131 133
1636 4 2 1 1 298 134 19 347
1637 4 2 1 1 298 19 134 132
1638 4 2 1 1 246 125 15 296
1639 4 2 1 1 246 15 125 123
1640 4 2 1 1 126 299 11 349
1641 4 2 1 1 126 11 299 124
1642 4 2 1 1 310 159 56 344
1643 4 2 1 1 310 56 159 177
1644 4 2 1 1 303 213 102 198
1645 4 2 1 1 102 213 303 330
1646 4 2 1 1 193 264 87 221
1647 4 2 1 1 87 264 193 274
1648 4 2 1 1 311 222 117 236
1649 4 2 1 1 117 222 311 325
1650 4 2 1 1 128 246 16 297
1651 4 2 1 1 128 16 246 123
1652 4 2 1 1 350 124 352 299
1653 4 2 1 1 352 124 350 127
1654 4 2 1 1 135 298 20 348
1655 4 2 1 1 135 20 298 132
1656 4 2 1 1 295 131 351 245
1657 4 2 1 1 351 131 295 136
1658 4 2 1 1 330 234 361 341
1659 4 2 1 1 330 361 234 213
$EndElements
