$MeshFormat
2.2 0 8
$EndMeshFormat
$PhysicalNames
3
2 2 "clamp-face"
2 3 "tip-face"
3 1 "solid"
$EndPhysicalNames
$Nodes
100
1 0 0 0.05
2 0 0 0
3 0 0.05 0.05
4 0 0.05 0
5 0.4 0 0.05
6 0.4 0 0
7 0.4 0.05 0.05
8 0.4 0.05 0
9 0 0 0.02500000000000004
10 0 0.02500000000000004 0.05
11 0 0.05 0.02500000000000004
12 0 0.02500000000000004 0
13 0.4 0 0.02500000000000004
14 0.4 0.02500000000000004 0.05
15 0.4 0.05 0.02500000000000004
16 0.4 0.02500000000000004 0
17 0.04000000000000004 0 0
18 0.0800000000000001 0 0
19 0.1200000000000002 0 0
20 0.1600000000000003 0 0
21 0.2000000000000003 0 0
22 0.2400000000000003 0 0
23 0.2800000000000003 0 0
24 0.3200000000000003 0 0
25 0.3600000000000002 0 0
26 0.04000000000000004 0 0.05
27 0.0800000000000001 0 0.05
28 0.1200000000000002 0 0.05
29 0.1600000000000003 0 0.05
30 0.2000000000000003 0 0.05
31 0.2400000000000003 0 0.05
32 0.2800000000000003 0 0.05
33 0.3200000000000003 0 0.05
34 0.3600000000000002 0 0.05
35 0.04000000000000004 0.05 0
36 0.0800000000000001 0.05 0
37 0.1200000000000002 0.05 0
38 0.1600000000000003 0.05 0
39 0.2000000000000003 0.05 0
40 0.2400000000000003 0.05 0
41 0.2800000000000003 0.05 0
42 0.3200000000000003 0.05 0
43 0.3600000000000002 0.05 0
44 0.04000000000000004 0.05 0.05
45 0.0800000000000001 0.05 0.05
46 0.1200000000000002 0.05 0.05
47 0.1600000000000003 0.05 0.05
48 0.2000000000000003 0.05 0.05
49 0.2400000000000003 0.05 0.05
50 0.2800000000000003 0.05 0.05
51 0.3200000000000003 0.05 0.05
52 0.3600000000000002 0.05 0.05
53 0 0.01306942419825075 0.01306942419825075
54 0 0.01875 0.03125000000000002
55 0 0.0321261540330418 0.01754282069970847
56 0 0.0359375 0.0359375
57 0.4 0.01306942419825075 0.01306942419825075
58 0.4 0.01875 0.03125000000000002
59 0.4 0.0321261540330418 0.01754282069970847
60 0.4 0.0359375 0.0359375
61 0.3400000000000004 0 0.025
62 0.3000000000000004 0 0.025
63 0.2200000000000003 0 0.025
64 0.1800000000000003 0 0.025
65 0.1400000000000003 0 0.025
66 0.2600000000000002 0 0.025
67 0.1000000000000001 0 0.025
68 0.06000000000000006 0 0.025
69 0.3753869047619049 0 0.02499999999999999
70 0.02461309523809525 0 0.02500000000000001
71 0.3400000000000004 0.05 0.025
72 0.3000000000000004 0.05 0.025
73 0.2200000000000003 0.05 0.025
74 0.1800000000000003 0.05 0.025
75 0.1400000000000003 0.05 0.025
76 0.1000000000000001 0.05 0.025
77 0.2600000000000002 0.05 0.025
78 0.06000000000000006 0.05 0.025
79 0.3753869047619049 0.05 0.02499999999999999
80 0.02461309523809525 0.05 0.02500000000000001
81 0.3400000000000004 0.02500000000000006 0
82 0.2600000000000002 0.02500000000000002 0
83 0.2200000000000003 0.02500000000000001 0
84 0.3000000000000003 0.02500000000000001 0
85 0.1800000000000003 0.025 0
86 0.1400000000000003 0.025 0
87 0.1000000000000001 0.025 0
88 0.06000000000000006 0.025 0
89 0.3753869047619048 0.02500000000000001 0
90 0.02461309523809525 0.02500000000000001 0
91 0.3400000000000004 0.025 0.05
92 0.2600000000000002 0.02500000000000002 0.05
93 0.2200000000000003 0.02499999999999999 0.05
94 0.3000000000000003 0.02500000000000001 0.05
95 0.1800000000000003 0.025 0.05
96 0.1400000000000002 0.025 0.05
97 0.1000000000000001 0.025 0.05
98 0.06000000000000006 0.025 0.05
99 0.3753869047619048 0.025 0.05
100 0.02461309523809525 0.02500000000000001 0.05
$EndNodes
$Elements
405
1 2 2 2 1 9 1 54
2 2 2 2 1 1 10 54
3 2 2 2 1 2 9 53
4 2 2 2 1 12 2 53
5 2 2 2 1 10 3 56
6 2 2 2 1 3 11 56
7 2 2 2 1 11 4 55
8 2 2 2 1 4 12 55
9 2 2 2 1 53 9 54
10 2 2 2 1 54 10 56
11 2 2 2 1 11 55 56
12 2 2 2 1 12 53 55
13 2 2 2 1 53 54 55
14 2 2 2 1 55 54 56
15 2 2 3 2 13 58 5
16 2 2 3 2 5 58 14
17 2 2 3 2 6 57 13
18 2 2 3 2 16 57 6
19 2 2 3 2 14 60 7
20 2 2 3 2 7 60 15
21 2 2 3 2 15 59 8
22 2 2 3 2 8 59 16
23 2 2 3 2 57 58 13
24 2 2 3 2 58 60 14
25 2 2 3 2 15 60 59
26 2 2 3 2 16 59 57
27 2 2 3 2 57 59 58
28 2 2 3 2 59 60 58
29 2 2 4 3 1 9 70
30 2 2 4 3 26 1 70
31 2 2 4 3 9 2 70
32 2 2 4 3 2 17 70
33 2 2 4 3 13 5 69
34 2 2 4 3 5 34 69
35 2 2 4 3 6 13 69
36 2 2 4 3 25 6 69
37 2 2 4 3 17 18 68
38 2 2 4 3 17 68 70
39 2 2 4 3 18 19 67
40 2 2 4 3 18 67 68
41 2 2 4 3 19 20 65
42 2 2 4 3 19 65 67
43 2 2 4 3 20 21 64
44 2 2 4 3 20 64 65
45 2 2 4 3 21 22 63
46 2 2 4 3 21 63 64
47 2 2 4 3 22 23 66
48 2 2 4 3 63 22 66
49 2 2 4 3 23 24 62
50 2 2 4 3 23 62 66
51 2 2 4 3 24 25 61
52 2 2 4 3 24 61 62
53 2 2 4 3 61 25 69
54 2 2 4 3 27 26 68
55 2 2 4 3 68 26 70
56 2 2 4 3 28 27 67
57 2 2 4 3 67 27 68
58 2 2 4 3 29 28 65
59 2 2 4 3 65 28 67
60 2 2 4 3 30 29 64
61 2 2 4 3 64 29 65
62 2 2 4 3 31 30 63
63 2 2 4 3 63 30 64
64 2 2 4 3 32 31 66
65 2 2 4 3 31 63 66
66 2 2 4 3 33 32 62
67 2 2 4 3 62 32 66
68 2 2 4 3 34 33 61
69 2 2 4 3 61 33 62
70 2 2 4 3 34 61 69
71 2 2 5 4 3 80 11
72 2 2 5 4 44 80 3
73 2 2 5 4 11 80 4
74 2 2 5 4 4 80 35
75 2 2 5 4 15 79 7
76 2 2 5 4 7 79 52
77 2 2 5 4 8 79 15
78 2 2 5 4 43 79 8
79 2 2 5 4 35 78 36
80 2 2 5 4 35 80 78
81 2 2 5 4 36 76 37
82 2 2 5 4 36 78 76
83 2 2 5 4 37 75 38
84 2 2 5 4 37 76 75
85 2 2 5 4 38 74 39
86 2 2 5 4 38 75 74
87 2 2 5 4 39 73 40
88 2 2 5 4 39 74 73
89 2 2 5 4 40 77 41
90 2 2 5 4 73 77 40
91 2 2 5 4 41 72 42
92 2 2 5 4 41 77 72
93 2 2 5 4 42 71 43
94 2 2 5 4 42 72 71
95 2 2 5 4 71 79 43
96 2 2 5 4 45 78 44
97 2 2 5 4 78 80 44
98 2 2 5 4 46 76 45
99 2 2 5 4 76 78 45
100 2 2 5 4 47 75 46
101 2 2 5 4 75 76 46
102 2 2 5 4 48 74 47
103 2 2 5 4 74 75 47
104 2 2 5 4 49 73 48
105 2 2 5 4 73 74 48
106 2 2 5 4 50 77 49
107 2 2 5 4 49 77 73
108 2 2 5 4 51 72 50
109 2 2 5 4 72 77 50
110 2 2 5 4 52 71 51
111 2 2 5 4 71 72 51
112 2 2 5 4 52 79 71
113 2 2 6 5 2 12 90
114 2 2 6 5 17 2 90
115 2 2 6 5 12 4 90
116 2 2 6 5 4 35 90
117 2 2 6 5 16 6 89
118 2 2 6 5 6 25 89
119 2 2 6 5 8 16 89
120 2 2 6 5 43 8 89
121 2 2 6 5 18 17 88
122 2 2 6 5 88 17 90
123 2 2 6 5 19 18 87
124 2 2 6 5 87 18 88
125 2 2 6 5 20 19 86
126 2 2 6 5 86 19 87
127 2 2 6 5 21 20 85
128 2 2 6 5 85 20 86
129 2 2 6 5 22 21 83
130 2 2 6 5 83 21 85
131 2 2 6 5 23 22 82
132 2 2 6 5 82 22 83
133 2 2 6 5 24 23 84
134 2 2 6 5 23 82 84
135 2 2 6 5 25 24 81
136 2 2 6 5 81 24 84
137 2 2 6 5 25 81 89
138 2 2 6 5 35 36 88
139 2 2 6 5 35 88 90
140 2 2 6 5 36 37 87
141 2 2 6 5 36 87 88
142 2 2 6 5 37 38 86
143 2 2 6 5 37 86 87
144 2 2 6 5 38 39 85
145 2 2 6 5 38 85 86
146 2 2 6 5 39 40 83
147 2 2 6 5 39 83 85
148 2 2 6 5 40 41 82
149 2 2 6 5 40 82 83
150 2 2 6 5 41 42 84
151 2 2 6 5 82 41 84
152 2 2 6 5 42 43 81
153 2 2 6 5 42 81 84
154 2 2 6 5 81 43 89
155 2 2 7 6 1 100 10
156 2 2 7 6 26 100 1
157 2 2 7 6 10 100 3
158 2 2 7 6 3 100 44
159 2 2 7 6 14 99 5
160 2 2 7 6 5 99 34
161 2 2 7 6 7 99 14
162 2 2 7 6 52 99 7
163 2 2 7 6 27 98 26
164 2 2 7 6 98 100 26
165 2 2 7 6 28 97 27
166 2 2 7 6 97 98 27
167 2 2 7 6 29 96 28
168 2 2 7 6 96 97 28
169 2 2 7 6 30 95 29
170 2 2 7 6 95 96 29
171 2 2 7 6 31 93 30
172 2 2 7 6 93 95 30
173 2 2 7 6 32 92 31
174 2 2 7 6 92 93 31
175 2 2 7 6 33 94 32
176 2 2 7 6 32 94 92
177 2 2 7 6 34 91 33
178 2 2 7 6 91 94 33
179 2 2 7 6 34 99 91
180 2 2 7 6 44 98 45
181 2 2 7 6 44 100 98
182 2 2 7 6 45 97 46
183 2 2 7 6 45 98 97
184 2 2 7 6 46 96 47
185 2 2 7 6 46 97 96
186 2 2 7 6 47 95 48
187 2 2 7 6 47 96 95
188 2 2 7 6 48 93 49
189 2 2 7 6 48 95 93
190 2 2 7 6 49 92 50
191 2 2 7 6 49 93 92
192 2 2 7 6 50 94 51
193 2 2 7 6 92 94 50
194 2 2 7 6 51 91 52
195 2 2 7 6 51 94 91
196 2 2 7 6 91 99 52
197 4 2 1 1 81 89 79 69
198 4 2 1 1 79 99 91 69
199 4 2 1 1 80 70 90 78
200 4 2 1 1 78 80 70 100
201 4 2 1 1 58 60 59 79
202 4 2 1 1 56 55 80 54
203 4 2 1 1 91 61 79 69
204 4 2 1 1 81 79 61 69
205 4 2 1 1 70 78 100 98
206 4 2 1 1 88 90 70 78
207 4 2 1 1 89 59 58 57
208 4 2 1 1 53 90 55 54
209 4 2 1 1 79 59 58 89
210 4 2 1 1 90 80 55 54
211 4 2 1 1 83 73 64 63
212 4 2 1 1 73 93 95 63
213 4 2 1 1 71 61 91 84
214 4 2 1 1 91 94 71 84
215 4 2 1 1 94 91 61 84
216 4 2 1 1 72 71 94 84
217 4 2 1 1 95 64 73 63
218 4 2 1 1 95 64 74 73
219 4 2 1 1 84 71 61 81
220 4 2 1 1 73 64 85 83
221 4 2 1 1 84 61 94 62
222 4 2 1 1 96 75 65 97
223 4 2 1 1 85 74 64 73
224 4 2 1 1 96 65 74 95
225 4 2 1 1 78 88 87 68
226 4 2 1 1 64 74 65 95
227 4 2 1 1 78 97 98 68
228 4 2 1 1 97 87 65 67
229 4 2 1 1 74 64 65 85
230 4 2 1 1 97 78 87 68
231 4 2 1 1 65 85 86 74
232 4 2 1 1 86 87 65 75
233 4 2 1 1 75 87 65 97
234 4 2 1 1 66 73 83 63
235 4 2 1 1 75 76 87 97
236 4 2 1 1 73 66 93 63
237 4 2 1 1 74 75 65 96
238 4 2 1 1 75 65 86 74
239 4 2 1 1 68 87 97 67
240 4 2 1 1 78 87 76 97
241 4 2 1 1 66 73 82 83
242 4 2 1 1 66 77 84 82
243 4 2 1 1 77 66 93 73
244 4 2 1 1 77 94 66 84
245 4 2 1 1 92 94 66 77
246 4 2 1 1 73 77 66 82
247 4 2 1 1 94 77 72 84
248 4 2 1 1 84 94 66 62
249 4 2 1 1 92 66 93 77
250 4 2 1 1 91 61 71 79
251 4 2 1 1 61 71 79 81
252 4 2 1 1 98 70 78 68
253 4 2 1 1 70 88 78 68
254 4 2 1 1 60 58 99 79
255 4 2 1 1 100 56 80 54
256 4 2 1 1 79 58 99 69
257 4 2 1 1 58 79 89 69
258 4 2 1 1 80 90 70 54
259 4 2 1 1 100 80 70 54
260 4 2 1 1 58 89 57 69
261 4 2 1 1 90 53 70 54
262 4 2 1 1 71 72 42 84
263 4 2 1 1 94 92 50 77
264 4 2 1 1 61 84 81 24
265 4 2 1 1 61 94 33 91
266 4 2 1 1 84 42 71 81
267 4 2 1 1 65 96 97 28
268 4 2 1 1 91 94 51 71
269 4 2 1 1 85 39 73 83
270 4 2 1 1 64 21 83 63
271 4 2 1 1 76 75 46 97
272 4 2 1 1 74 47 96 95
273 4 2 1 1 94 32 66 62
274 4 2 1 1 95 93 30 63
275 4 2 1 1 84 61 62 24
276 4 2 1 1 67 65 97 28
277 4 2 1 1 48 93 95 73
278 4 2 1 1 96 46 75 97
279 4 2 1 1 18 87 68 67
280 4 2 1 1 87 65 19 86
281 4 2 1 1 76 36 87 78
282 4 2 1 1 87 19 65 67
283 4 2 1 1 84 77 41 82
284 4 2 1 1 75 74 47 96
285 4 2 1 1 85 65 20 64
286 4 2 1 1 76 87 37 75
287 4 2 1 1 36 88 87 78
288 4 2 1 1 87 86 37 75
289 4 2 1 1 94 66 32 92
290 4 2 1 1 30 64 95 63
291 4 2 1 1 85 39 74 73
292 4 2 1 1 50 94 77 72
293 4 2 1 1 48 95 74 73
294 4 2 1 1 82 84 66 23
295 4 2 1 1 18 87 88 68
296 4 2 1 1 38 86 85 74
297 4 2 1 1 65 96 29 95
298 4 2 1 1 27 98 97 68
299 4 2 1 1 64 21 85 83
300 4 2 1 1 97 45 78 98
301 4 2 1 1 97 27 68 67
302 4 2 1 1 45 78 76 97
303 4 2 1 1 29 64 65 95
304 4 2 1 1 94 61 33 62
305 4 2 1 1 86 38 75 74
306 4 2 1 1 41 72 77 84
307 4 2 1 1 71 94 51 72
308 4 2 1 1 23 84 66 62
309 4 2 1 1 20 65 85 86
310 4 2 1 1 73 40 82 83
311 4 2 1 1 93 49 77 73
312 4 2 1 1 66 31 93 63
313 4 2 1 1 66 83 22 63
314 4 2 1 1 77 73 40 82
315 4 2 1 1 83 66 22 82
316 4 2 1 1 66 93 31 92
317 4 2 1 1 49 92 93 77
318 4 2 1 1 69 81 89 25
319 4 2 1 1 34 91 99 69
320 4 2 1 1 90 70 17 88
321 4 2 1 1 52 99 91 79
322 4 2 1 1 98 100 70 26
323 4 2 1 1 80 90 35 78
324 4 2 1 1 80 78 44 100
325 4 2 1 1 79 43 89 81
326 4 2 1 1 100 78 44 98
327 4 2 1 1 88 70 17 68
328 4 2 1 1 70 98 26 68
329 4 2 1 1 90 88 35 78
330 4 2 1 1 91 34 61 69
331 4 2 1 1 61 81 69 25
332 4 2 1 1 71 52 91 79
333 4 2 1 1 43 79 71 81
334 4 2 1 1 57 89 6 69
335 4 2 1 1 53 70 2 90
336 4 2 1 1 99 7 60 79
337 4 2 1 1 56 80 3 100
338 4 2 1 1 89 16 59 57
339 4 2 1 1 90 12 53 55
340 4 2 1 1 60 59 79 15
341 4 2 1 1 55 80 11 56
342 4 2 1 1 53 9 70 54
343 4 2 1 1 13 58 57 69
344 4 2 1 1 99 14 58 60
345 4 2 1 1 100 10 56 54
346 4 2 1 1 8 59 79 89
347 4 2 1 1 80 4 90 55
348 4 2 1 1 99 58 5 69
349 4 2 1 1 100 70 1 54
350 4 2 1 1 14 58 5 99
351 4 2 1 1 13 5 58 69
352 4 2 1 1 70 9 1 54
353 4 2 1 1 100 1 10 54
354 4 2 1 1 7 14 99 60
355 4 2 1 1 7 60 79 15
356 4 2 1 1 56 3 10 100
357 4 2 1 1 3 11 80 56
358 4 2 1 1 6 16 89 57
359 4 2 1 1 13 57 6 69
360 4 2 1 1 53 2 12 90
361 4 2 1 1 2 9 70 53
362 4 2 1 1 79 59 8 15
363 4 2 1 1 80 11 4 55
364 4 2 1 1 59 8 16 89
365 4 2 1 1 4 12 90 55
366 4 2 1 1 89 6 69 25
367 4 2 1 1 5 34 99 69
368 4 2 1 1 7 99 52 79
369 4 2 1 1 43 8 79 89
370 4 2 1 1 100 1 70 26
371 4 2 1 1 70 17 2 90
372 4 2 1 1 4 90 35 80
373 4 2 1 1 44 3 80 100
374 4 2 1 1 93 31 30 63
375 4 2 1 1 48 49 93 73
376 4 2 1 1 40 73 39 83
377 4 2 1 1 22 83 21 63
378 4 2 1 1 40 41 77 82
379 4 2 1 1 23 66 82 22
380 4 2 1 1 33 34 61 91
381 4 2 1 1 25 61 81 24
382 4 2 1 1 46 45 76 97
383 4 2 1 1 87 37 36 76
384 4 2 1 1 97 27 67 28
385 4 2 1 1 91 51 52 71
386 4 2 1 1 45 44 78 98
387 4 2 1 1 87 18 19 67
388 4 2 1 1 98 27 26 68
389 4 2 1 1 95 29 64 30
390 4 2 1 1 74 47 95 48
391 4 2 1 1 88 36 35 78
392 4 2 1 1 47 46 75 96
393 4 2 1 1 65 96 28 29
394 4 2 1 1 65 20 19 86
395 4 2 1 1 17 18 88 68
396 4 2 1 1 66 31 32 92
397 4 2 1 1 62 23 84 24
398 4 2 1 1 42 43 71 81
399 4 2 1 1 94 33 32 62
400 4 2 1 1 20 21 85 64
401 4 2 1 1 38 85 39 74
402 4 2 1 1 94 50 51 72
403 4 2 1 1 86 38 37 75
404 4 2 1 1 92 49 50 77
405 4 2 1 1 41 42 72 84
$EndElements
