$MeshFormat
4.1 0 8
$EndMeshFormat
$PhysicalNames
4
2 3 "left"
2 4 "right"
3 1 "material_body_a"
3 2 "material_body_b"
$EndPhysicalNames
$Entities
16 24 12 2
1 0 0 0.05 0 
2 0 0 0 0 
3 0 0.1 0.05 0 
4 0 0.1 0 0 
5 0.3 0 0.05 0 
6 0.3 0 0 0 
7 0.3 0.1 0.05 0 
8 0.3 0.1 0 0 
9 0.3 0 0.05 0 
10 0.3 0 0 0 
11 0.3 0.1 0.05 0 
12 0.3 0.1 0 0 
13 0.6 0 0.05 0 
14 0.6 0 0 0 
15 0.6 0.1 0.05 0 
16 0.6 0.1 0 0 
1 -1e-07 -1e-07 -9.999999999940612e-08 1e-07 1e-07 0.05000010000000001 0 2 2 -1 
2 -1e-07 -1.000000000028756e-07 0.0499999 1e-07 0.1000001 0.05000010000000001 0 2 1 -3 
3 -1e-07 0.0999999 -9.999999999940612e-08 1e-07 0.1000001 0.05000010000000001 0 2 4 -3 
4 -1e-07 -1.000000000028756e-07 -1e-07 1e-07 0.1000001 1e-07 0 2 2 -4 
5 0.2999999 -1e-07 -9.999999999940612e-08 0.3000001 1e-07 0.05000010000000001 0 2 6 -5 
6 0.2999999 -1.000000000028756e-07 0.0499999 0.3000001 0.1000001 0.05000010000000001 0 2 5 -7 
7 0.2999999 0.0999999 -9.999999999940612e-08 0.3000001 0.1000001 0.05000010000000001 0 2 8 -7 
8 0.2999999 -1.000000000028756e-07 -1e-07 0.3000001 0.1000001 1e-07 0 2 6 -8 
9 -1.000000000028756e-07 -1e-07 -1e-07 0.3000001 1e-07 1e-07 0 2 2 -6 
10 -1.000000000028756e-07 -1e-07 0.0499999 0.3000001 1e-07 0.05000010000000001 0 2 1 -5 
11 -1.000000000028756e-07 0.0999999 -1e-07 0.3000001 0.1000001 1e-07 0 2 4 -8 
12 -1.000000000028756e-07 0.0999999 0.0499999 0.3000001 0.1000001 0.05000010000000001 0 2 3 -7 
13 0.2999999 -1e-07 -9.999999999940612e-08 0.3000001 1e-07 0.05000010000000001 0 2 10 -9 
14 0.2999999 -1.000000000028756e-07 0.0499999 0.3000001 0.1000001 0.05000010000000001 0 2 9 -11 
15 0.2999999 0.0999999 -9.999999999940612e-08 0.3000001 0.1000001 0.05000010000000001 0 2 12 -11 
16 0.2999999 -1.000000000028756e-07 -1e-07 0.3000001 0.1000001 1e-07 0 2 10 -12 
17 0.5999999 -1e-07 -9.999999999940612e-08 0.6000000999999999 1e-07 0.05000010000000001 0 2 14 -13 
18 0.5999999 -1.000000000028756e-07 0.0499999 0.6000000999999999 0.1000001 0.05000010000000001 0 2 13 -15 
19 0.5999999 0.0999999 -9.999999999940612e-08 0.6000000999999999 0.1000001 0.05000010000000001 0 2 16 -15 
20 0.5999999 -1.000000000028756e-07 -1e-07 0.6000000999999999 0.1000001 1e-07 0 2 14 -16 
21 0.2999999 -1e-07 -1e-07 0.6000000999999999 1e-07 1e-07 0 2 10 -14 
22 0.2999999 -1e-07 0.0499999 0.6000000999999999 1e-07 0.05000010000000001 0 2 9 -13 
23 0.2999999 0.0999999 -1e-07 0.6000000999999999 0.1000001 1e-07 0 2 12 -16 
24 0.2999999 0.0999999 0.0499999 0.6000000999999999 0.1000001 0.05000010000000001 0 2 11 -15 
1 -1e-07 -1.000000000028756e-07 -9.999999999940612e-08 1e-07 0.1000001 0.05000010000000001 1 3 4 -1 4 3 -2 
2 0.2999999 -1.000000000028756e-07 -9.999999999940612e-08 0.3000001 0.1000001 0.05000010000000001 0 4 -5 8 7 -6 
3 -1.000000000028756e-07 -1e-07 -9.999999999940612e-08 0.3000001 1e-07 0.05000010000000001 0 4 -9 1 10 -5 
4 -1.000000000028756e-07 0.0999999 -9.999999999940612e-08 0.3000001 0.1000001 0.05000010000000001 0 4 -11 3 12 -7 
5 -1.000000000028756e-07 -1.000000000028756e-07 -1e-07 0.3000001 0.1000001 1e-07 0 4 -4 9 8 -11 
6 -1.000000000028756e-07 -1.000000000028756e-07 0.0499999 0.3000001 0.1000001 0.05000010000000001 0 4 -2 10 6 -12 
7 0.2999999 -1.000000000028756e-07 -9.999999999940612e-08 0.3000001 0.1000001 0.05000010000000001 0 4 -13 16 15 -14 
8 0.5999999 -1.000000000028756e-07 -9.999999999940612e-08 0.6000000999999999 0.1000001 0.05000010000000001 1 4 4 -17 20 19 -18 
9 0.2999999 -1e-07 -9.999999999940612e-08 0.6000000999999999 1e-07 0.05000010000000001 0 4 -21 13 22 -17 
10 0.2999999 0.0999999 -9.999999999940612e-08 0.6000000999999999 0.1000001 0.05000010000000001 0 4 -23 15 24 -19 
11 0.2999999 -1.000000000028756e-07 -1e-07 0.6000000999999999 0.1000001 1e-07 0 4 -16 21 20 -23 
12 0.2999999 -1.000000000028756e-07 0.0499999 0.6000000999999999 0.1000001 0.05000010000000001 0 4 -14 22 18 -24 
1 -1.000000000028756e-07 -1.000000000028756e-07 -9.999999999940612e-08 0.3000001 0.1000001 0.05000010000000001 1 1 6 -1 2 -3 4 -5 6 
2 0.2999999 -1.000000000028756e-07 -9.999999999940612e-08 0.6000000999999999 0.1000001 0.05000010000000001 1 2 6 -7 8 -9 10 -11 12 
$EndEntities
$Nodes
54 212 1 212
0 1 0 1
1
0 0 0.05
0 2 0 1
2
0 0 0
0 3 0 1
3
0 0.1 0.05
0 4 0 1
4
0 0.1 0
0 5 0 1
5
0.3 0 0.05
0 6 0 1
6
0.3 0 0
0 7 0 1
7
0.3 0.1 0.05
0 8 0 1
8
0.3 0.1 0
0 9 0 1
9
0.3 0 0.05
0 10 0 1
10
0.3 0 0
0 11 0 1
11
0.3 0.1 0.05
0 12 0 1
12
0.3 0.1 0
0 13 0 1
13
0.6 0 0.05
0 14 0 1
14
0.6 0 0
0 15 0 1
15
0.6 0.1 0.05
0 16 0 1
16
0.6 0.1 0
1 1 0 1
17
0 0 0.02500000000000004
1 2 0 2
18
19
0 0.03333333333333339 0.05
0 0.06666666666666675 0.05
1 3 0 1
20
0 0.1 0.02500000000000004
1 4 0 2
21
22
0 0.03333333333333339 0
0 0.06666666666666675 0
1 5 0 1
23
0.3 0 0.02500000000000004
1 6 0 2
24
25
0.3 0.03333333333333339 0.05
0.3 0.06666666666666675 0.05
1 7 0 1
26
0.3 0.1 0.02500000000000004
1 8 0 2
27
28
0.3 0.03333333333333339 0
0.3 0.06666666666666675 0
1 9 0 7
29
30
31
32
33
34
35
0.03749999999999994 0 0
0.07499999999999986 0 0
0.1124999999999998 0 0
0.1499999999999998 0 0
0.1874999999999998 0 0
0.2249999999999999 0 0
0.2625 0 0
1 10 0 7
36
37
38
39
40
41
42
0.03749999999999994 0 0.05
0.07499999999999986 0 0.05
0.1124999999999998 0 0.05
0.1499999999999998 0 0.05
0.1874999999999998 0 0.05
0.2249999999999999 0 0.05
0.2625 0 0.05
1 11 0 7
43
44
45
46
47
48
49
0.03749999999999994 0.1 0
0.07499999999999986 0.1 0
0.1124999999999998 0.1 0
0.1499999999999998 0.1 0
0.1874999999999998 0.1 0
0.2249999999999999 0.1 0
0.2625 0.1 0
1 12 0 7
50
51
52
53
54
55
56
0.03749999999999994 0.1 0.05
0.07499999999999986 0.1 0.05
0.1124999999999998 0.1 0.05
0.1499999999999998 0.1 0.05
0.1874999999999998 0.1 0.05
0.2249999999999999 0.1 0.05
0.2625 0.1 0.05
1 13 0 1
57
0.3 0 0.02500000000000004
1 14 0 2
58
59
0.3 0.03333333333333339 0.05
0.3 0.06666666666666675 0.05
1 15 0 1
60
0.3 0.1 0.02500000000000004
1 16 0 2
61
62
0.3 0.03333333333333339 0
0.3 0.06666666666666675 0
1 17 0 1
63
0.6 0 0.02500000000000004
1 18 0 2
64
65
0.6 0.03333333333333339 0.05
0.6 0.06666666666666675 0.05
1 19 0 1
66
0.6 0.1 0.02500000000000004
1 20 0 2
67
68
0.6 0.03333333333333339 0
0.6 0.06666666666666675 0
1 21 0 7
69
70
71
72
73
74
75
0.3374999999999999 0 0
0.3749999999999998 0 0
0.4124999999999998 0 0
0.4499999999999997 0 0
0.4874999999999998 0 0
0.5249999999999999 0 0
0.5625 0 0
1 22 0 7
76
77
78
79
80
81
82
0.3374999999999999 0 0.05
0.3749999999999998 0 0.05
0.4124999999999998 0 0.05
0.4499999999999997 0 0.05
0.4874999999999998 0 0.05
0.5249999999999999 0 0.05
0.5625 0 0.05
1 23 0 7
83
84
85
86
87
88
89
0.3374999999999999 0.1 0
0.3749999999999998 0.1 0
0.4124999999999998 0.1 0
0.4499999999999997 0.1 0
0.4874999999999998 0.1 0
0.5249999999999999 0.1 0
0.5625 0.1 0
1 24 0 7
90
91
92
93
94
95
96
0.3374999999999999 0.1 0.05
0.3749999999999998 0.1 0.05
0.4124999999999998 0.1 0.05
0.4499999999999997 0.1 0.05
0.4874999999999998 0.1 0.05
0.5249999999999999 0.1 0.05
0.5625 0.1 0.05
2 1 0 3
97
98
99
0 0.05000000000000006 0.02500000000000001
0 0.02500000000000004 0.02361111111111115
0 0.07500000000000005 0.02638888888888893
2 2 0 3
100
101
102
0.3 0.05000000000000006 0.02500000000000001
0.3 0.02500000000000004 0.02361111111111115
0.3 0.07500000000000005 0.02638888888888893
2 3 0 8
103
104
105
106
107
108
109
110
0.09374999999999983 0 0.025
0.0562499999999999 0 0.025
0.1312499999999998 0 0.025
0.1687499999999998 0 0.025
0.2062499999999998 0 0.025
0.2437499999999999 0 0.025
0.02518525267249754 0 0.02499999999999999
0.2748147473275024 0 0.025
2 4 0 8
111
112
113
114
115
116
117
118
0.0562499999999999 0.1 0.025
0.09374999999999983 0.1 0.025
0.1312499999999998 0.1 0.02499999999999999
0.1687499999999998 0.1 0.025
0.2062499999999998 0.1 0.025
0.2437499999999999 0.1 0.025
0.02518525267249754 0.1 0.02499999999999999
0.2748147473275024 0.1 0.025
2 5 0 18
119
120
121
122
123
124
125
126
127
128
129
130
131
132
133
134
135
136
0.02886751345948127 0.05000000000000008 0
0.2711324865405187 0.05000000000000008 0
0.09374999999999982 0.03247595264191638 0
0.1687499999999998 0.06752404735808357 0
0.2062499999999998 0.03247595264191649 0
0.1312499999999998 0.06752404735808359 0
0.09421200443613346 0.07377725559308476 0
0.1312499999999998 0.02987623873840468 0
0.1671230737192834 0.03161204954529521 0
0.2057879955638662 0.07377725559308475 0
0.2469064750292867 0.0291548688718588 0
0.05309352497071308 0.02915486887185881 0
0.2414399778193318 0.06888627796542371 0
0.05856002218066797 0.06888627796542379 0
0.02488361418412967 0.02356698262381259 0
0.02488361418412963 0.07643301737618752 0
0.2751163858158704 0.07643301737618757 0
0.2751163858158704 0.02356698262381252 0
2 6 0 18
137
138
139
140
141
142
143
144
145
146
147
148
149
150
151
152
153
154
0.02886751345948127 0.05000000000000008 0.05
0.2711324865405187 0.05000000000000008 0.05
0.09374999999999982 0.03247595264191638 0.05
0.1687499999999998 0.06752404735808357 0.05
0.2062499999999998 0.03247595264191649 0.05
0.1312499999999998 0.06752404735808359 0.05
0.09421200443613346 0.07377725559308476 0.05
0.1312499999999998 0.02987623873840468 0.05
0.1671230737192834 0.03161204954529521 0.05
0.2057879955638662 0.07377725559308475 0.05
0.2469064750292867 0.0291548688718588 0.05
0.05309352497071308 0.02915486887185881 0.05
0.2414399778193318 0.06888627796542371 0.05
0.05856002218066797 0.06888627796542379 0.05
0.02488361418412967 0.02356698262381259 0.05
0.02488361418412963 0.07643301737618752 0.05
0.2751163858158704 0.07643301737618757 0.05
0.2751163858158704 0.02356698262381252 0.05
2 7 0 3
155
156
157
0.3 0.05000000000000006 0.02500000000000001
0.3 0.02500000000000004 0.02361111111111115
0.3 0.07500000000000005 0.02638888888888893
2 8 0 3
158
159
160
0.6 0.05000000000000006 0.02500000000000001
0.6 0.02500000000000004 0.02361111111111114
0.6 0.07500000000000004 0.02638888888888892
2 9 0 8
161
162
163
164
165
166
167
168
0.3562499999999999 0 0.025
0.4312499999999998 0 0.025
0.3937499999999998 0 0.025
0.5437499999999998 0 0.025
0.4687499999999998 0 0.02500000000000002
0.5062499999999999 0 0.02500000000000002
0.3251852526724975 0 0.02499999999999999
0.5748147473275025 0 0.025
2 10 0 8
169
170
171
172
173
174
175
176
0.3562499999999999 0.1 0.025
0.4312499999999998 0.1 0.025
0.3937499999999998 0.1 0.025
0.5437499999999998 0.1 0.025
0.4687499999999998 0.1 0.02500000000000002
0.5062499999999999 0.1 0.02500000000000002
0.3251852526724975 0.1 0.025
0.5748147473275025 0.1 0.025
2 11 0 18
177
178
179
180
181
182
183
184
185
186
187
188
189
190
191
192
193
194
0.3288675134594812 0.05000000000000007 0
0.5711324865405187 0.05000000000000007 0
0.3937499999999998 0.03247595264191638 0
0.4687499999999998 0.06752404735808355 0
0.5062499999999999 0.0324759526419165 0
0.4312499999999998 0.06752404735808359 0
0.3942120044361335 0.07377725559308476 0
0.4328769262807162 0.03166769240662827 0
0.4690753852561431 0.02633353848132566 0
0.5057879955638662 0.07377725559308475 0
0.5469064750292867 0.02915486887185879 0
0.3530935249707131 0.0291548688718588 0
0.5414399778193317 0.06888627796542371 0
0.358560022180668 0.06888627796542379 0
0.5751163858158703 0.0235669826238125 0
0.5751163858158704 0.07643301737618756 0
0.3248836141841296 0.02356698262381258 0
0.3248836141841296 0.07643301737618752 0
2 12 0 18
195
196
197
198
199
200
201
202
203
204
205
206
207
208
209
210
211
212
0.3288675134594812 0.05000000000000008 0.05
0.5711324865405187 0.05000000000000007 0.05
0.3937499999999998 0.03247595264191638 0.05
0.4687499999999998 0.06752404735808355 0.05
0.5062499999999999 0.0324759526419165 0.05
0.4312499999999998 0.06752404735808359 0.05
0.3942120044361335 0.07377725559308476 0.05
0.4328769262807162 0.03166769240662827 0.05
0.4690753852561431 0.02633353848132566 0.05
0.5057879955638662 0.07377725559308475 0.05
0.5469064750292867 0.02915486887185879 0.05
0.3530935249707131 0.02915486887185881 0.05
0.5414399778193317 0.06888627796542371 0.05
0.358560022180668 0.06888627796542379 0.05
0.5751163858158703 0.0235669826238125 0.05
0.5751163858158704 0.07643301737618756 0.05
0.3248836141841296 0.02356698262381259 0.05
0.3248836141841296 0.07643301737618752 0.05
3 1 0 0
3 2 0 0
$EndNodes
$Elements
4 520 1 520
2 1 2 14
1 17 1 98 
2 1 18 98 
3 2 17 98 
4 21 2 98 
5 19 3 99 
6 3 20 99 
7 20 4 99 
8 4 22 99 
9 18 19 97 
10 18 97 98 
11 97 19 99 
12 22 21 97 
13 97 21 98 
14 22 97 99 
2 8 2 14
15 63 159 13 
16 13 159 64 
17 14 159 63 
18 67 159 14 
19 65 160 15 
20 15 160 66 
21 66 160 16 
22 16 160 68 
23 64 158 65 
24 64 159 158 
25 158 160 65 
26 68 158 67 
27 158 159 67 
28 68 160 158 
3 1 4 246
29 105 126 103 144 
30 120 154 129 136 
31 148 137 133 151 
32 134 111 117 152 
33 153 116 118 135 
34 137 133 119 148 
35 120 147 154 138 
36 120 100 138 101 
37 100 138 102 120 
38 154 120 101 136 
39 137 98 133 151 
40 152 134 132 137 
41 135 138 153 131 
42 102 138 153 135 
43 144 142 126 139 
44 119 132 137 148 
45 131 138 147 120 
46 119 132 134 137 
47 131 135 138 120 
48 120 154 101 138 
49 126 142 144 145 
50 135 102 138 120 
51 133 130 119 148 
52 147 120 154 129 
53 110 129 154 136 
54 133 148 151 109 
55 114 115 146 128 
56 112 125 113 143 
57 130 132 148 139 
58 131 147 141 129 
59 132 119 130 148 
60 147 131 120 129 
61 140 141 128 146 
62 125 142 143 139 
63 149 128 141 146 
64 125 143 150 139 
65 111 134 132 152 
66 153 116 135 131 
67 144 126 103 139 
68 144 105 126 145 
69 154 147 129 110 
70 148 133 130 109 
71 148 104 130 139 
72 147 108 141 129 
73 31 126 103 105 
74 38 105 103 144 
75 121 126 124 142 
76 121 126 142 139 
77 145 126 124 127 
78 142 126 124 145 
79 132 150 148 139 
80 149 147 141 131 
81 132 130 121 139 
82 129 141 131 123 
83 141 122 128 123 
84 122 141 128 140 
85 142 125 121 139 
86 124 125 121 142 
87 128 149 141 131 
88 132 125 150 139 
89 132 150 137 148 
90 149 138 147 131 
91 128 141 123 131 
92 125 132 121 139 
93 148 130 104 109 
94 129 147 108 110 
95 146 140 114 128 
96 142 113 125 143 
97 150 152 132 137 
98 138 149 153 131 
99 149 146 115 128 
100 143 112 125 150 
101 123 108 141 107 
102 114 140 113 122 
103 141 106 123 107 
104 103 121 104 139 
105 115 114 47 128 
106 115 146 54 114 
107 52 112 113 143 
108 113 45 125 112 
109 129 108 141 123 
110 104 121 130 139 
111 126 121 103 139 
112 110 154 101 136 
113 151 98 133 109 
114 41 141 108 107 
115 108 123 34 107 
116 114 113 46 122 
117 53 140 113 114 
118 37 103 104 139 
119 121 104 30 103 
120 33 123 106 107 
121 106 141 40 107 
122 134 117 99 152 
123 118 102 153 135 
124 145 105 126 127 
125 105 145 106 127 
126 123 145 122 127 
127 116 153 149 131 
128 152 132 111 150 
129 122 141 145 123 
130 141 145 140 122 
131 122 145 124 127 
132 123 129 108 34 
133 141 41 108 147 
134 37 104 148 139 
135 121 30 104 130 
136 112 111 132 150 
137 115 116 149 131 
138 140 145 142 122 
139 145 124 142 122 
140 144 103 38 139 
141 126 121 31 103 
142 140 114 128 122 
143 125 124 113 142 
144 127 106 105 32 
145 39 105 145 106 
146 145 144 105 39 
147 127 105 126 32 
148 128 115 149 131 
149 132 125 112 150 
150 111 132 44 112 
151 116 115 48 131 
152 111 112 51 150 
153 116 149 55 115 
154 119 21 133 97 
155 137 19 152 97 
156 134 22 119 97 
157 106 145 123 127 
158 106 145 141 123 
159 98 133 21 97 
160 19 99 152 97 
161 22 134 99 97 
162 56 153 116 118 
163 49 118 116 135 
164 50 117 111 152 
165 111 43 134 117 
166 128 48 115 131 
167 149 146 55 115 
168 132 125 44 112 
169 143 51 112 150 
170 142 124 113 122 
171 140 142 113 122 
172 114 47 128 122 
173 146 140 54 114 
174 142 52 113 143 
175 125 124 45 113 
176 40 145 141 106 
177 127 123 106 33 
178 140 113 142 53 
179 124 46 113 122 
180 17 98 151 109 
181 110 101 154 23 
182 20 134 117 99 
183 26 102 118 135 
184 98 17 133 109 
185 23 110 101 136 
186 99 117 20 152 
187 102 153 26 118 
188 133 17 2 109 
189 151 1 17 109 
190 23 6 110 136 
191 110 154 5 23 
192 134 4 20 117 
193 3 20 117 152 
194 118 8 26 135 
195 26 153 7 118 
196 98 1 17 151 
197 101 5 154 23 
198 134 20 4 99 
199 102 26 8 135 
200 133 2 17 98 
201 101 6 23 136 
202 20 3 99 152 
203 7 153 26 102 
204 21 119 22 97 
205 137 18 19 97 
206 120 28 100 27 
207 24 138 25 100 
208 149 56 153 116 
209 135 116 49 131 
210 152 111 50 150 
211 43 134 132 111 
212 98 18 1 151 
213 24 5 154 101 
214 4 22 134 99 
215 135 8 102 28 
216 31 126 105 32 
217 144 38 105 39 
218 1 151 36 109 
219 35 110 6 136 
220 29 133 2 109 
221 5 42 154 110 
222 4 134 43 117 
223 3 117 50 152 
224 153 56 7 118 
225 8 118 49 135 
226 133 21 2 98 
227 27 6 101 136 
228 99 3 19 152 
229 153 7 25 102 
230 36 104 148 37 
231 29 104 30 130 
232 34 129 108 35 
233 42 108 41 147 
234 113 52 142 53 
235 30 31 121 103 
236 37 38 103 139 
237 124 46 45 113 
238 140 53 54 114 
239 47 114 46 122 
240 141 41 40 107 
241 33 34 123 107 
242 106 127 33 32 
243 40 39 145 106 
244 132 44 43 111 
245 51 50 111 150 
246 48 49 116 131 
247 149 55 56 116 
248 115 47 48 128 
249 125 45 44 112 
250 146 54 55 115 
251 52 51 112 143 
252 98 137 18 151 
253 98 18 137 97 
254 138 101 24 154 
255 24 101 138 100 
256 137 97 134 119 
257 120 102 28 135 
258 120 28 102 100 
259 97 133 137 98 
260 97 137 133 119 
261 120 101 27 100 
262 27 101 120 136 
263 152 97 134 137 
264 134 97 152 99 
265 102 138 25 153 
266 25 138 102 100 
267 148 109 36 151 
268 36 109 148 104 
269 109 130 29 133 
270 109 29 130 104 
271 110 129 35 108 
272 35 129 110 136 
273 110 147 42 154 
274 110 42 147 108 
3 2 4 246
275 209 205 196 191 
276 188 177 193 211 
277 194 169 175 212 
278 210 172 176 192 
279 195 188 211 177 
280 178 196 205 191 
281 157 155 177 195 
282 196 160 158 178 
283 209 196 159 191 
284 194 212 195 208 
285 210 196 207 192 
286 212 157 194 195 
287 160 196 210 192 
288 188 177 195 208 
289 189 196 205 178 
290 195 177 194 208 
291 189 192 196 178 
292 157 177 194 195 
293 160 196 192 178 
294 188 195 211 206 
295 187 178 205 191 
296 205 209 168 191 
297 211 188 167 193 
298 185 203 165 166 
299 173 174 204 186 
300 171 183 170 201 
301 188 208 206 197 
302 205 189 187 181 
303 203 180 199 185 
304 208 195 188 206 
305 205 189 178 187 
306 198 204 199 186 
307 182 183 179 201 
308 180 203 202 185 
309 186 199 189 204 
310 201 183 179 208 
311 194 169 212 208 
312 172 210 207 192 
313 188 211 167 206 
314 188 206 161 197 
315 164 205 187 181 
316 190 188 179 208 
317 207 205 199 189 
318 208 188 179 197 
319 189 205 199 181 
320 180 203 199 198 
321 180 199 185 181 
322 202 184 180 185 
323 199 180 186 181 
324 180 199 186 198 
325 200 201 182 197 
326 201 179 182 197 
327 204 207 199 189 
328 183 190 179 208 
329 198 203 202 180 
330 199 185 166 203 
331 207 196 205 189 
332 177 188 190 208 
333 199 186 189 181 
334 208 179 201 197 
335 161 206 188 167 
336 204 198 173 186 
337 183 182 170 201 
338 196 207 192 189 
339 177 190 194 208 
340 185 203 202 165 
341 186 174 204 189 
342 201 171 183 208 
343 165 73 185 166 
344 165 203 80 166 
345 163 162 179 197 
346 173 198 170 180 
347 181 164 199 166 
348 163 179 161 197 
349 174 173 87 186 
350 174 204 94 173 
351 92 171 170 201 
352 85 183 170 171 
353 161 179 188 197 
354 205 164 199 181 
355 209 159 168 191 
356 211 156 193 167 
357 173 170 86 180 
358 170 93 198 173 
359 77 163 161 197 
360 70 179 161 163 
361 164 81 199 166 
362 164 181 74 166 
363 162 163 78 197 
364 71 162 179 163 
365 175 157 194 212 
366 210 176 160 192 
367 202 162 184 165 
368 197 184 182 202 
369 192 207 172 189 
370 169 194 190 208 
371 182 200 197 202 
372 179 184 182 197 
373 202 184 182 180 
374 181 187 164 74 
375 199 81 164 205 
376 77 161 206 197 
377 70 179 188 161 
378 174 172 207 189 
379 190 171 169 208 
380 182 198 202 180 
381 198 182 202 200 
382 185 199 166 181 
383 180 173 198 186 
384 201 182 170 200 
385 202 184 185 165 
386 207 204 174 189 
387 190 183 171 208 
388 84 190 171 169 
389 91 169 171 208 
390 172 174 88 189 
391 172 207 95 174 
392 158 178 67 191 
393 177 61 193 155 
394 58 155 195 211 
395 197 162 184 202 
396 184 179 162 197 
397 159 158 67 191 
398 156 193 61 155 
399 155 58 156 211 
400 164 168 75 191 
401 96 210 172 176 
402 89 176 172 192 
403 90 175 169 212 
404 169 83 194 175 
405 207 204 95 174 
406 186 88 174 189 
407 201 91 171 208 
408 190 183 84 171 
409 198 182 170 180 
410 200 182 170 198 
411 73 181 185 166 
412 203 199 80 166 
413 180 87 173 186 
414 204 198 94 173 
415 183 182 85 170 
416 201 170 92 200 
417 179 162 71 184 
418 197 78 162 202 
419 170 93 200 198 
420 182 86 170 180 
421 57 156 211 167 
422 168 159 209 63 
423 157 194 60 175 
424 66 160 176 192 
425 75 187 164 191 
426 156 57 193 167 
427 63 168 159 191 
428 175 60 157 212 
429 160 176 210 66 
430 193 57 10 167 
431 211 9 57 167 
432 63 14 168 191 
433 168 209 13 63 
434 194 12 60 175 
435 11 60 175 212 
436 176 16 66 192 
437 176 15 210 66 
438 159 13 209 63 
439 156 9 57 211 
440 194 60 12 157 
441 66 16 160 192 
442 193 10 57 156 
443 159 14 63 191 
444 60 11 157 212 
445 160 210 15 66 
446 61 177 62 155 
447 155 59 58 195 
448 178 68 158 67 
449 64 196 65 158 
450 192 172 89 189 
451 207 96 210 172 
452 169 90 212 208 
453 83 194 190 169 
454 13 209 64 159 
455 156 58 9 211 
456 12 62 194 157 
457 192 16 160 68 
458 9 211 76 167 
459 75 168 14 191 
460 82 209 13 168 
461 69 193 10 167 
462 11 175 90 212 
463 12 194 83 175 
464 89 16 176 192 
465 210 96 15 176 
466 193 61 10 156 
467 159 67 14 191 
468 157 11 59 212 
469 15 65 210 160 
470 206 76 161 77 
471 69 70 188 161 
472 164 81 82 205 
473 74 187 164 75 
474 181 73 74 166 
475 170 93 92 200 
476 182 86 85 170 
477 81 80 199 166 
478 87 173 86 180 
479 94 198 93 173 
480 179 70 71 163 
481 77 78 163 197 
482 72 71 162 184 
483 78 79 162 202 
484 90 169 91 208 
485 207 95 96 172 
486 88 89 172 189 
487 190 84 83 169 
488 79 203 80 165 
489 73 185 72 165 
490 94 95 204 174 
491 174 87 88 186 
492 183 85 84 171 
493 92 91 171 201 
494 155 211 177 195 
495 196 159 64 209 
496 64 159 196 158 
497 177 157 62 155 
498 62 157 177 194 
499 178 160 68 192 
500 178 68 160 158 
501 155 193 211 156 
502 155 211 193 177 
503 158 191 196 178 
504 196 191 158 159 
505 157 195 59 155 
506 59 195 157 212 
507 160 196 65 210 
508 65 196 160 158 
509 184 165 72 185 
510 72 165 184 162 
511 202 165 79 162 
512 79 165 202 203 
513 168 205 82 209 
514 168 82 205 164 
515 164 191 205 168 
516 205 191 164 187 
517 167 206 76 161 
518 167 76 206 211 
519 188 167 69 161 
520 69 167 188 193 
$EndElements
