DBRep_DrawableShape

CASCADE Topology V3, (c) Open Cascade
Locations 0
Curve2ds 216
1 0 0 0 -1 
1 6.2831853071795862 0 0 -1 
1 0 0 1 0 
1 0 0 1 0 
1 0 -75 1 0 
2 2.1879042120630775e-15 -5.5504181319993953e-16 1 0 -0 1 40
1 0 0 0 -1 
1 6.2831853071795862 0 0 -1 
1 0 -0 -0 1 
1 6.2831853071795862 -0 -0 1 
1 0 -75 1 0 
2 2.1879042120630775e-15 -5.5504181319993953e-16 1 0 -0 1 40
1 -0 75 1 -0 
1 0 -75 1 0 
2 3.4545855979943322e-15 -7.5183778640957395e-16 1 0 -0 1 38
2 2.1879042120630775e-15 -5.5504181319993953e-16 1 0 -0 1 38
1 0 -75 1 0 
2 3.4545855979943322e-15 -7.5183778640957395e-16 1 0 -0 1 38
2 2.1879042120630775e-15 -5.5504181319993953e-16 1 0 -0 1 38
1 0 0 0 -1 
1 6.2831853071795862 0 0 -1 
1 0 0 1 0 
1 0 0 1 0 
1 0 0 0 -1 
1 6.2831853071795862 0 0 -1 
1 0 0 0 -1 
1 6.2831853071795862 0 0 -1 
1 0 0 1 0 
1 0 0 1 0 
1 0 -15.5 1 0 
2 3.4545855979943322e-15 -7.5183778640957395e-16 1 0 -0 1 38
1 0 0 0 -1 
1 6.2831853071795862 0 0 -1 
1 0 -0 -0 1 
1 6.2831853071795862 -0 -0 1 
1 0 -15.5 1 0 
2 3.4545855979943322e-15 -7.5183778640957395e-16 1 0 -0 1 38
1 -0 15.5 1 -0 
1 0 -15.5 1 0 
2 7.8139436145109895e-16 5.7150183960209825e-16 1 0 -0 1 14
2 3.4545855979943322e-15 -7.5183778640957395e-16 1 0 -0 1 14
1 0 -15.5 1 0 
2 7.8139436145109895e-16 5.7150183960209825e-16 1 0 -0 1 14
2 3.4545855979943322e-15 -7.5183778640957395e-16 1 0 -0 1 14
1 0 0 0 -1 
1 6.2831853071795862 0 0 -1 
1 0 0 1 0 
1 0 0 1 0 
1 0 0 0 -1 
1 6.2831853071795862 0 0 -1 
1 0 0 0 -1 
1 6.2831853071795862 0 0 -1 
1 0 0 1 0 
1 0 0 1 0 
1 0 -12 1 0 
2 3.4545855979943322e-15 -7.5183778640957395e-16 1 0 -0 1 38
1 0 0 0 -1 
1 6.2831853071795862 0 0 -1 
1 0 -0 -0 1 
1 6.2831853071795862 -0 -0 1 
1 0 -12 1 0 
2 3.4545855979943322e-15 -7.5183778640957395e-16 1 0 -0 1 38
1 -0 12 1 -0 
1 0 -12 1 0 
2 7.8139436145109895e-16 5.7150183960209825e-16 1 0 -0 1 14
2 3.4545855979943322e-15 -7.5183778640957395e-16 1 0 -0 1 14
1 0 -12 1 0 
2 7.8139436145109895e-16 5.7150183960209825e-16 1 0 -0 1 14
2 3.4545855979943322e-15 -7.5183778640957395e-16 1 0 -0 1 14
1 0 0 0 -1 
1 6.2831853071795862 0 0 -1 
1 0 0 1 0 
1 0 0 1 0 
1 0 0 0 -1 
1 6.2831853071795862 0 0 -1 
1 0 0 0 -1 
1 6.2831853071795862 0 0 -1 
1 0 0 1 0 
1 0 0 1 0 
1 0 -4 1 0 
2 3.4545855979943322e-15 -7.5183778640957395e-16 1 0 -0 1 38
1 0 0 0 -1 
1 6.2831853071795862 0 0 -1 
1 0 -0 -0 1 
1 6.2831853071795862 -0 -0 1 
1 0 -4 1 0 
2 3.4545855979943322e-15 -7.5183778640957395e-16 1 0 -0 1 38
1 -0 4 1 -0 
1 0 -4 1 0 
2 7.8139436145109895e-16 5.7150183960209825e-16 1 0 -0 1 14
2 3.4545855979943322e-15 -7.5183778640957395e-16 1 0 -0 1 14
1 0 -4 1 0 
2 7.8139436145109895e-16 5.7150183960209825e-16 1 0 -0 1 14
2 3.4545855979943322e-15 -7.5183778640957395e-16 1 0 -0 1 14
1 0 0 0 -1 
1 6.2831853071795862 0 0 -1 
1 0 0 1 0 
1 0 0 1 0 
1 0 0 0 -1 
1 6.2831853071795862 0 0 -1 
1 0 0 0 -1 
1 6.2831853071795862 0 0 -1 
1 0 0 1 0 
1 0 0 1 0 
1 0 -12 1 0 
2 3.4545855979943322e-15 -7.5183778640957395e-16 1 0 -0 1 38
1 0 0 0 -1 
1 6.2831853071795862 0 0 -1 
1 0 -0 -0 1 
1 6.2831853071795862 -0 -0 1 
1 0 -12 1 0 
2 3.4545855979943322e-15 -7.5183778640957395e-16 1 0 -0 1 38
1 -0 12 1 -0 
1 0 -12 1 0 
2 7.8139436145109895e-16 5.7150183960209825e-16 1 0 -0 1 14
2 3.4545855979943322e-15 -7.5183778640957395e-16 1 0 -0 1 14
1 0 -12 1 0 
2 7.8139436145109895e-16 5.7150183960209825e-16 1 0 -0 1 14
2 3.4545855979943322e-15 -7.5183778640957395e-16 1 0 -0 1 14
1 0 0 0 -1 
1 6.2831853071795862 0 0 -1 
1 0 0 1 0 
1 0 0 1 0 
1 0 0 0 -1 
1 6.2831853071795862 0 0 -1 
1 0 0 0 -1 
1 6.2831853071795862 0 0 -1 
1 0 0 1 0 
1 0 0 1 0 
1 0 -4 1 0 
2 3.4545855979943322e-15 -7.5183778640957395e-16 1 0 -0 1 38
1 0 0 0 -1 
1 6.2831853071795862 0 0 -1 
1 0 -0 -0 1 
1 6.2831853071795862 -0 -0 1 
1 0 -4 1 0 
2 3.4545855979943322e-15 -7.5183778640957395e-16 1 0 -0 1 38
1 -0 4 1 -0 
1 0 -4 1 0 
2 7.8139436145109895e-16 5.7150183960209825e-16 1 0 -0 1 14
2 3.4545855979943322e-15 -7.5183778640957395e-16 1 0 -0 1 14
1 0 -4 1 0 
2 7.8139436145109895e-16 5.7150183960209825e-16 1 0 -0 1 14
2 3.4545855979943322e-15 -7.5183778640957395e-16 1 0 -0 1 14
1 0 0 0 -1 
1 6.2831853071795862 0 0 -1 
1 0 0 1 0 
1 0 0 1 0 
1 0 0 0 -1 
1 6.2831853071795862 0 0 -1 
1 0 0 0 -1 
1 6.2831853071795862 0 0 -1 
1 0 0 1 0 
1 0 0 1 0 
1 0 -12 1 0 
2 3.4545855979943322e-15 -7.5183778640957395e-16 1 0 -0 1 38
1 0 0 0 -1 
1 6.2831853071795862 0 0 -1 
1 0 -0 -0 1 
1 6.2831853071795862 -0 -0 1 
1 0 -12 1 0 
2 3.4545855979943322e-15 -7.5183778640957395e-16 1 0 -0 1 38
1 -0 12 1 -0 
1 0 -12 1 0 
2 7.8139436145109895e-16 5.7150183960209825e-16 1 0 -0 1 14
2 3.4545855979943322e-15 -7.5183778640957395e-16 1 0 -0 1 14
1 0 -12 1 0 
2 7.8139436145109895e-16 5.7150183960209825e-16 1 0 -0 1 14
2 3.4545855979943322e-15 -7.5183778640957395e-16 1 0 -0 1 14
1 0 0 0 -1 
1 6.2831853071795862 0 0 -1 
1 0 0 1 0 
1 0 0 1 0 
1 0 0 0 -1 
1 6.2831853071795862 0 0 -1 
1 0 0 0 -1 
1 6.2831853071795862 0 0 -1 
1 0 0 1 0 
1 0 0 1 0 
1 0 -15.5 1 0 
2 3.4545855979943322e-15 -7.5183778640957395e-16 1 0 -0 1 38
1 0 0 0 -1 
1 6.2831853071795862 0 0 -1 
1 0 -0 -0 1 
1 6.2831853071795862 -0 -0 1 
1 0 -15.5 1 0 
2 3.4545855979943322e-15 -7.5183778640957395e-16 1 0 -0 1 38
1 -0 15.5 1 -0 
1 0 -15.5 1 0 
2 7.8139436145109895e-16 5.7150183960209825e-16 1 0 -0 1 14
2 3.4545855979943322e-15 -7.5183778640957395e-16 1 0 -0 1 14
1 0 -15.5 1 0 
2 7.8139436145109895e-16 5.7150183960209825e-16 1 0 -0 1 14
2 3.4545855979943322e-15 -7.5183778640957395e-16 1 0 -0 1 14
1 0 0 0 -1 
1 6.2831853071795862 0 0 -1 
1 0 0 1 0 
1 0 0 1 0 
1 0 0 0 -1 
1 6.2831853071795862 0 0 -1 
1 0 0 0 -1 
1 6.2831853071795862 0 0 -1 
1 0 0 1 0 
1 0 0 1 0 
1 0 -67.5 1 0 
1 0 0 0 -1 
1 6.2831853071795862 0 0 -1 
1 0 -67.5 1 0 
1 0 0 0 -1 
1 6.2831853071795862 0 0 -1 
1 0 0 1 0 
1 0 0 1 0 
1 0 -60 1 0 
1 0 0 0 -1 
1 6.2831853071795862 0 0 -1 
1 0 -60 1 0 
Curves 90
1 40 0 0 0 0 1 
2 0 0 0 0 0 1 1 0 0 0 1 0 40
2 0 0 75 0 0 1 1 0 0 0 1 0 40
1 40 0 0 -0 -0 -1 
2 0 0 -75 0 0 1 1 0 0 0 1 0 40
2 0 0 75 0 0 1 1 0 0 0 1 0 38
2 0 0 -75 0 0 1 1 0 0 0 1 0 38
1 38 0 0 0 0 1 
2 0 0 0 0 0 1 1 0 0 0 1 0 38
1 38 0 0 -0 -0 -1 
1 38 0 -59.5 0 0 1 
2 0 0 -59.5 0 0 1 1 0 0 0 1 0 38
2 0 0 -44 0 0 1 1 0 0 0 1 0 38
1 38 0 -59.5 -0 -0 -1 
2 0 0 -75 0 0 1 1 0 0 0 1 0 38
2 0 0 -44 0 0 1 1 0 0 0 1 0 14
2 0 0 -75 0 0 1 1 0 0 0 1 0 14
1 14 0 -59.5 0 0 1 
2 0 0 -59.5 0 0 1 1 0 0 0 1 0 14
1 14 0 -59.5 -0 -0 -1 
1 38 0 -32 0 0 1 
2 0 0 -32 0 0 1 1 0 0 0 1 0 38
2 0 0 -20 0 0 1 1 0 0 0 1 0 38
1 38 0 -32 -0 -0 -1 
2 0 0 -44 0 0 1 1 0 0 0 1 0 38
2 0 0 -20 0 0 1 1 0 0 0 1 0 14
2 0 0 -44 0 0 1 1 0 0 0 1 0 14
1 14 0 -32 0 0 1 
2 0 0 -32 0 0 1 1 0 0 0 1 0 14
1 14 0 -32 -0 -0 -1 
1 38 0 -16 0 0 1 
2 0 0 -16 0 0 1 1 0 0 0 1 0 38
2 0 0 -12 0 0 1 1 0 0 0 1 0 38
1 38 0 -16 -0 -0 -1 
2 0 0 -20 0 0 1 1 0 0 0 1 0 38
2 0 0 -12 0 0 1 1 0 0 0 1 0 14
2 0 0 -20 0 0 1 1 0 0 0 1 0 14
1 14 0 -16 0 0 1 
2 0 0 -16 0 0 1 1 0 0 0 1 0 14
1 14 0 -16 -0 -0 -1 
1 38 0 0 0 0 1 
2 0 0 0 0 0 1 1 0 0 0 1 0 38
2 0 0 12 0 0 1 1 0 0 0 1 0 38
1 38 0 0 -0 -0 -1 
2 0 0 -12 0 0 1 1 0 0 0 1 0 38
2 0 0 12 0 0 1 1 0 0 0 1 0 14
2 0 0 -12 0 0 1 1 0 0 0 1 0 14
1 14 0 0 0 0 1 
2 0 0 0 0 0 1 1 0 0 0 1 0 14
1 14 0 0 -0 -0 -1 
1 38 0 16 0 0 1 
2 0 0 16 0 0 1 1 0 0 0 1 0 38
2 0 0 20 0 0 1 1 0 0 0 1 0 38
1 38 0 16 -0 -0 -1 
2 0 0 12 0 0 1 1 0 0 0 1 0 38
2 0 0 20 0 0 1 1 0 0 0 1 0 14
2 0 0 12 0 0 1 1 0 0 0 1 0 14
1 14 0 16 0 0 1 
2 0 0 16 0 0 1 1 0 0 0 1 0 14
1 14 0 16 -0 -0 -1 
1 38 0 32 0 0 1 
2 0 0 32 0 0 1 1 0 0 0 1 0 38
2 0 0 44 0 0 1 1 0 0 0 1 0 38
1 38 0 32 -0 -0 -1 
2 0 0 20 0 0 1 1 0 0 0 1 0 38
2 0 0 44 0 0 1 1 0 0 0 1 0 14
2 0 0 20 0 0 1 1 0 0 0 1 0 14
1 14 0 32 0 0 1 
2 0 0 32 0 0 1 1 0 0 0 1 0 14
1 14 0 32 -0 -0 -1 
1 38 0 59.5 0 0 1 
2 0 0 59.5 0 0 1 1 0 0 0 1 0 38
2 0 0 75 0 0 1 1 0 0 0 1 0 38
1 38 0 59.5 -0 -0 -1 
2 0 0 44 0 0 1 1 0 0 0 1 0 38
2 0 0 75 0 0 1 1 0 0 0 1 0 14
2 0 0 44 0 0 1 1 0 0 0 1 0 14
1 14 0 59.5 0 0 1 
2 0 0 59.5 0 0 1 1 0 0 0 1 0 14
1 14 0 59.5 -0 -0 -1 
1 14 0 0 0 0 1 
2 0 0 0 0 0 1 1 0 0 0 1 0 14
2 0 0 67.5 0 0 1 1 0 0 0 1 0 14
1 14 0 0 -0 -0 -1 
2 0 0 -67.5 0 0 1 1 0 0 0 1 0 14
1 13 0 0 0 0 1 
2 0 0 0 0 0 1 1 0 0 0 1 0 13
2 0 0 60 0 0 1 1 0 0 0 1 0 13
1 13 0 0 -0 -0 -1 
2 0 0 -60 0 0 1 1 0 0 0 1 0 13
Polygon3D 0
PolygonOnTriangulations 0
Surfaces 72
2 0 0 0 -0 -0 -1 1 0 0 0 1 0 40
2 0 0 0 0 0 1 1 0 0 0 1 0 40
1 -2.1879042120630775e-15 5.5504181319993953e-16 75 0 0 1 1 0 -0 -0 1 0 
1 -2.1879042120630775e-15 5.5504181319993953e-16 -75 0 0 1 1 0 -0 -0 1 0 
2 0 0 0 -0 -0 -1 1 0 0 0 1 0 38
1 -3.4545855979943322e-15 7.5183778640957395e-16 75 0 0 1 1 0 -0 -0 1 0 
2 0 0 0 0 0 1 1 0 0 0 1 0 38
1 -3.4545855979943322e-15 7.5183778640957395e-16 -75 0 0 1 1 0 -0 -0 1 0 
2 0 0 -59.5 -0 -0 -1 1 0 0 0 1 0 38
2 0 0 -59.5 0 0 1 1 0 0 0 1 0 38
1 -3.4545855979943322e-15 7.5183778640957395e-16 -44 0 0 1 1 0 -0 -0 1 0 
1 -3.4545855979943322e-15 7.5183778640957395e-16 -75 0 0 1 1 0 -0 -0 1 0 
2 0 0 -59.5 -0 -0 -1 1 0 0 0 1 0 14
1 -7.8139436145109895e-16 -5.7150183960209825e-16 -44 0 0 1 1 0 -0 -0 1 0 
2 0 0 -59.5 0 0 1 1 0 0 0 1 0 14
1 -7.8139436145109895e-16 -5.7150183960209825e-16 -75 0 0 1 1 0 -0 -0 1 0 
2 0 0 -32 -0 -0 -1 1 0 0 0 1 0 38
2 0 0 -32 0 0 1 1 0 0 0 1 0 38
1 -3.4545855979943322e-15 7.5183778640957395e-16 -20 0 0 1 1 0 -0 -0 1 0 
1 -3.4545855979943322e-15 7.5183778640957395e-16 -44 0 0 1 1 0 -0 -0 1 0 
2 0 0 -32 -0 -0 -1 1 0 0 0 1 0 14
1 -7.8139436145109895e-16 -5.7150183960209825e-16 -20 0 0 1 1 0 -0 -0 1 0 
2 0 0 -32 0 0 1 1 0 0 0 1 0 14
1 -7.8139436145109895e-16 -5.7150183960209825e-16 -44 0 0 1 1 0 -0 -0 1 0 
2 0 0 -16 -0 -0 -1 1 0 0 0 1 0 38
2 0 0 -16 0 0 1 1 0 0 0 1 0 38
1 -3.4545855979943322e-15 7.5183778640957395e-16 -12 0 0 1 1 0 -0 -0 1 0 
1 -3.4545855979943322e-15 7.5183778640957395e-16 -20 0 0 1 1 0 -0 -0 1 0 
2 0 0 -16 -0 -0 -1 1 0 0 0 1 0 14
1 -7.8139436145109895e-16 -5.7150183960209825e-16 -12 0 0 1 1 0 -0 -0 1 0 
2 0 0 -16 0 0 1 1 0 0 0 1 0 14
1 -7.8139436145109895e-16 -5.7150183960209825e-16 -20 0 0 1 1 0 -0 -0 1 0 
2 0 0 0 -0 -0 -1 1 0 0 0 1 0 38
2 0 0 0 0 0 1 1 0 0 0 1 0 38
1 -3.4545855979943322e-15 7.5183778640957395e-16 12 0 0 1 1 0 -0 -0 1 0 
1 -3.4545855979943322e-15 7.5183778640957395e-16 -12 0 0 1 1 0 -0 -0 1 0 
2 0 0 0 -0 -0 -1 1 0 0 0 1 0 14
1 -7.8139436145109895e-16 -5.7150183960209825e-16 12 0 0 1 1 0 -0 -0 1 0 
2 0 0 0 0 0 1 1 0 0 0 1 0 14
1 -7.8139436145109895e-16 -5.7150183960209825e-16 -12 0 0 1 1 0 -0 -0 1 0 
2 0 0 16 -0 -0 -1 1 0 0 0 1 0 38
2 0 0 16 0 0 1 1 0 0 0 1 0 38
1 -3.4545855979943322e-15 7.5183778640957395e-16 20 0 0 1 1 0 -0 -0 1 0 
1 -3.4545855979943322e-15 7.5183778640957395e-16 12 0 0 1 1 0 -0 -0 1 0 
2 0 0 16 -0 -0 -1 1 0 0 0 1 0 14
1 -7.8139436145109895e-16 -5.7150183960209825e-16 20 0 0 1 1 0 -0 -0 1 0 
2 0 0 16 0 0 1 1 0 0 0 1 0 14
1 -7.8139436145109895e-16 -5.7150183960209825e-16 12 0 0 1 1 0 -0 -0 1 0 
2 0 0 32 -0 -0 -1 1 0 0 0 1 0 38
2 0 0 32 0 0 1 1 0 0 0 1 0 38
1 -3.4545855979943322e-15 7.5183778640957395e-16 44 0 0 1 1 0 -0 -0 1 0 
1 -3.4545855979943322e-15 7.5183778640957395e-16 20 0 0 1 1 0 -0 -0 1 0 
2 0 0 32 -0 -0 -1 1 0 0 0 1 0 14
1 -7.8139436145109895e-16 -5.7150183960209825e-16 44 0 0 1 1 0 -0 -0 1 0 
2 0 0 32 0 0 1 1 0 0 0 1 0 14
1 -7.8139436145109895e-16 -5.7150183960209825e-16 20 0 0 1 1 0 -0 -0 1 0 
2 0 0 59.5 -0 -0 -1 1 0 0 0 1 0 38
2 0 0 59.5 0 0 1 1 0 0 0 1 0 38
1 -3.4545855979943322e-15 7.5183778640957395e-16 75 0 0 1 1 0 -0 -0 1 0 
1 -3.4545855979943322e-15 7.5183778640957395e-16 44 0 0 1 1 0 -0 -0 1 0 
2 0 0 59.5 -0 -0 -1 1 0 0 0 1 0 14
1 -7.8139436145109895e-16 -5.7150183960209825e-16 75 0 0 1 1 0 -0 -0 1 0 
2 0 0 59.5 0 0 1 1 0 0 0 1 0 14
1 -7.8139436145109895e-16 -5.7150183960209825e-16 44 0 0 1 1 0 -0 -0 1 0 
2 0 0 0 -0 -0 -1 1 0 0 0 1 0 14
2 0 0 0 0 0 1 1 0 0 0 1 0 14
1 -7.8139436145109895e-16 -5.7150183960209825e-16 67.5 0 0 1 1 0 -0 -0 1 0 
1 -7.8139436145109895e-16 -5.7150183960209825e-16 -67.5 0 0 1 1 0 -0 -0 1 0 
2 0 0 0 -0 -0 -1 1 0 0 0 1 0 13
2 0 0 0 0 0 1 1 0 0 0 1 0 13
1 -4.207508100121302e-16 7.3157215040587089e-16 60 0 0 1 1 0 -0 -0 1 0 
1 -4.207508100121302e-16 7.3157215040587089e-16 -60 0 0 1 1 0 -0 -0 1 0 
Triangulations 0

TShapes 303
Ve
1.00000017763568e-07
40 0 0
0 0

0101101
*
Ve
1e-07
40 0 75
0 0

0101101
*
Ed
 1e-07 1 1 0
1  1 0 0 75
3  1 2CN 1 0 0 75
0

0101000
+303 0 -302 0 *
Ed
 1.00000017763568e-07 1 1 0
1  2 0 0 6.28318530717959
2  3 1 0 0 6.28318530717959
2  4 2 0 0 6.28318530717959
0

0101000
+303 0 -303 0 *
Ed
 1e-07 1 1 0
1  3 0 0 6.28318530717959
2  5 1 0 0 6.28318530717959
2  6 3 0 0 6.28318530717959
0

0101000
+302 0 -302 0 *
Wi

0101100
+301 0 -301 0 -300 0 +299 0 *
Fa
0  1e-07 1 0

0101000
+298 0 *
Ve
1e-07
40 0 -75
0 0

0101101
*
Ed
 1e-07 1 1 0
1  4 0 0 75
3  7 8CN 2 0 0 75
3  9 10C0 1 0 0 75
0

0101000
+303 0 -296 0 *
Ed
 1e-07 1 1 0
1  5 0 0 6.28318530717959
2  11 2 0 0 6.28318530717959
2  12 4 0 0 6.28318530717959
2  13 1 0 0 6.28318530717959
0

0101000
+296 0 -296 0 *
Wi

0101100
+295 0 -295 0 -300 0 +294 0 *
Fa
0  1e-07 2 0

0101000
+293 0 *
Wi

0101100
+299 0 *
Ve
1e-07
38 0 75
0 0

0101101
*
Ed
 1e-07 1 1 0
1  6 0 0 6.28318530717959
2  14 5 0 0 6.28318530717959
2  15 6 0 0 6.28318530717959
2  16 3 0 0 6.28318530717959
0

0101000
+290 0 -290 0 *
Wi

0101100
-289 0 *
Fa
0  1e-07 3 0

0101000
+291 0 +288 0 *
Wi

0101100
+294 0 *
Ve
1e-07
38 0 -75
0 0

0101101
*
Ed
 1e-07 1 1 0
1  7 0 0 6.28318530717959
2  17 7 0 0 6.28318530717959
2  18 8 0 0 6.28318530717959
2  19 4 0 0 6.28318530717959
0

0101000
+285 0 -285 0 *
Wi

0101100
-284 0 *
Fa
0  1e-07 4 0

0101000
+286 0 +283 0 *
Ve
1.0000001687539e-07
38 0 0
0 0

0101101
*
Ed
 1e-07 1 1 0
1  8 0 0 75
3  20 21CN 5 0 0 75
0

0101000
+281 0 -290 0 *
Ed
 1.0000001687539e-07 1 1 0
1  9 0 0 6.28318530717959
2  22 5 0 0 6.28318530717959
2  23 7 0 0 6.28318530717959
0

0101000
+281 0 -281 0 *
Wi

0101100
+280 0 -280 0 -279 0 +289 0 *
Fa
0  1e-07 5 0

0101000
+278 0 *
Ed
 1e-07 1 1 0
1  10 0 0 75
3  24 25CN 7 0 0 75
0

0101000
+281 0 -285 0 *
Wi

0101100
+276 0 -276 0 -279 0 +284 0 *
Fa
0  1e-07 7 0

0101000
+275 0 *
Sh

0101100
-297 0 +292 0 +287 0 -282 0 +277 0 -274 0 *
So

0100000
+273 0 *
Co

0100000
+272 0 *
Ve
1.0000001687539e-07
38 0 -59.5
0 0

0101101
*
Ve
1e-07
38 0 -44
0 0

0101101
*
Ed
 1e-07 1 1 0
1  11 0 0 15.5
3  26 27CN 9 0 0 15.5
0

0101000
+270 0 -269 0 *
Ed
 1.0000001687539e-07 1 1 0
1  12 0 0 6.28318530717959
2  28 9 0 0 6.28318530717959
2  29 10 0 0 6.28318530717959
0

0101000
+270 0 -270 0 *
Ed
 1e-07 1 1 0
1  13 0 0 6.28318530717959
2  30 9 0 0 6.28318530717959
2  31 11 0 0 6.28318530717959
0

0101000
+269 0 -269 0 *
Wi

0101100
+268 0 -268 0 -267 0 +266 0 *
Fa
0  1e-07 9 0

0101000
+265 0 *
Ve
1e-07
38 0 -75
0 0

0101101
*
Ed
 1e-07 1 1 0
1  14 0 0 15.5
3  32 33CN 10 0 0 15.5
3  34 35C0 9 0 0 15.5
0

0101000
+270 0 -263 0 *
Ed
 1e-07 1 1 0
1  15 0 0 6.28318530717959
2  36 10 0 0 6.28318530717959
2  37 12 0 0 6.28318530717959
2  38 9 0 0 6.28318530717959
0

0101000
+263 0 -263 0 *
Wi

0101100
+262 0 -262 0 -267 0 +261 0 *
Fa
0  1e-07 10 0

0101000
+260 0 *
Wi

0101100
+266 0 *
Ve
1e-07
14 0 -44
0 0

0101101
*
Ed
 1e-07 1 1 0
1  16 0 0 6.28318530717959
2  39 13 0 0 6.28318530717959
2  40 14 0 0 6.28318530717959
2  41 11 0 0 6.28318530717959
0

0101000
+257 0 -257 0 *
Wi

0101100
-256 0 *
Fa
0  1e-07 11 0

0101000
+258 0 +255 0 *
Wi

0101100
+261 0 *
Ve
1e-07
14 0 -75
0 0

0101101
*
Ed
 1e-07 1 1 0
1  17 0 0 6.28318530717959
2  42 15 0 0 6.28318530717959
2  43 16 0 0 6.28318530717959
2  44 12 0 0 6.28318530717959
0

0101000
+252 0 -252 0 *
Wi

0101100
-251 0 *
Fa
0  1e-07 12 0

0101000
+253 0 +250 0 *
Ve
1.00000006217249e-07
14 0 -59.5
0 0

0101101
*
Ed
 1e-07 1 1 0
1  18 0 0 15.5
3  45 46CN 13 0 0 15.5
0

0101000
+248 0 -257 0 *
Ed
 1.00000006217249e-07 1 1 0
1  19 0 0 6.28318530717959
2  47 13 0 0 6.28318530717959
2  48 15 0 0 6.28318530717959
0

0101000
+248 0 -248 0 *
Wi

0101100
+247 0 -247 0 -246 0 +256 0 *
Fa
0  1e-07 13 0

0101000
+245 0 *
Ed
 1e-07 1 1 0
1  20 0 0 15.5
3  49 50CN 15 0 0 15.5
0

0101000
+248 0 -252 0 *
Wi

0101100
+243 0 -243 0 -246 0 +251 0 *
Fa
0  1e-07 15 0

0101000
+242 0 *
Sh

0101100
-264 0 +259 0 +254 0 -249 0 +244 0 -241 0 *
So

0100000
+240 0 *
Co

0100000
+239 0 *
Ve
1.0000001687539e-07
38 0 -32
0 0

0101101
*
Ve
1e-07
38 0 -20
0 0

0101101
*
Ed
 1e-07 1 1 0
1  21 0 0 12
3  51 52CN 17 0 0 12
0

0101000
+237 0 -236 0 *
Ed
 1.0000001687539e-07 1 1 0
1  22 0 0 6.28318530717959
2  53 17 0 0 6.28318530717959
2  54 18 0 0 6.28318530717959
0

0101000
+237 0 -237 0 *
Ed
 1e-07 1 1 0
1  23 0 0 6.28318530717959
2  55 17 0 0 6.28318530717959
2  56 19 0 0 6.28318530717959
0

0101000
+236 0 -236 0 *
Wi

0101100
+235 0 -235 0 -234 0 +233 0 *
Fa
0  1e-07 17 0

0101000
+232 0 *
Ve
1e-07
38 0 -44
0 0

0101101
*
Ed
 1e-07 1 1 0
1  24 0 0 12
3  57 58CN 18 0 0 12
3  59 60C0 17 0 0 12
0

0101000
+237 0 -230 0 *
Ed
 1e-07 1 1 0
1  25 0 0 6.28318530717959
2  61 18 0 0 6.28318530717959
2  62 20 0 0 6.28318530717959
2  63 17 0 0 6.28318530717959
0

0101000
+230 0 -230 0 *
Wi

0101100
+229 0 -229 0 -234 0 +228 0 *
Fa
0  1e-07 18 0

0101000
+227 0 *
Wi

0101100
+233 0 *
Ve
1e-07
14 0 -20
0 0

0101101
*
Ed
 1e-07 1 1 0
1  26 0 0 6.28318530717959
2  64 21 0 0 6.28318530717959
2  65 22 0 0 6.28318530717959
2  66 19 0 0 6.28318530717959
0

0101000
+224 0 -224 0 *
Wi

0101100
-223 0 *
Fa
0  1e-07 19 0

0101000
+225 0 +222 0 *
Wi

0101100
+228 0 *
Ve
1e-07
14 0 -44
0 0

0101101
*
Ed
 1e-07 1 1 0
1  27 0 0 6.28318530717959
2  67 23 0 0 6.28318530717959
2  68 24 0 0 6.28318530717959
2  69 20 0 0 6.28318530717959
0

0101000
+219 0 -219 0 *
Wi

0101100
-218 0 *
Fa
0  1e-07 20 0

0101000
+220 0 +217 0 *
Ve
1.00000006217249e-07
14 0 -32
0 0

0101101
*
Ed
 1e-07 1 1 0
1  28 0 0 12
3  70 71CN 21 0 0 12
0

0101000
+215 0 -224 0 *
Ed
 1.00000006217249e-07 1 1 0
1  29 0 0 6.28318530717959
2  72 21 0 0 6.28318530717959
2  73 23 0 0 6.28318530717959
0

0101000
+215 0 -215 0 *
Wi

0101100
+214 0 -214 0 -213 0 +223 0 *
Fa
0  1e-07 21 0

0101000
+212 0 *
Ed
 1e-07 1 1 0
1  30 0 0 12
3  74 75CN 23 0 0 12
0

0101000
+215 0 -219 0 *
Wi

0101100
+210 0 -210 0 -213 0 +218 0 *
Fa
0  1e-07 23 0

0101000
+209 0 *
Sh

0101100
-231 0 +226 0 +221 0 -216 0 +211 0 -208 0 *
So

0100000
+207 0 *
Co

0100000
+206 0 *
Ve
1.0000001687539e-07
38 0 -16
0 0

0101101
*
Ve
1e-07
38 0 -12
0 0

0101101
*
Ed
 1e-07 1 1 0
1  31 0 0 4
3  76 77CN 25 0 0 4
0

0101000
+204 0 -203 0 *
Ed
 1.0000001687539e-07 1 1 0
1  32 0 0 6.28318530717959
2  78 25 0 0 6.28318530717959
2  79 26 0 0 6.28318530717959
0

0101000
+204 0 -204 0 *
Ed
 1e-07 1 1 0
1  33 0 0 6.28318530717959
2  80 25 0 0 6.28318530717959
2  81 27 0 0 6.28318530717959
0

0101000
+203 0 -203 0 *
Wi

0101100
+202 0 -202 0 -201 0 +200 0 *
Fa
0  1e-07 25 0

0101000
+199 0 *
Ve
1e-07
38 0 -20
0 0

0101101
*
Ed
 1e-07 1 1 0
1  34 0 0 4
3  82 83CN 26 0 0 4
3  84 85C0 25 0 0 4
0

0101000
+204 0 -197 0 *
Ed
 1e-07 1 1 0
1  35 0 0 6.28318530717959
2  86 26 0 0 6.28318530717959
2  87 28 0 0 6.28318530717959
2  88 25 0 0 6.28318530717959
0

0101000
+197 0 -197 0 *
Wi

0101100
+196 0 -196 0 -201 0 +195 0 *
Fa
0  1e-07 26 0

0101000
+194 0 *
Wi

0101100
+200 0 *
Ve
1e-07
14 0 -12
0 0

0101101
*
Ed
 1e-07 1 1 0
1  36 0 0 6.28318530717959
2  89 29 0 0 6.28318530717959
2  90 30 0 0 6.28318530717959
2  91 27 0 0 6.28318530717959
0

0101000
+191 0 -191 0 *
Wi

0101100
-190 0 *
Fa
0  1e-07 27 0

0101000
+192 0 +189 0 *
Wi

0101100
+195 0 *
Ve
1e-07
14 0 -20
0 0

0101101
*
Ed
 1e-07 1 1 0
1  37 0 0 6.28318530717959
2  92 31 0 0 6.28318530717959
2  93 32 0 0 6.28318530717959
2  94 28 0 0 6.28318530717959
0

0101000
+186 0 -186 0 *
Wi

0101100
-185 0 *
Fa
0  1e-07 28 0

0101000
+187 0 +184 0 *
Ve
1.00000006217249e-07
14 0 -16
0 0

0101101
*
Ed
 1e-07 1 1 0
1  38 0 0 4
3  95 96CN 29 0 0 4
0

0101000
+182 0 -191 0 *
Ed
 1.00000006217249e-07 1 1 0
1  39 0 0 6.28318530717959
2  97 29 0 0 6.28318530717959
2  98 31 0 0 6.28318530717959
0

0101000
+182 0 -182 0 *
Wi

0101100
+181 0 -181 0 -180 0 +190 0 *
Fa
0  1e-07 29 0

0101000
+179 0 *
Ed
 1e-07 1 1 0
1  40 0 0 4
3  99 100CN 31 0 0 4
0

0101000
+182 0 -186 0 *
Wi

0101100
+177 0 -177 0 -180 0 +185 0 *
Fa
0  1e-07 31 0

0101000
+176 0 *
Sh

0101100
-198 0 +193 0 +188 0 -183 0 +178 0 -175 0 *
So

0100000
+174 0 *
Co

0100000
+173 0 *
Ve
1.0000001687539e-07
38 0 0
0 0

0101101
*
Ve
1e-07
38 0 12
0 0

0101101
*
Ed
 1e-07 1 1 0
1  41 0 0 12
3  101 102CN 33 0 0 12
0

0101000
+171 0 -170 0 *
Ed
 1.0000001687539e-07 1 1 0
1  42 0 0 6.28318530717959
2  103 33 0 0 6.28318530717959
2  104 34 0 0 6.28318530717959
0

0101000
+171 0 -171 0 *
Ed
 1e-07 1 1 0
1  43 0 0 6.28318530717959
2  105 33 0 0 6.28318530717959
2  106 35 0 0 6.28318530717959
0

0101000
+170 0 -170 0 *
Wi

0101100
+169 0 -169 0 -168 0 +167 0 *
Fa
0  1e-07 33 0

0101000
+166 0 *
Ve
1e-07
38 0 -12
0 0

0101101
*
Ed
 1e-07 1 1 0
1  44 0 0 12
3  107 108CN 34 0 0 12
3  109 110C0 33 0 0 12
0

0101000
+171 0 -164 0 *
Ed
 1e-07 1 1 0
1  45 0 0 6.28318530717959
2  111 34 0 0 6.28318530717959
2  112 36 0 0 6.28318530717959
2  113 33 0 0 6.28318530717959
0

0101000
+164 0 -164 0 *
Wi

0101100
+163 0 -163 0 -168 0 +162 0 *
Fa
0  1e-07 34 0

0101000
+161 0 *
Wi

0101100
+167 0 *
Ve
1e-07
14 0 12
0 0

0101101
*
Ed
 1e-07 1 1 0
1  46 0 0 6.28318530717959
2  114 37 0 0 6.28318530717959
2  115 38 0 0 6.28318530717959
2  116 35 0 0 6.28318530717959
0

0101000
+158 0 -158 0 *
Wi

0101100
-157 0 *
Fa
0  1e-07 35 0

0101000
+159 0 +156 0 *
Wi

0101100
+162 0 *
Ve
1e-07
14 0 -12
0 0

0101101
*
Ed
 1e-07 1 1 0
1  47 0 0 6.28318530717959
2  117 39 0 0 6.28318530717959
2  118 40 0 0 6.28318530717959
2  119 36 0 0 6.28318530717959
0

0101000
+153 0 -153 0 *
Wi

0101100
-152 0 *
Fa
0  1e-07 36 0

0101000
+154 0 +151 0 *
Ve
1.00000006217249e-07
14 0 0
0 0

0101101
*
Ed
 1e-07 1 1 0
1  48 0 0 12
3  120 121CN 37 0 0 12
0

0101000
+149 0 -158 0 *
Ed
 1.00000006217249e-07 1 1 0
1  49 0 0 6.28318530717959
2  122 37 0 0 6.28318530717959
2  123 39 0 0 6.28318530717959
0

0101000
+149 0 -149 0 *
Wi

0101100
+148 0 -148 0 -147 0 +157 0 *
Fa
0  1e-07 37 0

0101000
+146 0 *
Ed
 1e-07 1 1 0
1  50 0 0 12
3  124 125CN 39 0 0 12
0

0101000
+149 0 -153 0 *
Wi

0101100
+144 0 -144 0 -147 0 +152 0 *
Fa
0  1e-07 39 0

0101000
+143 0 *
Sh

0101100
-165 0 +160 0 +155 0 -150 0 +145 0 -142 0 *
So

0100000
+141 0 *
Co

0100000
+140 0 *
Ve
1.0000001687539e-07
38 0 16
0 0

0101101
*
Ve
1e-07
38 0 20
0 0

0101101
*
Ed
 1e-07 1 1 0
1  51 0 0 4
3  126 127CN 41 0 0 4
0

0101000
+138 0 -137 0 *
Ed
 1.0000001687539e-07 1 1 0
1  52 0 0 6.28318530717959
2  128 41 0 0 6.28318530717959
2  129 42 0 0 6.28318530717959
0

0101000
+138 0 -138 0 *
Ed
 1e-07 1 1 0
1  53 0 0 6.28318530717959
2  130 41 0 0 6.28318530717959
2  131 43 0 0 6.28318530717959
0

0101000
+137 0 -137 0 *
Wi

0101100
+136 0 -136 0 -135 0 +134 0 *
Fa
0  1e-07 41 0

0101000
+133 0 *
Ve
1e-07
38 0 12
0 0

0101101
*
Ed
 1e-07 1 1 0
1  54 0 0 4
3  132 133CN 42 0 0 4
3  134 135C0 41 0 0 4
0

0101000
+138 0 -131 0 *
Ed
 1e-07 1 1 0
1  55 0 0 6.28318530717959
2  136 42 0 0 6.28318530717959
2  137 44 0 0 6.28318530717959
2  138 41 0 0 6.28318530717959
0

0101000
+131 0 -131 0 *
Wi

0101100
+130 0 -130 0 -135 0 +129 0 *
Fa
0  1e-07 42 0

0101000
+128 0 *
Wi

0101100
+134 0 *
Ve
1e-07
14 0 20
0 0

0101101
*
Ed
 1e-07 1 1 0
1  56 0 0 6.28318530717959
2  139 45 0 0 6.28318530717959
2  140 46 0 0 6.28318530717959
2  141 43 0 0 6.28318530717959
0

0101000
+125 0 -125 0 *
Wi

0101100
-124 0 *
Fa
0  1e-07 43 0

0101000
+126 0 +123 0 *
Wi

0101100
+129 0 *
Ve
1e-07
14 0 12
0 0

0101101
*
Ed
 1e-07 1 1 0
1  57 0 0 6.28318530717959
2  142 47 0 0 6.28318530717959
2  143 48 0 0 6.28318530717959
2  144 44 0 0 6.28318530717959
0

0101000
+120 0 -120 0 *
Wi

0101100
-119 0 *
Fa
0  1e-07 44 0

0101000
+121 0 +118 0 *
Ve
1.00000006217249e-07
14 0 16
0 0

0101101
*
Ed
 1e-07 1 1 0
1  58 0 0 4
3  145 146CN 45 0 0 4
0

0101000
+116 0 -125 0 *
Ed
 1.00000006217249e-07 1 1 0
1  59 0 0 6.28318530717959
2  147 45 0 0 6.28318530717959
2  148 47 0 0 6.28318530717959
0

0101000
+116 0 -116 0 *
Wi

0101100
+115 0 -115 0 -114 0 +124 0 *
Fa
0  1e-07 45 0

0101000
+113 0 *
Ed
 1e-07 1 1 0
1  60 0 0 4
3  149 150CN 47 0 0 4
0

0101000
+116 0 -120 0 *
Wi

0101100
+111 0 -111 0 -114 0 +119 0 *
Fa
0  1e-07 47 0

0101000
+110 0 *
Sh

0101100
-132 0 +127 0 +122 0 -117 0 +112 0 -109 0 *
So

0100000
+108 0 *
Co

0100000
+107 0 *
Ve
1.0000001687539e-07
38 0 32
0 0

0101101
*
Ve
1e-07
38 0 44
0 0

0101101
*
Ed
 1e-07 1 1 0
1  61 0 0 12
3  151 152CN 49 0 0 12
0

0101000
+105 0 -104 0 *
Ed
 1.0000001687539e-07 1 1 0
1  62 0 0 6.28318530717959
2  153 49 0 0 6.28318530717959
2  154 50 0 0 6.28318530717959
0

0101000
+105 0 -105 0 *
Ed
 1e-07 1 1 0
1  63 0 0 6.28318530717959
2  155 49 0 0 6.28318530717959
2  156 51 0 0 6.28318530717959
0

0101000
+104 0 -104 0 *
Wi

0101100
+103 0 -103 0 -102 0 +101 0 *
Fa
0  1e-07 49 0

0101000
+100 0 *
Ve
1e-07
38 0 20
0 0

0101101
*
Ed
 1e-07 1 1 0
1  64 0 0 12
3  157 158CN 50 0 0 12
3  159 160C0 49 0 0 12
0

0101000
+105 0 -98 0 *
Ed
 1e-07 1 1 0
1  65 0 0 6.28318530717959
2  161 50 0 0 6.28318530717959
2  162 52 0 0 6.28318530717959
2  163 49 0 0 6.28318530717959
0

0101000
+98 0 -98 0 *
Wi

0101100
+97 0 -97 0 -102 0 +96 0 *
Fa
0  1e-07 50 0

0101000
+95 0 *
Wi

0101100
+101 0 *
Ve
1e-07
14 0 44
0 0

0101101
*
Ed
 1e-07 1 1 0
1  66 0 0 6.28318530717959
2  164 53 0 0 6.28318530717959
2  165 54 0 0 6.28318530717959
2  166 51 0 0 6.28318530717959
0

0101000
+92 0 -92 0 *
Wi

0101100
-91 0 *
Fa
0  1e-07 51 0

0101000
+93 0 +90 0 *
Wi

0101100
+96 0 *
Ve
1e-07
14 0 20
0 0

0101101
*
Ed
 1e-07 1 1 0
1  67 0 0 6.28318530717959
2  167 55 0 0 6.28318530717959
2  168 56 0 0 6.28318530717959
2  169 52 0 0 6.28318530717959
0

0101000
+87 0 -87 0 *
Wi

0101100
-86 0 *
Fa
0  1e-07 52 0

0101000
+88 0 +85 0 *
Ve
1.00000006217249e-07
14 0 32
0 0

0101101
*
Ed
 1e-07 1 1 0
1  68 0 0 12
3  170 171CN 53 0 0 12
0

0101000
+83 0 -92 0 *
Ed
 1.00000006217249e-07 1 1 0
1  69 0 0 6.28318530717959
2  172 53 0 0 6.28318530717959
2  173 55 0 0 6.28318530717959
0

0101000
+83 0 -83 0 *
Wi

0101100
+82 0 -82 0 -81 0 +91 0 *
Fa
0  1e-07 53 0

0101000
+80 0 *
Ed
 1e-07 1 1 0
1  70 0 0 12
3  174 175CN 55 0 0 12
0

0101000
+83 0 -87 0 *
Wi

0101100
+78 0 -78 0 -81 0 +86 0 *
Fa
0  1e-07 55 0

0101000
+77 0 *
Sh

0101100
-99 0 +94 0 +89 0 -84 0 +79 0 -76 0 *
So

0100000
+75 0 *
Co

0100000
+74 0 *
Ve
1.0000001687539e-07
38 0 59.5
0 0

0101101
*
Ve
1e-07
38 0 75
0 0

0101101
*
Ed
 1e-07 1 1 0
1  71 0 0 15.5
3  176 177CN 57 0 0 15.5
0

0101000
+72 0 -71 0 *
Ed
 1.0000001687539e-07 1 1 0
1  72 0 0 6.28318530717959
2  178 57 0 0 6.28318530717959
2  179 58 0 0 6.28318530717959
0

0101000
+72 0 -72 0 *
Ed
 1e-07 1 1 0
1  73 0 0 6.28318530717959
2  180 57 0 0 6.28318530717959
2  181 59 0 0 6.28318530717959
0

0101000
+71 0 -71 0 *
Wi

0101100
+70 0 -70 0 -69 0 +68 0 *
Fa
0  1e-07 57 0

0101000
+67 0 *
Ve
1e-07
38 0 44
0 0

0101101
*
Ed
 1e-07 1 1 0
1  74 0 0 15.5
3  182 183CN 58 0 0 15.5
3  184 185C0 57 0 0 15.5
0

0101000
+72 0 -65 0 *
Ed
 1e-07 1 1 0
1  75 0 0 6.28318530717959
2  186 58 0 0 6.28318530717959
2  187 60 0 0 6.28318530717959
2  188 57 0 0 6.28318530717959
0

0101000
+65 0 -65 0 *
Wi

0101100
+64 0 -64 0 -69 0 +63 0 *
Fa
0  1e-07 58 0

0101000
+62 0 *
Wi

0101100
+68 0 *
Ve
1e-07
14 0 75
0 0

0101101
*
Ed
 1e-07 1 1 0
1  76 0 0 6.28318530717959
2  189 61 0 0 6.28318530717959
2  190 62 0 0 6.28318530717959
2  191 59 0 0 6.28318530717959
0

0101000
+59 0 -59 0 *
Wi

0101100
-58 0 *
Fa
0  1e-07 59 0

0101000
+60 0 +57 0 *
Wi

0101100
+63 0 *
Ve
1e-07
14 0 44
0 0

0101101
*
Ed
 1e-07 1 1 0
1  77 0 0 6.28318530717959
2  192 63 0 0 6.28318530717959
2  193 64 0 0 6.28318530717959
2  194 60 0 0 6.28318530717959
0

0101000
+54 0 -54 0 *
Wi

0101100
-53 0 *
Fa
0  1e-07 60 0

0101000
+55 0 +52 0 *
Ve
1.00000006217249e-07
14 0 59.5
0 0

0101101
*
Ed
 1e-07 1 1 0
1  78 0 0 15.5
3  195 196CN 61 0 0 15.5
0

0101000
+50 0 -59 0 *
Ed
 1.00000006217249e-07 1 1 0
1  79 0 0 6.28318530717959
2  197 61 0 0 6.28318530717959
2  198 63 0 0 6.28318530717959
0

0101000
+50 0 -50 0 *
Wi

0101100
+49 0 -49 0 -48 0 +58 0 *
Fa
0  1e-07 61 0

0101000
+47 0 *
Ed
 1e-07 1 1 0
1  80 0 0 15.5
3  199 200CN 63 0 0 15.5
0

0101000
+50 0 -54 0 *
Wi

0101100
+45 0 -45 0 -48 0 +53 0 *
Fa
0  1e-07 63 0

0101000
+44 0 *
Sh

0101100
-66 0 +61 0 +56 0 -51 0 +46 0 -43 0 *
So

0100000
+42 0 *
Co

0100000
+41 0 *
Ve
1.00000006217249e-07
14 0 0
0 0

0101101
*
Ve
1e-07
14 0 67.5
0 0

0101101
*
Ed
 1e-07 1 1 0
1  81 0 0 67.5
3  201 202CN 65 0 0 67.5
0

0101000
+39 0 -38 0 *
Ed
 1.00000006217249e-07 1 1 0
1  82 0 0 6.28318530717959
2  203 65 0 0 6.28318530717959
2  204 66 0 0 6.28318530717959
0

0101000
+39 0 -39 0 *
Ed
 1e-07 1 1 0
1  83 0 0 6.28318530717959
2  205 65 0 0 6.28318530717959
0

0101000
+38 0 -38 0 *
Wi

0101100
+37 0 -37 0 -36 0 +35 0 *
Fa
0  1e-07 65 0

0101000
+34 0 *
Ve
1e-07
14 0 -67.5
0 0

0101101
*
Ed
 1e-07 1 1 0
1  84 0 0 67.5
3  206 207CN 66 0 0 67.5
0

0101000
+39 0 -32 0 *
Ed
 1e-07 1 1 0
1  85 0 0 6.28318530717959
2  208 66 0 0 6.28318530717959
0

0101000
+32 0 -32 0 *
Wi

0101100
+31 0 -31 0 -36 0 +30 0 *
Fa
0  1e-07 66 0

0101000
+29 0 *
Wi

0101100
+35 0 *
Fa
0  1e-07 67 0

0101000
+27 0 *
Wi

0101100
+30 0 *
Fa
0  1e-07 68 0

0101000
+25 0 *
Sh

0101100
-33 0 +28 0 +26 0 -24 0 *
So

0100000
+23 0 *
Co

0100000
+22 0 *
Ve
1.0000000577316e-07
13 0 0
0 0

0101101
*
Ve
1e-07
13 0 60
0 0

0101101
*
Ed
 1e-07 1 1 0
1  86 0 0 60
3  209 210CN 69 0 0 60
0

0101000
+20 0 -19 0 *
Ed
 1.0000000577316e-07 1 1 0
1  87 0 0 6.28318530717959
2  211 69 0 0 6.28318530717959
2  212 70 0 0 6.28318530717959
0

0101000
+20 0 -20 0 *
Ed
 1e-07 1 1 0
1  88 0 0 6.28318530717959
2  213 69 0 0 6.28318530717959
0

0101000
+19 0 -19 0 *
Wi

0101100
+18 0 -18 0 -17 0 +16 0 *
Fa
0  1e-07 69 0

0101000
+15 0 *
Ve
1e-07
13 0 -60
0 0

0101101
*
Ed
 1e-07 1 1 0
1  89 0 0 60
3  214 215CN 70 0 0 60
0

0101000
+20 0 -13 0 *
Ed
 1e-07 1 1 0
1  90 0 0 6.28318530717959
2  216 70 0 0 6.28318530717959
0

0101000
+13 0 -13 0 *
Wi

0101100
+12 0 -12 0 -17 0 +11 0 *
Fa
0  1e-07 70 0

0101000
+10 0 *
Wi

0101100
+16 0 *
Fa
0  1e-07 71 0

0101000
+8 0 *
Wi

0101100
+11 0 *
Fa
0  1e-07 72 0

0101000
+6 0 *
Sh

0101100
-14 0 +9 0 +7 0 -5 0 *
So

0100000
+4 0 *
Co

0100000
+3 0 *
Co

1100000
+271 0 +238 0 +205 0 +172 0 +139 0 +106 0 +73 0 +40 0 +21 0 +2 0 
*

+1 0 