DBRep_DrawableShape

CASCADE Topology V3, (c) Open Cascade
Locations 0
Curve2ds 25
1 0 0 0 -1 
1 6.2831853071795862 0 0 -1 
1 0 0 1 0 
1 0 0 1 0 
1 0 -4 1 0 
2 3.4545855979943322e-15 -7.5183778640957395e-16 1 0 -0 1 38
1 0 0 0 -1 
1 6.2831853071795862 0 0 -1 
1 0 -0 -0 1 
1 6.2831853071795862 -0 -0 1 
1 0 -4 1 0 
2 3.4545855979943322e-15 -7.5183778640957395e-16 1 0 -0 1 38
1 -0 4 1 -0 
1 0 -4 1 0 
2 7.8139436145109895e-16 5.7150183960209825e-16 1 0 -0 1 14
2 3.4545855979943322e-15 -7.5183778640957395e-16 1 0 -0 1 14
1 0 -4 1 0 
2 7.8139436145109895e-16 5.7150183960209825e-16 1 0 -0 1 14
2 3.4545855979943322e-15 -7.5183778640957395e-16 1 0 -0 1 14
1 0 0 0 -1 
1 6.2831853071795862 0 0 -1 
1 0 0 1 0 
1 0 0 1 0 
1 0 0 0 -1 
1 6.2831853071795862 0 0 -1 
Curves 10
1 38 0 16 0 0 1 
2 0 0 16 0 0 1 1 0 0 0 1 0 38
2 0 0 20 0 0 1 1 0 0 0 1 0 38
1 38 0 16 -0 -0 -1 
2 0 0 12 0 0 1 1 0 0 0 1 0 38
2 0 0 20 0 0 1 1 0 0 0 1 0 14
2 0 0 12 0 0 1 1 0 0 0 1 0 14
1 14 0 16 0 0 1 
2 0 0 16 0 0 1 1 0 0 0 1 0 14
1 14 0 16 -0 -0 -1 
Polygon3D 0
PolygonOnTriangulations 0
Surfaces 8
2 0 0 16 -0 -0 -1 1 0 0 0 1 0 38
2 0 0 16 0 0 1 1 0 0 0 1 0 38
1 -3.4545855979943322e-15 7.5183778640957395e-16 20 0 0 1 1 0 -0 -0 1 0 
1 -3.4545855979943322e-15 7.5183778640957395e-16 12 0 0 1 1 0 -0 -0 1 0 
2 0 0 16 -0 -0 -1 1 0 0 0 1 0 14
1 -7.8139436145109895e-16 -5.7150183960209825e-16 20 0 0 1 1 0 -0 -0 1 0 
2 0 0 16 0 0 1 1 0 0 0 1 0 14
1 -7.8139436145109895e-16 -5.7150183960209825e-16 12 0 0 1 1 0 -0 -0 1 0 
Triangulations 0

TShapes 33
Ve
1.0000001687539e-07
38 0 16
0 0

0101101
*
Ve
1e-07
38 0 20
0 0

0101101
*
Ed
 1e-07 1 1 0
1  1 0 0 4
3  1 2CN 1 0 0 4
0

0101000
+33 0 -32 0 *
Ed
 1.0000001687539e-07 1 1 0
1  2 0 0 6.28318530717959
2  3 1 0 0 6.28318530717959
2  4 2 0 0 6.28318530717959
0

0101000
+33 0 -33 0 *
Ed
 1e-07 1 1 0
1  3 0 0 6.28318530717959
2  5 1 0 0 6.28318530717959
2  6 3 0 0 6.28318530717959
0

0101000
+32 0 -32 0 *
Wi

0101100
+31 0 -31 0 -30 0 +29 0 *
Fa
0  1e-07 1 0

0101000
+28 0 *
Ve
1e-07
38 0 12
0 0

0101101
*
Ed
 1e-07 1 1 0
1  4 0 0 4
3  7 8CN 2 0 0 4
3  9 10C0 1 0 0 4
0

0101000
+33 0 -26 0 *
Ed
 1e-07 1 1 0
1  5 0 0 6.28318530717959
2  11 2 0 0 6.28318530717959
2  12 4 0 0 6.28318530717959
2  13 1 0 0 6.28318530717959
0

0101000
+26 0 -26 0 *
Wi

0101100
+25 0 -25 0 -30 0 +24 0 *
Fa
0  1e-07 2 0

0101000
+23 0 *
Wi

0101100
+29 0 *
Ve
1e-07
14 0 20
0 0

0101101
*
Ed
 1e-07 1 1 0
1  6 0 0 6.28318530717959
2  14 5 0 0 6.28318530717959
2  15 6 0 0 6.28318530717959
2  16 3 0 0 6.28318530717959
0

0101000
+20 0 -20 0 *
Wi

0101100
-19 0 *
Fa
0  1e-07 3 0

0101000
+21 0 +18 0 *
Wi

0101100
+24 0 *
Ve
1e-07
14 0 12
0 0

0101101
*
Ed
 1e-07 1 1 0
1  7 0 0 6.28318530717959
2  17 7 0 0 6.28318530717959
2  18 8 0 0 6.28318530717959
2  19 4 0 0 6.28318530717959
0

0101000
+15 0 -15 0 *
Wi

0101100
-14 0 *
Fa
0  1e-07 4 0

0101000
+16 0 +13 0 *
Ve
1.00000006217249e-07
14 0 16
0 0

0101101
*
Ed
 1e-07 1 1 0
1  8 0 0 4
3  20 21CN 5 0 0 4
0

0101000
+11 0 -20 0 *
Ed
 1.00000006217249e-07 1 1 0
1  9 0 0 6.28318530717959
2  22 5 0 0 6.28318530717959
2  23 7 0 0 6.28318530717959
0

0101000
+11 0 -11 0 *
Wi

0101100
+10 0 -10 0 -9 0 +19 0 *
Fa
0  1e-07 5 0

0101000
+8 0 *
Ed
 1e-07 1 1 0
1  10 0 0 4
3  24 25CN 7 0 0 4
0

0101000
+11 0 -15 0 *
Wi

0101100
+6 0 -6 0 -9 0 +14 0 *
Fa
0  1e-07 7 0

0101000
+5 0 *
Sh

0101100
-27 0 +22 0 +17 0 -12 0 +7 0 -4 0 *
So

0100000
+3 0 *
Co

0100000
+2 0 *

+1 0 