DBRep_DrawableShape

CASCADE Topology V3, (c) Open Cascade
Locations 0
Curve2ds 8
1 0 0 0 -1 
1 6.2831853071795862 0 0 -1 
1 0 0 1 0 
1 0 0 1 0 
1 0 -67.5 1 0 
1 0 0 0 -1 
1 6.2831853071795862 0 0 -1 
1 0 -67.5 1 0 
Curves 5
1 14 0 0 0 0 1 
2 0 0 0 0 0 1 1 0 0 0 1 0 14
2 0 0 67.5 0 0 1 1 0 0 0 1 0 14
1 14 0 0 -0 -0 -1 
2 0 0 -67.5 0 0 1 1 0 0 0 1 0 14
Polygon3D 0
PolygonOnTriangulations 0
Surfaces 4
2 0 0 0 -0 -0 -1 1 0 0 0 1 0 14
2 0 0 0 0 0 1 1 0 0 0 1 0 14
1 -7.8139436145109895e-16 -5.7150183960209825e-16 67.5 0 0 1 1 0 -0 -0 1 0 
1 -7.8139436145109895e-16 -5.7150183960209825e-16 -67.5 0 0 1 1 0 -0 -0 1 0 
Triangulations 0

TShapes 19
Ve
1.00000006217249e-07
14 0 0
0 0

0101101
*
Ve
1e-07
14 0 67.5
0 0

0101101
*
Ed
 1e-07 1 1 0
1  1 0 0 67.5
3  1 2CN 1 0 0 67.5
0

0101000
+19 0 -18 0 *
Ed
 1.00000006217249e-07 1 1 0
1  2 0 0 6.28318530717959
2  3 1 0 0 6.28318530717959
2  4 2 0 0 6.28318530717959
0

0101000
+19 0 -19 0 *
Ed
 1e-07 1 1 0
1  3 0 0 6.28318530717959
2  5 1 0 0 6.28318530717959
0

0101000
+18 0 -18 0 *
Wi

0101100
+17 0 -17 0 -16 0 +15 0 *
Fa
0  1e-07 1 0

0101000
+14 0 *
Ve
1e-07
14 0 -67.5
0 0

0101101
*
Ed
 1e-07 1 1 0
1  4 0 0 67.5
3  6 7CN 2 0 0 67.5
0

0101000
+19 0 -12 0 *
Ed
 1e-07 1 1 0
1  5 0 0 6.28318530717959
2  8 2 0 0 6.28318530717959
0

0101000
+12 0 -12 0 *
Wi

0101100
+11 0 -11 0 -16 0 +10 0 *
Fa
0  1e-07 2 0

0101000
+9 0 *
Wi

0101100
+15 0 *
Fa
0  1e-07 3 0

0101000
+7 0 *
Wi

0101100
+10 0 *
Fa
0  1e-07 4 0

0101000
+5 0 *
Sh

0101100
-13 0 +8 0 +6 0 -4 0 *
So

0100000
+3 0 *
Co

0100000
+2 0 *

+1 0 